<svg xmlns="http://www.w3.org/2000/svg" xmlns:xlink="http://www.w3.org/1999/xlink" width="500" zoomAndPan="magnify" viewBox="0 0 375 149.999998" height="200" preserveAspectRatio="xMidYMid meet" version="1.2"><defs><clipPath id="a391072bb5"><path d="M 35.132812 75.683594 L 131.300781 75.683594 L 131.300781 118 L 35.132812 118 Z M 35.132812 75.683594 "/></clipPath></defs><g id="b772fd8654"><g clip-rule="nonzero" clip-path="url(#a391072bb5)"><path style=" stroke:none;fill-rule:nonzero;fill:#179b9e;fill-opacity:1;" d="M 107.019531 75.683594 C 105.339844 76.109375 103.128906 76.394531 100.835938 76.613281 C 98.546875 76.832031 96.175781 76.992188 93.976562 77.1875 C 92.863281 77.285156 91.847656 77.390625 90.871094 77.515625 C 89.902344 77.644531 88.992188 77.785156 88.175781 77.945312 C 86.542969 78.269531 85.324219 78.667969 84.726562 79.089844 C 84.421875 79.300781 84.296875 79.527344 84.28125 79.746094 C 84.28125 79.964844 84.382812 80.183594 84.644531 80.398438 C 85.160156 80.835938 86.117188 81.261719 87.394531 81.628906 C 88.03125 81.8125 88.726562 81.980469 89.457031 82.128906 L 90.007812 82.230469 L 90.5625 82.324219 C 90.960938 82.386719 91.394531 82.453125 91.835938 82.511719 C 93.597656 82.753906 95.613281 82.953125 97.890625 83.15625 C 100.167969 83.363281 102.71875 83.570312 105.503906 83.871094 C 108.273438 84.167969 111.089844 84.535156 113.84375 85 C 116.59375 85.46875 119.28125 86.039062 121.679688 86.710938 C 124.117188 87.398438 126.15625 88.167969 127.753906 89.003906 C 129.347656 89.84375 130.480469 90.753906 130.941406 91.710938 C 131.175781 92.1875 131.234375 92.675781 131.105469 93.148438 C 131.0625 93.386719 130.933594 93.617188 130.8125 93.847656 C 130.746094 93.964844 130.648438 94.074219 130.566406 94.1875 C 130.476562 94.300781 130.386719 94.414062 130.269531 94.523438 L 129.925781 94.855469 C 129.792969 94.960938 129.65625 95.066406 129.519531 95.175781 L 129.304688 95.332031 L 129.070312 95.488281 C 128.90625 95.589844 128.75 95.695312 128.578125 95.796875 C 127.878906 96.199219 127.078125 96.582031 126.175781 96.945312 C 125.257812 97.304688 124.273438 97.652344 123.167969 97.96875 C 122.066406 98.292969 120.882812 98.597656 119.582031 98.878906 C 118.925781 99.023438 118.300781 99.144531 117.652344 99.273438 C 117 99.394531 116.34375 99.519531 115.671875 99.628906 C 115.007812 99.746094 114.335938 99.847656 113.65625 99.953125 C 112.980469 100.050781 112.300781 100.152344 111.625 100.242188 C 110.941406 100.335938 110.269531 100.417969 109.589844 100.507812 C 108.917969 100.585938 108.242188 100.667969 107.582031 100.742188 C 106.25 100.894531 104.941406 101.027344 103.675781 101.152344 C 102.40625 101.28125 101.167969 101.398438 99.996094 101.507812 C 98.816406 101.621094 97.683594 101.726562 96.640625 101.828125 C 94.523438 102.035156 92.660156 102.234375 91.097656 102.445312 C 89.527344 102.652344 88.277344 102.867188 87.328125 103.082031 C 87.199219 103.109375 87.097656 103.136719 86.984375 103.164062 C 86.875 103.191406 86.761719 103.214844 86.667969 103.242188 L 86.367188 103.324219 L 86.101562 103.410156 L 85.828125 103.492188 C 85.398438 103.644531 85.222656 103.703125 85.046875 103.761719 C 84.382812 104.027344 83.761719 104.320312 83.199219 104.644531 C 83.0625 104.730469 82.929688 104.8125 82.792969 104.894531 C 82.660156 104.980469 82.546875 105.074219 82.421875 105.160156 C 82.359375 105.203125 82.289062 105.246094 82.234375 105.292969 L 82.074219 105.433594 L 81.90625 105.574219 L 81.453125 106.007812 L 81.207031 106.308594 C 81.167969 106.359375 81.113281 106.40625 81.082031 106.460938 L 80.984375 106.617188 L 80.878906 106.773438 L 80.628906 107.25 C 80.582031 107.355469 80.554688 107.46875 80.511719 107.574219 L 80.453125 107.738281 L 80.421875 107.902344 C 80.40625 108.015625 80.363281 108.121094 80.363281 108.234375 L 80.339844 108.570312 C 80.332031 108.679688 80.359375 108.792969 80.363281 108.90625 L 80.371094 109.070312 L 80.402344 109.25 C 80.425781 109.367188 80.4375 109.484375 80.46875 109.605469 C 80.582031 110.082031 80.78125 110.574219 81.03125 111.078125 C 81.292969 111.582031 81.621094 112.101562 81.996094 112.632812 C 82.378906 113.164062 82.820312 113.710938 83.296875 114.269531 C 83.78125 114.835938 84.304688 115.410156 84.855469 116 L 86.585938 117.828125 L 35.496094 117.992188 L 35.300781 116.042969 C 35.246094 115.375 35.203125 114.695312 35.195312 114 C 35.203125 113.300781 35.238281 112.589844 35.347656 111.867188 C 35.460938 111.140625 35.636719 110.40625 35.917969 109.660156 C 36.210938 108.917969 36.589844 108.164062 37.109375 107.410156 C 37.238281 107.222656 37.386719 107.03125 37.53125 106.84375 L 37.75 106.558594 L 38.003906 106.269531 C 38.179688 106.078125 38.339844 105.882812 38.539062 105.691406 L 39.136719 105.121094 C 39.335938 104.929688 39.582031 104.742188 39.804688 104.554688 L 40.148438 104.273438 L 40.53125 103.992188 C 40.789062 103.808594 41.035156 103.621094 41.3125 103.4375 L 42.175781 102.882812 L 42.394531 102.746094 L 42.632812 102.609375 L 43.113281 102.339844 L 43.59375 102.066406 C 43.753906 101.976562 43.941406 101.886719 44.113281 101.796875 C 44.472656 101.621094 44.816406 101.441406 45.1875 101.265625 L 46.355469 100.738281 L 46.652344 100.605469 L 47.613281 100.21875 L 48.257812 99.960938 C 48.476562 99.875 48.722656 99.789062 48.953125 99.707031 C 49.429688 99.539062 49.882812 99.367188 50.382812 99.203125 L 51.921875 98.710938 C 54.0625 98.066406 56.46875 97.457031 59.1875 96.902344 C 59.894531 96.765625 60.605469 96.632812 61.320312 96.503906 L 61.859375 96.40625 L 62.421875 96.3125 L 63.566406 96.132812 L 64.714844 95.953125 L 65.890625 95.789062 C 66.285156 95.734375 66.679688 95.6875 67.074219 95.636719 C 67.46875 95.589844 67.867188 95.539062 68.261719 95.496094 C 71.4375 95.132812 74.59375 94.882812 77.550781 94.703125 C 80.515625 94.523438 83.300781 94.40625 85.851562 94.316406 C 87.140625 94.269531 88.351562 94.230469 89.507812 94.191406 C 90.667969 94.152344 91.761719 94.117188 92.804688 94.078125 C 96.984375 93.929688 100.253906 93.746094 102.804688 93.449219 C 104.015625 93.320312 105.183594 93.128906 106.199219 92.910156 C 106.707031 92.796875 107.164062 92.679688 107.59375 92.558594 C 107.695312 92.527344 107.785156 92.496094 107.890625 92.464844 L 108.449219 92.273438 C 108.527344 92.242188 108.609375 92.207031 108.691406 92.175781 C 108.78125 92.144531 108.847656 92.109375 108.914062 92.078125 C 108.980469 92.042969 109.070312 92.011719 109.128906 91.976562 C 109.242188 91.910156 109.390625 91.84375 109.480469 91.773438 C 109.699219 91.636719 109.851562 91.5 109.957031 91.351562 C 110.164062 91.050781 110.132812 90.695312 109.816406 90.320312 C 109.503906 89.945312 108.921875 89.554688 108.128906 89.195312 C 107.289062 88.820312 106.175781 88.449219 104.789062 88.09375 C 103.40625 87.738281 101.757812 87.394531 99.925781 87.078125 C 98.097656 86.757812 95.894531 86.445312 93.480469 86.082031 C 91.074219 85.722656 88.441406 85.304688 85.933594 84.769531 C 85.304688 84.636719 84.703125 84.496094 84.089844 84.347656 C 83.78125 84.269531 83.46875 84.191406 83.167969 84.109375 L 82.308594 83.863281 C 81.203125 83.53125 80.25 83.175781 79.433594 82.808594 C 77.800781 82.074219 76.753906 81.257812 76.5625 80.433594 C 76.453125 80.023438 76.628906 79.609375 77.019531 79.226562 C 77.421875 78.84375 78.039062 78.484375 78.878906 78.175781 C 79.710938 77.863281 80.71875 77.601562 81.816406 77.382812 C 82.910156 77.164062 84.09375 76.988281 85.308594 76.851562 C 86.53125 76.710938 87.789062 76.605469 89.0625 76.527344 C 90.328125 76.449219 91.636719 76.394531 92.886719 76.363281 C 95.402344 76.292969 97.847656 76.265625 100.226562 76.1875 C 102.601562 76.105469 104.925781 75.964844 107.019531 75.683594 Z M 107.019531 75.683594 "/></g><g style="fill:#f7ac32;fill-opacity:1;"><g transform="translate(35.932415, 71.6822)"><path style="stroke:none" d="M 15.703125 -7.40625 C 15.921875 -6.09375 15.644531 -4.875 14.875 -3.75 C 14.113281 -2.632812 13.054688 -1.960938 11.703125 -1.734375 C 10.378906 -1.503906 9.160156 -1.785156 8.046875 -2.578125 C 6.929688 -3.367188 6.265625 -4.421875 6.046875 -5.734375 L 2.296875 -27.46875 L -1.71875 -25.1875 C -1.84375 -25.132812 -1.972656 -25.085938 -2.109375 -25.046875 C -2.242188 -25.003906 -2.375 -24.972656 -2.5 -24.953125 C -3.507812 -24.785156 -4.453125 -25.003906 -5.328125 -25.609375 C -6.210938 -26.210938 -6.75 -27.050781 -6.9375 -28.125 C -7.082031 -28.957031 -6.960938 -29.742188 -6.578125 -30.484375 C -6.203125 -31.222656 -5.640625 -31.800781 -4.890625 -32.21875 L 3.21875 -36.8125 L 5.578125 -37.21875 C 6.929688 -37.445312 8.15625 -37.171875 9.25 -36.390625 C 10.34375 -35.609375 11.007812 -34.546875 11.25 -33.203125 Z M 15.703125 -7.40625 "/></g></g><g style="fill:#258730;fill-opacity:1;"><g transform="translate(62.289302, 65.189502)"><path style="stroke:none" d="M 3.3125 0 C 2.664062 0 2.203125 -0.203125 1.921875 -0.609375 C 1.640625 -1.015625 1.46875 -1.507812 1.40625 -2.09375 C 1.34375 -2.6875 1.3125 -3.265625 1.3125 -3.828125 C 1.3125 -6.171875 1.695312 -8.179688 2.46875 -9.859375 C 3.25 -11.546875 4.25 -12.988281 5.46875 -14.1875 C 6.6875 -15.382812 7.976562 -16.4375 9.34375 -17.34375 C 10.71875 -18.25 12.007812 -19.082031 13.21875 -19.84375 C 14.4375 -20.601562 15.4375 -21.378906 16.21875 -22.171875 C 17 -22.972656 17.390625 -23.859375 17.390625 -24.828125 C 17.390625 -25.816406 17 -26.640625 16.21875 -27.296875 C 15.4375 -27.953125 14.503906 -28.28125 13.421875 -28.28125 C 12.515625 -28.28125 11.640625 -27.972656 10.796875 -27.359375 C 9.953125 -26.753906 8.894531 -25.722656 7.625 -24.265625 C 6.8125 -23.359375 5.828125 -22.90625 4.671875 -22.90625 C 3.492188 -22.90625 2.535156 -23.328125 1.796875 -24.171875 C 1.066406 -25.015625 0.703125 -25.914062 0.703125 -26.875 C 0.703125 -27.40625 0.941406 -28.175781 1.421875 -29.1875 C 1.910156 -30.207031 2.679688 -31.253906 3.734375 -32.328125 C 4.796875 -33.398438 6.175781 -34.3125 7.875 -35.0625 C 9.570312 -35.8125 11.640625 -36.1875 14.078125 -36.1875 C 15.628906 -36.1875 17.164062 -35.953125 18.6875 -35.484375 C 20.21875 -35.015625 21.597656 -34.320312 22.828125 -33.40625 C 24.066406 -32.488281 25.050781 -31.347656 25.78125 -29.984375 C 26.507812 -28.628906 26.875 -27.066406 26.875 -25.296875 C 26.875 -23.671875 26.507812 -22.21875 25.78125 -20.9375 C 25.050781 -19.664062 24.109375 -18.515625 22.953125 -17.484375 C 21.796875 -16.453125 20.5625 -15.507812 19.25 -14.65625 C 17.945312 -13.800781 16.710938 -13 15.546875 -12.25 C 14.378906 -11.5 13.425781 -10.753906 12.6875 -10.015625 C 11.957031 -9.285156 11.578125 -8.535156 11.546875 -7.765625 L 23.9375 -7.765625 C 25.03125 -7.765625 25.945312 -7.390625 26.6875 -6.640625 C 27.4375 -5.890625 27.8125 -4.96875 27.8125 -3.875 C 27.8125 -2.820312 27.4375 -1.910156 26.6875 -1.140625 C 25.945312 -0.378906 25.03125 0 23.9375 0 Z M 3.3125 0 "/></g></g><g style="fill:#b85a23;fill-opacity:1;"><g transform="translate(98.182169, 67.49237)"><path style="stroke:none" d="M 13.671875 2.71875 C 11.785156 2.414062 10.144531 1.894531 8.75 1.15625 C 7.363281 0.414062 6.191406 -0.363281 5.234375 -1.1875 C 4.285156 -2.007812 3.585938 -2.71875 3.140625 -3.3125 C 2.691406 -3.90625 2.46875 -4.203125 2.46875 -4.203125 C 1.5 -5.296875 1.113281 -6.476562 1.3125 -7.75 C 1.476562 -8.820312 2.023438 -9.695312 2.953125 -10.375 C 3.878906 -11.050781 4.863281 -11.304688 5.90625 -11.140625 C 6.238281 -11.085938 6.578125 -10.988281 6.921875 -10.84375 C 7.265625 -10.695312 7.5625 -10.441406 7.8125 -10.078125 C 7.8125 -10.078125 7.953125 -9.878906 8.234375 -9.484375 C 8.523438 -9.097656 8.953125 -8.640625 9.515625 -8.109375 C 10.078125 -7.578125 10.765625 -7.078125 11.578125 -6.609375 C 12.390625 -6.140625 13.320312 -5.820312 14.375 -5.65625 C 15.75 -5.445312 16.929688 -5.664062 17.921875 -6.3125 C 18.910156 -6.957031 19.484375 -7.804688 19.640625 -8.859375 C 19.859375 -10.242188 19.359375 -11.425781 18.140625 -12.40625 C 16.921875 -13.382812 15.351562 -14.023438 13.4375 -14.328125 L 12.1875 -14.515625 C 11.507812 -14.617188 10.957031 -14.960938 10.53125 -15.546875 C 10.113281 -16.128906 9.957031 -16.78125 10.0625 -17.5 C 10.164062 -18.144531 10.488281 -18.671875 11.03125 -19.078125 L 18.765625 -25.078125 L 9.8125 -26.484375 C 8.757812 -26.640625 7.910156 -27.144531 7.265625 -28 C 6.617188 -28.863281 6.375 -29.820312 6.53125 -30.875 C 6.695312 -31.945312 7.21875 -32.8125 8.09375 -33.46875 C 8.96875 -34.125 9.945312 -34.367188 11.03125 -34.203125 L 26.953125 -31.703125 C 28.035156 -31.535156 28.90625 -31.003906 29.5625 -30.109375 C 30.226562 -29.210938 30.472656 -28.195312 30.296875 -27.0625 C 30.140625 -26.007812 29.644531 -25.15625 28.8125 -24.5 L 21.328125 -18.65625 C 23.878906 -17.664062 25.859375 -16.269531 27.265625 -14.46875 C 28.671875 -12.675781 29.15625 -10.394531 28.71875 -7.625 C 28.488281 -6.144531 28 -4.710938 27.25 -3.328125 C 26.5 -1.953125 25.488281 -0.75 24.21875 0.28125 C 22.957031 1.3125 21.445312 2.0625 19.6875 2.53125 C 17.925781 3 15.921875 3.0625 13.671875 2.71875 Z M 13.671875 2.71875 "/></g></g><g style="fill:#5b8def;fill-opacity:1;"><g transform="translate(143.601616, 69.969463)"><path style="stroke:none" d="M 29.125 -39.84375 C 29.476562 -40.507812 30.015625 -40.953125 30.734375 -41.171875 C 31.453125 -41.398438 32.347656 -41.515625 33.421875 -41.515625 C 34.503906 -41.515625 35.375 -41.421875 36.03125 -41.234375 C 36.695312 -41.046875 37.191406 -40.816406 37.515625 -40.546875 C 37.835938 -40.285156 38.078125 -39.890625 38.234375 -39.359375 C 38.453125 -38.753906 38.5625 -37.789062 38.5625 -36.46875 L 38.5625 -4.984375 C 38.5625 -4.078125 38.535156 -3.414062 38.484375 -3 C 38.429688 -2.582031 38.25 -2.09375 37.9375 -1.53125 C 37.414062 -0.507812 35.941406 0 33.515625 0 C 32.046875 0 31.023438 -0.113281 30.453125 -0.34375 C 29.890625 -0.570312 29.421875 -0.929688 29.046875 -1.421875 C 20.535156 -12.765625 14.9375 -20.175781 12.25 -23.65625 L 12.25 -4.984375 C 12.25 -4.078125 12.21875 -3.414062 12.15625 -3 C 12.101562 -2.582031 11.925781 -2.09375 11.625 -1.53125 C 11.09375 -0.507812 9.617188 0 7.203125 0 C 4.859375 0 3.421875 -0.507812 2.890625 -1.53125 C 2.585938 -2.09375 2.40625 -2.601562 2.34375 -3.0625 C 2.289062 -3.519531 2.265625 -4.179688 2.265625 -5.046875 L 2.265625 -36.703125 C 2.265625 -38.140625 2.441406 -39.1875 2.796875 -39.84375 C 3.160156 -40.507812 3.703125 -40.953125 4.421875 -41.171875 C 5.140625 -41.398438 6.066406 -41.515625 7.203125 -41.515625 C 8.335938 -41.515625 9.234375 -41.410156 9.890625 -41.203125 C 10.554688 -40.992188 11.019531 -40.757812 11.28125 -40.5 C 11.4375 -40.382812 11.875 -39.890625 12.59375 -39.015625 C 20.570312 -28.171875 25.90625 -21.007812 28.59375 -17.53125 L 28.59375 -36.703125 C 28.59375 -38.140625 28.769531 -39.1875 29.125 -39.84375 Z M 29.125 -39.84375 "/></g></g><g style="fill:#5b8def;fill-opacity:1;"><g transform="translate(184.433865, 69.969463)"><path style="stroke:none" d="M 15.546875 -0.109375 C 11.722656 -0.109375 8.550781 -1.554688 6.03125 -4.453125 C 3.519531 -7.347656 2.265625 -10.875 2.265625 -15.03125 L 2.265625 -24.953125 C 2.265625 -25.859375 2.289062 -26.519531 2.34375 -26.9375 C 2.40625 -27.351562 2.570312 -27.847656 2.84375 -28.421875 C 3.363281 -29.441406 4.835938 -29.953125 7.265625 -29.953125 C 9.910156 -29.953125 11.457031 -29.234375 11.90625 -27.796875 C 12.132812 -27.191406 12.25 -26.226562 12.25 -24.90625 L 12.25 -14.96875 C 12.25 -13.414062 12.691406 -12.207031 13.578125 -11.34375 C 14.472656 -10.476562 15.664062 -10.046875 17.15625 -10.046875 C 18.644531 -10.046875 19.851562 -10.5 20.78125 -11.40625 C 21.707031 -12.3125 22.171875 -13.5 22.171875 -14.96875 L 22.171875 -25.015625 C 22.171875 -25.878906 22.195312 -26.53125 22.25 -26.96875 C 22.3125 -27.40625 22.492188 -27.90625 22.796875 -28.46875 C 23.285156 -29.457031 24.742188 -29.953125 27.171875 -29.953125 C 29.546875 -29.953125 31 -29.441406 31.53125 -28.421875 C 31.800781 -27.847656 31.960938 -27.34375 32.015625 -26.90625 C 32.078125 -26.476562 32.109375 -25.828125 32.109375 -24.953125 L 32.109375 -4.875 C 32.109375 -4.039062 32.078125 -3.40625 32.015625 -2.96875 C 31.960938 -2.539062 31.785156 -2.0625 31.484375 -1.53125 C 30.910156 -0.550781 29.453125 -0.0625 27.109375 -0.0625 C 24.804688 -0.0625 23.390625 -0.515625 22.859375 -1.421875 C 22.484375 -2.054688 22.296875 -2.832031 22.296875 -3.75 C 22.140625 -3.476562 21.796875 -3.097656 21.265625 -2.609375 C 20.734375 -2.117188 20.222656 -1.703125 19.734375 -1.359375 C 18.453125 -0.523438 17.054688 -0.109375 15.546875 -0.109375 Z M 15.546875 -0.109375 "/></g></g><g style="fill:#5b8def;fill-opacity:1;"><g transform="translate(218.801005, 69.969463)"><path style="stroke:none" d="M 12.03125 -25.921875 C 13.800781 -28.609375 15.9375 -29.953125 18.4375 -29.953125 C 22.289062 -29.953125 25.164062 -28.304688 27.0625 -25.015625 C 27.46875 -25.578125 27.960938 -26.171875 28.546875 -26.796875 C 29.140625 -27.421875 30.078125 -28.101562 31.359375 -28.84375 C 32.648438 -29.582031 33.972656 -29.953125 35.328125 -29.953125 C 38.359375 -29.953125 40.894531 -28.785156 42.9375 -26.453125 C 44.976562 -24.128906 46 -20.285156 46 -14.921875 L 46 -4.984375 C 46 -4.117188 45.96875 -3.46875 45.90625 -3.03125 C 45.851562 -2.59375 45.675781 -2.09375 45.375 -1.53125 C 44.882812 -0.507812 43.425781 0 41 0 C 38.625 0 37.171875 -0.53125 36.640625 -1.59375 C 36.378906 -2.15625 36.21875 -2.65625 36.15625 -3.09375 C 36.101562 -3.53125 36.078125 -4.179688 36.078125 -5.046875 L 36.078125 -14.96875 C 36.078125 -18.257812 34.90625 -19.90625 32.5625 -19.90625 C 31.238281 -19.90625 30.335938 -19.46875 29.859375 -18.59375 C 29.390625 -17.726562 29.15625 -16.503906 29.15625 -14.921875 L 29.15625 -4.984375 C 29.15625 -4.078125 29.125 -3.414062 29.0625 -3 C 29.007812 -2.582031 28.832031 -2.09375 28.53125 -1.53125 C 28 -0.507812 26.523438 0 24.109375 0 C 21.722656 0 20.265625 -0.53125 19.734375 -1.59375 C 19.472656 -2.15625 19.3125 -2.65625 19.25 -3.09375 C 19.195312 -3.53125 19.171875 -4.179688 19.171875 -5.046875 L 19.171875 -14.96875 C 19.171875 -18.257812 18 -19.90625 15.65625 -19.90625 C 13.382812 -19.90625 12.25 -18.257812 12.25 -14.96875 L 12.25 -4.9375 C 12.25 -4.0625 12.21875 -3.40625 12.15625 -2.96875 C 12.101562 -2.539062 11.925781 -2.039062 11.625 -1.46875 C 11.0625 -0.488281 9.585938 0 7.203125 0 C 4.816406 0 3.363281 -0.507812 2.84375 -1.53125 C 2.570312 -2.09375 2.40625 -2.582031 2.34375 -3 C 2.289062 -3.414062 2.265625 -4.078125 2.265625 -4.984375 L 2.265625 -24.953125 C 2.265625 -25.828125 2.289062 -26.476562 2.34375 -26.90625 C 2.40625 -27.34375 2.585938 -27.828125 2.890625 -28.359375 C 3.460938 -29.378906 4.804688 -29.890625 6.921875 -29.890625 C 9.035156 -29.890625 10.414062 -29.546875 11.0625 -28.859375 C 11.707031 -28.179688 12.03125 -27.203125 12.03125 -25.921875 Z M 12.03125 -25.921875 "/></g></g><g style="fill:#5b8def;fill-opacity:1;"><g transform="translate(267.062446, 69.969463)"><path style="stroke:none" d="M 18.65625 -29.828125 C 22.019531 -29.828125 25.109375 -28.332031 27.921875 -25.34375 C 30.742188 -22.363281 32.15625 -18.894531 32.15625 -14.9375 C 32.15625 -10.988281 30.753906 -7.53125 27.953125 -4.5625 C 25.160156 -1.59375 22.15625 -0.109375 18.9375 -0.109375 C 15.726562 -0.109375 13.441406 -1.019531 12.078125 -2.84375 C 11.773438 -0.988281 10.148438 -0.0625 7.203125 -0.0625 C 4.816406 -0.0625 3.363281 -0.570312 2.84375 -1.59375 C 2.570312 -2.15625 2.40625 -2.65625 2.34375 -3.09375 C 2.289062 -3.53125 2.265625 -4.179688 2.265625 -5.046875 L 2.265625 -38.90625 C 2.265625 -39.78125 2.289062 -40.429688 2.34375 -40.859375 C 2.40625 -41.296875 2.570312 -41.78125 2.84375 -42.3125 C 3.363281 -43.332031 4.835938 -43.84375 7.265625 -43.84375 C 9.640625 -43.84375 11.078125 -43.332031 11.578125 -42.3125 C 11.878906 -41.75 12.054688 -41.25 12.109375 -40.8125 C 12.160156 -40.375 12.1875 -39.722656 12.1875 -38.859375 L 12.1875 -27.0625 C 13.707031 -28.90625 15.863281 -29.828125 18.65625 -29.828125 Z M 13.703125 -11.515625 C 14.628906 -10.492188 15.789062 -9.984375 17.1875 -9.984375 C 18.582031 -9.984375 19.769531 -10.492188 20.75 -11.515625 C 21.738281 -12.535156 22.234375 -13.664062 22.234375 -14.90625 C 22.234375 -16.15625 21.78125 -17.300781 20.875 -18.34375 C 19.96875 -19.382812 18.753906 -19.90625 17.234375 -19.90625 C 15.722656 -19.90625 14.523438 -19.375 13.640625 -18.3125 C 12.753906 -17.257812 12.3125 -16.117188 12.3125 -14.890625 C 12.3125 -13.660156 12.773438 -12.535156 13.703125 -11.515625 Z M 13.703125 -11.515625 "/></g></g><g style="fill:#5b8def;fill-opacity:1;"><g transform="translate(300.635629, 69.969463)"><path style="stroke:none" d="M 31.078125 -18.515625 C 31.078125 -16.191406 30.5 -14.472656 29.34375 -13.359375 C 28.195312 -12.242188 26.925781 -11.6875 25.53125 -11.6875 L 12.078125 -11.6875 C 12.078125 -10.625 12.703125 -9.734375 13.953125 -9.015625 C 15.203125 -8.296875 16.453125 -7.9375 17.703125 -7.9375 C 19.890625 -7.9375 21.609375 -8.164062 22.859375 -8.625 L 23.484375 -8.84375 C 24.390625 -9.257812 25.144531 -9.46875 25.75 -9.46875 C 26.957031 -9.46875 28 -8.617188 28.875 -6.921875 C 29.363281 -5.898438 29.609375 -5.03125 29.609375 -4.3125 C 29.609375 -0.945312 25.582031 0.734375 17.53125 0.734375 C 14.726562 0.734375 12.238281 0.253906 10.0625 -0.703125 C 7.894531 -1.671875 6.203125 -2.945312 4.984375 -4.53125 C 2.609375 -7.59375 1.421875 -11.015625 1.421875 -14.796875 C 1.421875 -19.566406 2.957031 -23.378906 6.03125 -26.234375 C 9.113281 -29.085938 12.960938 -30.515625 17.578125 -30.515625 C 22.835938 -30.515625 26.695312 -28.660156 29.15625 -24.953125 C 30.4375 -22.984375 31.078125 -20.835938 31.078125 -18.515625 Z M 19.109375 -16.84375 C 20.546875 -16.84375 21.265625 -17.445312 21.265625 -18.65625 C 21.265625 -19.53125 20.929688 -20.226562 20.265625 -20.75 C 19.609375 -21.28125 18.664062 -21.546875 17.4375 -21.546875 C 16.207031 -21.546875 14.988281 -21.046875 13.78125 -20.046875 C 12.570312 -19.046875 11.96875 -17.976562 11.96875 -16.84375 Z M 19.109375 -16.84375 "/></g></g><g style="fill:#5b8def;fill-opacity:1;"><g transform="translate(333.131287, 69.969463)"><path style="stroke:none" d="M 22.578125 -29.546875 C 23.296875 -29.316406 23.890625 -28.925781 24.359375 -28.375 C 24.828125 -27.832031 25.0625 -26.957031 25.0625 -25.75 C 25.0625 -24.539062 24.703125 -23.21875 23.984375 -21.78125 C 23.273438 -20.34375 22.238281 -19.625 20.875 -19.625 C 20.195312 -19.625 19.546875 -19.773438 18.921875 -20.078125 C 18.296875 -20.378906 17.472656 -20.53125 16.453125 -20.53125 C 15.429688 -20.53125 14.472656 -20.171875 13.578125 -19.453125 C 12.691406 -18.734375 12.25 -17.863281 12.25 -16.84375 L 12.25 -4.9375 C 12.25 -4.0625 12.21875 -3.40625 12.15625 -2.96875 C 12.101562 -2.539062 11.925781 -2.039062 11.625 -1.46875 C 11.0625 -0.488281 9.585938 0 7.203125 0 C 5.390625 0 4.085938 -0.320312 3.296875 -0.96875 C 2.679688 -1.5 2.335938 -2.3125 2.265625 -3.40625 C 2.265625 -3.78125 2.265625 -4.328125 2.265625 -5.046875 L 2.265625 -24.953125 C 2.265625 -25.828125 2.289062 -26.476562 2.34375 -26.90625 C 2.40625 -27.34375 2.570312 -27.828125 2.84375 -28.359375 C 3.363281 -29.378906 4.835938 -29.890625 7.265625 -29.890625 C 9.523438 -29.890625 10.941406 -29.457031 11.515625 -28.59375 C 11.929688 -27.976562 12.140625 -27.351562 12.140625 -26.71875 C 12.328125 -26.976562 12.597656 -27.296875 12.953125 -27.671875 C 13.316406 -28.054688 14.082031 -28.566406 15.25 -29.203125 C 16.425781 -29.847656 17.457031 -30.171875 18.34375 -30.171875 C 19.238281 -30.171875 19.988281 -30.125 20.59375 -30.03125 C 21.195312 -29.9375 21.859375 -29.773438 22.578125 -29.546875 Z M 22.578125 -29.546875 "/></g></g><g style="fill:#f6a800;fill-opacity:1;"><g transform="translate(143.601616, 118.173556)"><path style="stroke:none" d="M 2.890625 -5.84375 C 1.910156 -7.050781 1.421875 -8.132812 1.421875 -9.09375 C 1.421875 -10.0625 2.234375 -11.34375 3.859375 -12.9375 C 4.804688 -13.84375 5.804688 -14.296875 6.859375 -14.296875 C 7.921875 -14.296875 9.394531 -13.347656 11.28125 -11.453125 C 11.8125 -10.816406 12.566406 -10.203125 13.546875 -9.609375 C 14.535156 -9.023438 15.445312 -8.734375 16.28125 -8.734375 C 19.789062 -8.734375 21.546875 -10.171875 21.546875 -13.046875 C 21.546875 -13.910156 21.0625 -14.632812 20.09375 -15.21875 C 19.132812 -15.8125 17.9375 -16.238281 16.5 -16.5 C 15.0625 -16.769531 13.507812 -17.195312 11.84375 -17.78125 C 10.1875 -18.363281 8.640625 -19.050781 7.203125 -19.84375 C 5.765625 -20.644531 4.5625 -21.90625 3.59375 -23.625 C 2.632812 -25.34375 2.15625 -27.410156 2.15625 -29.828125 C 2.15625 -33.160156 3.390625 -36.0625 5.859375 -38.53125 C 8.335938 -41.007812 11.71875 -42.25 16 -42.25 C 18.257812 -42.25 20.328125 -41.957031 22.203125 -41.375 C 24.078125 -40.789062 25.375 -40.195312 26.09375 -39.59375 L 27.515625 -38.515625 C 28.679688 -37.421875 29.265625 -36.492188 29.265625 -35.734375 C 29.265625 -34.972656 28.8125 -33.929688 27.90625 -32.609375 C 26.625 -30.722656 25.300781 -29.78125 23.9375 -29.78125 C 23.144531 -29.78125 22.160156 -30.15625 20.984375 -30.90625 C 20.867188 -30.988281 20.648438 -31.179688 20.328125 -31.484375 C 20.015625 -31.785156 19.722656 -32.03125 19.453125 -32.21875 C 18.660156 -32.707031 17.648438 -32.953125 16.421875 -32.953125 C 15.191406 -32.953125 14.171875 -32.660156 13.359375 -32.078125 C 12.546875 -31.492188 12.140625 -30.679688 12.140625 -29.640625 C 12.140625 -28.597656 12.617188 -27.753906 13.578125 -27.109375 C 14.546875 -26.460938 15.75 -26.023438 17.1875 -25.796875 C 18.625 -25.578125 20.191406 -25.226562 21.890625 -24.75 C 23.597656 -24.28125 25.164062 -23.703125 26.59375 -23.015625 C 28.03125 -22.335938 29.234375 -21.15625 30.203125 -19.46875 C 31.171875 -17.789062 31.65625 -15.722656 31.65625 -13.265625 C 31.65625 -10.804688 31.160156 -8.640625 30.171875 -6.765625 C 29.191406 -4.898438 27.90625 -3.457031 26.3125 -2.4375 C 23.25 -0.4375 19.976562 0.5625 16.5 0.5625 C 14.726562 0.5625 13.046875 0.347656 11.453125 -0.078125 C 9.867188 -0.515625 8.582031 -1.054688 7.59375 -1.703125 C 5.59375 -2.910156 4.195312 -4.082031 3.40625 -5.21875 Z M 2.890625 -5.84375 "/></g></g><g style="fill:#f6a800;fill-opacity:1;"><g transform="translate(184.775588, 118.173556)"><path style="stroke:none" d="M 21.671875 -26.71875 C 21.890625 -28.832031 23.378906 -29.890625 26.140625 -29.890625 C 27.617188 -29.890625 28.71875 -29.773438 29.4375 -29.546875 C 30.15625 -29.316406 30.65625 -28.921875 30.9375 -28.359375 C 31.21875 -27.796875 31.382812 -27.296875 31.4375 -26.859375 C 31.5 -26.421875 31.53125 -25.769531 31.53125 -24.90625 L 31.53125 -5.046875 C 31.53125 -4.179688 31.5 -3.53125 31.4375 -3.09375 C 31.382812 -2.65625 31.226562 -2.15625 30.96875 -1.59375 C 30.4375 -0.601562 29.140625 -0.109375 27.078125 -0.109375 C 25.015625 -0.109375 23.632812 -0.363281 22.9375 -0.875 C 22.238281 -1.382812 21.832031 -2.132812 21.71875 -3.125 C 20.320312 -1.113281 17.988281 -0.109375 14.71875 -0.109375 C 11.445312 -0.109375 8.410156 -1.601562 5.609375 -4.59375 C 2.816406 -7.582031 1.421875 -11.050781 1.421875 -15 C 1.421875 -18.945312 2.828125 -22.40625 5.640625 -25.375 C 8.460938 -28.34375 11.554688 -29.828125 14.921875 -29.828125 C 16.203125 -29.828125 17.367188 -29.597656 18.421875 -29.140625 C 19.484375 -28.691406 20.222656 -28.269531 20.640625 -27.875 C 21.054688 -27.476562 21.398438 -27.09375 21.671875 -26.71875 Z M 11.34375 -14.90625 C 11.34375 -13.664062 11.832031 -12.546875 12.8125 -11.546875 C 13.800781 -10.546875 14.992188 -10.046875 16.390625 -10.046875 C 17.785156 -10.046875 18.945312 -10.554688 19.875 -11.578125 C 20.800781 -12.597656 21.265625 -13.71875 21.265625 -14.9375 C 21.265625 -16.164062 20.820312 -17.3125 19.9375 -18.375 C 19.050781 -19.4375 17.859375 -19.96875 16.359375 -19.96875 C 14.867188 -19.96875 13.660156 -19.4375 12.734375 -18.375 C 11.804688 -17.3125 11.34375 -16.15625 11.34375 -14.90625 Z M 11.34375 -14.90625 "/></g></g><g style="fill:#f6a800;fill-opacity:1;"><g transform="translate(226.686808, 118.173556)"><path style="stroke:none" d="M 19.734375 -29.828125 C 22.347656 -29.828125 23.878906 -29.109375 24.328125 -27.671875 C 24.554688 -26.953125 24.671875 -26.003906 24.671875 -24.828125 C 24.671875 -23.660156 24.546875 -22.726562 24.296875 -22.03125 C 24.054688 -21.332031 23.671875 -20.832031 23.140625 -20.53125 C 22.347656 -20.082031 21.195312 -19.859375 19.6875 -19.859375 L 16.046875 -20.078125 L 16.046875 -4.875 C 16.046875 -3.4375 15.863281 -2.367188 15.5 -1.671875 C 15.144531 -0.972656 14.597656 -0.507812 13.859375 -0.28125 C 13.128906 -0.0507812 12.175781 0.0625 11 0.0625 C 9.832031 0.0625 8.894531 -0.0625 8.1875 -0.3125 C 7.488281 -0.5625 6.988281 -0.957031 6.6875 -1.5 C 6.382812 -2.050781 6.203125 -2.550781 6.140625 -3 C 6.085938 -3.457031 6.0625 -4.117188 6.0625 -4.984375 L 6.0625 -20.015625 L 4.03125 -20.015625 C 3.039062 -20.097656 2.335938 -20.328125 1.921875 -20.703125 C 1.203125 -21.421875 0.84375 -22.800781 0.84375 -24.84375 C 0.84375 -27.945312 1.960938 -29.5 4.203125 -29.5 L 6.0625 -29.5 L 6.0625 -32.5 C 6.0625 -35.414062 7.101562 -38.050781 9.1875 -40.40625 C 11.269531 -42.769531 14.273438 -43.953125 18.203125 -43.953125 C 19.078125 -43.953125 19.726562 -43.921875 20.15625 -43.859375 C 20.59375 -43.804688 21.097656 -43.628906 21.671875 -43.328125 C 22.691406 -42.835938 23.203125 -41.382812 23.203125 -38.96875 C 23.203125 -37.15625 22.878906 -35.847656 22.234375 -35.046875 C 21.703125 -34.441406 20.867188 -34.101562 19.734375 -34.03125 C 19.398438 -34.03125 18.875 -34.03125 18.15625 -34.03125 C 16.75 -34.03125 16.046875 -33.554688 16.046875 -32.609375 L 16.046875 -29.5 Z M 19.734375 -29.828125 "/></g></g><g style="fill:#f6a800;fill-opacity:1;"><g transform="translate(259.183854, 118.173556)"><path style="stroke:none" d="M 21.671875 -26.71875 C 21.890625 -28.832031 23.378906 -29.890625 26.140625 -29.890625 C 27.617188 -29.890625 28.71875 -29.773438 29.4375 -29.546875 C 30.15625 -29.316406 30.65625 -28.921875 30.9375 -28.359375 C 31.21875 -27.796875 31.382812 -27.296875 31.4375 -26.859375 C 31.5 -26.421875 31.53125 -25.769531 31.53125 -24.90625 L 31.53125 -5.046875 C 31.53125 -4.179688 31.5 -3.53125 31.4375 -3.09375 C 31.382812 -2.65625 31.226562 -2.15625 30.96875 -1.59375 C 30.4375 -0.601562 29.140625 -0.109375 27.078125 -0.109375 C 25.015625 -0.109375 23.632812 -0.363281 22.9375 -0.875 C 22.238281 -1.382812 21.832031 -2.132812 21.71875 -3.125 C 20.320312 -1.113281 17.988281 -0.109375 14.71875 -0.109375 C 11.445312 -0.109375 8.410156 -1.601562 5.609375 -4.59375 C 2.816406 -7.582031 1.421875 -11.050781 1.421875 -15 C 1.421875 -18.945312 2.828125 -22.40625 5.640625 -25.375 C 8.460938 -28.34375 11.554688 -29.828125 14.921875 -29.828125 C 16.203125 -29.828125 17.367188 -29.597656 18.421875 -29.140625 C 19.484375 -28.691406 20.222656 -28.269531 20.640625 -27.875 C 21.054688 -27.476562 21.398438 -27.09375 21.671875 -26.71875 Z M 11.34375 -14.90625 C 11.34375 -13.664062 11.832031 -12.546875 12.8125 -11.546875 C 13.800781 -10.546875 14.992188 -10.046875 16.390625 -10.046875 C 17.785156 -10.046875 18.945312 -10.554688 19.875 -11.578125 C 20.800781 -12.597656 21.265625 -13.71875 21.265625 -14.9375 C 21.265625 -16.164062 20.820312 -17.3125 19.9375 -18.375 C 19.050781 -19.4375 17.859375 -19.96875 16.359375 -19.96875 C 14.867188 -19.96875 13.660156 -19.4375 12.734375 -18.375 C 11.804688 -17.3125 11.34375 -16.15625 11.34375 -14.90625 Z M 11.34375 -14.90625 "/></g></g><g style="fill:#f6a800;fill-opacity:1;"><g transform="translate(301.095074, 118.173556)"><path style="stroke:none" d="M 22.578125 -29.546875 C 23.296875 -29.316406 23.890625 -28.925781 24.359375 -28.375 C 24.828125 -27.832031 25.0625 -26.957031 25.0625 -25.75 C 25.0625 -24.539062 24.703125 -23.21875 23.984375 -21.78125 C 23.273438 -20.34375 22.238281 -19.625 20.875 -19.625 C 20.195312 -19.625 19.546875 -19.773438 18.921875 -20.078125 C 18.296875 -20.378906 17.472656 -20.53125 16.453125 -20.53125 C 15.429688 -20.53125 14.472656 -20.171875 13.578125 -19.453125 C 12.691406 -18.734375 12.25 -17.863281 12.25 -16.84375 L 12.25 -4.9375 C 12.25 -4.0625 12.21875 -3.40625 12.15625 -2.96875 C 12.101562 -2.539062 11.925781 -2.039062 11.625 -1.46875 C 11.0625 -0.488281 9.585938 0 7.203125 0 C 5.390625 0 4.085938 -0.320312 3.296875 -0.96875 C 2.679688 -1.5 2.335938 -2.3125 2.265625 -3.40625 C 2.265625 -3.78125 2.265625 -4.328125 2.265625 -5.046875 L 2.265625 -24.953125 C 2.265625 -25.828125 2.289062 -26.476562 2.34375 -26.90625 C 2.40625 -27.34375 2.570312 -27.828125 2.84375 -28.359375 C 3.363281 -29.378906 4.835938 -29.890625 7.265625 -29.890625 C 9.523438 -29.890625 10.941406 -29.457031 11.515625 -28.59375 C 11.929688 -27.976562 12.140625 -27.351562 12.140625 -26.71875 C 12.328125 -26.976562 12.597656 -27.296875 12.953125 -27.671875 C 13.316406 -28.054688 14.082031 -28.566406 15.25 -29.203125 C 16.425781 -29.847656 17.457031 -30.171875 18.34375 -30.171875 C 19.238281 -30.171875 19.988281 -30.125 20.59375 -30.03125 C 21.195312 -29.9375 21.859375 -29.773438 22.578125 -29.546875 Z M 22.578125 -29.546875 "/></g></g><g style="fill:#f6a800;fill-opacity:1;"><g transform="translate(335.123397, 118.173556)"><path style="stroke:none" d="M 2.265625 -24.90625 C 2.265625 -25.769531 2.289062 -26.421875 2.34375 -26.859375 C 2.40625 -27.296875 2.570312 -27.796875 2.84375 -28.359375 C 3.363281 -29.335938 4.835938 -29.828125 7.265625 -29.828125 C 9.078125 -29.828125 10.359375 -29.507812 11.109375 -28.875 C 11.753906 -28.34375 12.097656 -27.53125 12.140625 -26.4375 C 12.171875 -26.050781 12.1875 -25.5 12.1875 -24.78125 L 12.1875 -4.9375 C 12.1875 -4.0625 12.160156 -3.40625 12.109375 -2.96875 C 12.054688 -2.539062 11.878906 -2.039062 11.578125 -1.46875 C 11.078125 -0.488281 9.617188 0 7.203125 0 C 4.816406 0 3.363281 -0.507812 2.84375 -1.53125 C 2.570312 -2.09375 2.40625 -2.582031 2.34375 -3 C 2.289062 -3.414062 2.265625 -4.078125 2.265625 -4.984375 Z M 11.59375 -35.421875 C 11.3125 -34.867188 10.8125 -34.476562 10.09375 -34.25 C 9.375 -34.03125 8.414062 -33.921875 7.21875 -33.921875 C 6.03125 -33.921875 5.078125 -34.03125 4.359375 -34.25 C 3.648438 -34.476562 3.148438 -34.875 2.859375 -35.4375 C 2.578125 -36.007812 2.40625 -36.515625 2.34375 -36.953125 C 2.289062 -37.390625 2.265625 -38.039062 2.265625 -38.90625 C 2.265625 -39.78125 2.289062 -40.429688 2.34375 -40.859375 C 2.40625 -41.296875 2.570312 -41.78125 2.84375 -42.3125 C 3.363281 -43.332031 4.835938 -43.84375 7.265625 -43.84375 C 9.640625 -43.84375 11.078125 -43.332031 11.578125 -42.3125 C 11.878906 -41.75 12.054688 -41.25 12.109375 -40.8125 C 12.160156 -40.375 12.1875 -39.71875 12.1875 -38.84375 C 12.1875 -37.976562 12.160156 -37.328125 12.109375 -36.890625 C 12.054688 -36.460938 11.882812 -35.972656 11.59375 -35.421875 Z M 11.59375 -35.421875 "/></g></g></g></svg>