<svg xmlns="http://www.w3.org/2000/svg" xmlns:xlink="http://www.w3.org/1999/xlink" width="500" zoomAndPan="magnify" viewBox="0 0 375 149.999998" height="200" preserveAspectRatio="xMidYMid meet" version="1.2"><defs><clipPath id="8c8b5a3b58"><path d="M 21.902344 37.890625 L 96.121094 37.890625 L 96.121094 112.109375 L 21.902344 112.109375 Z M 21.902344 37.890625 "/></clipPath><clipPath id="b287d17339"><path d="M 27.152344 37.890625 L 90.871094 37.890625 C 93.773438 37.890625 96.121094 40.238281 96.121094 43.140625 L 96.121094 106.859375 C 96.121094 109.761719 93.773438 112.109375 90.871094 112.109375 L 27.152344 112.109375 C 24.25 112.109375 21.902344 109.761719 21.902344 106.859375 L 21.902344 43.140625 C 21.902344 40.238281 24.25 37.890625 27.152344 37.890625 Z M 27.152344 37.890625 "/></clipPath><clipPath id="f6c46d8c8d"><path d="M 69 55.074219 L 89 55.074219 L 89 75 L 69 75 Z M 69 55.074219 "/></clipPath><clipPath id="bff3a52f55"><path d="M 29.105469 55.074219 L 89 55.074219 L 89 94.824219 L 29.105469 94.824219 Z M 29.105469 55.074219 "/></clipPath></defs><g id="b97f1e1ef6"><g clip-rule="nonzero" clip-path="url(#8c8b5a3b58)"><g clip-rule="nonzero" clip-path="url(#b287d17339)"><path style=" stroke:none;fill-rule:nonzero;fill:#355c7d;fill-opacity:1;" d="M 21.902344 37.890625 L 96.121094 37.890625 L 96.121094 112.109375 L 21.902344 112.109375 Z M 21.902344 37.890625 "/></g></g><g clip-rule="nonzero" clip-path="url(#f6c46d8c8d)"><path style=" stroke:none;fill-rule:evenodd;fill:#ffffff;fill-opacity:1;" d="M 83.472656 60.230469 L 72.050781 60.230469 C 70.691406 60.230469 69.59375 59.132812 69.59375 57.773438 C 69.59375 56.417969 70.691406 55.320312 72.050781 55.320312 L 85.925781 55.320312 C 87.285156 55.320312 88.382812 56.417969 88.382812 57.773438 L 88.382812 71.652344 C 88.382812 73.011719 87.285156 74.109375 85.925781 74.109375 C 84.570312 74.109375 83.472656 73.011719 83.472656 71.652344 L 83.472656 60.230469 "/></g><g clip-rule="nonzero" clip-path="url(#bff3a52f55)"><path style=" stroke:none;fill-rule:evenodd;fill:#ffffff;fill-opacity:1;" d="M 63.84375 76.390625 L 84.191406 56.039062 C 85.152344 55.082031 86.703125 55.082031 87.664062 56.039062 C 88.621094 57 88.621094 58.550781 87.664062 59.511719 L 65.578125 81.59375 C 64.621094 82.550781 63.066406 82.550781 62.109375 81.59375 L 54.03125 73.511719 L 33.679688 93.863281 C 32.722656 94.820312 31.167969 94.820312 30.210938 93.863281 C 29.253906 92.902344 29.253906 91.351562 30.210938 90.390625 L 52.292969 68.308594 C 53.253906 67.351562 54.804688 67.351562 55.765625 68.308594 L 63.84375 76.390625 "/></g><g style="fill:#355c7d;fill-opacity:1;"><g transform="translate(100.622378, 84.288011)"><path style="stroke:none" d="M 31.234375 -19.046875 C 33.328125 -18.378906 34.960938 -17.269531 36.140625 -15.71875 C 37.328125 -14.164062 37.921875 -12.253906 37.921875 -9.984375 C 37.921875 -6.773438 36.675781 -4.304688 34.1875 -2.578125 C 31.695312 -0.859375 28.0625 0 23.28125 0 L 4.34375 0 L 4.34375 -36.625 L 22.234375 -36.625 C 26.691406 -36.625 30.113281 -35.769531 32.5 -34.0625 C 34.894531 -32.351562 36.09375 -30.03125 36.09375 -27.09375 C 36.09375 -25.320312 35.664062 -23.738281 34.8125 -22.34375 C 33.957031 -20.945312 32.765625 -19.847656 31.234375 -19.046875 Z M 12.765625 -30.234375 L 12.765625 -21.609375 L 21.1875 -21.609375 C 23.28125 -21.609375 24.863281 -21.972656 25.9375 -22.703125 C 27.019531 -23.429688 27.5625 -24.515625 27.5625 -25.953125 C 27.5625 -27.378906 27.019531 -28.445312 25.9375 -29.15625 C 24.863281 -29.875 23.28125 -30.234375 21.1875 -30.234375 Z M 22.65625 -6.375 C 24.882812 -6.375 26.566406 -6.738281 27.703125 -7.46875 C 28.835938 -8.207031 29.40625 -9.34375 29.40625 -10.875 C 29.40625 -13.914062 27.15625 -15.4375 22.65625 -15.4375 L 12.765625 -15.4375 L 12.765625 -6.375 Z M 22.65625 -6.375 "/></g></g><g style="fill:#355c7d;fill-opacity:1;"><g transform="translate(139.226303, 84.288011)"><path style="stroke:none" d="M 15.125 -28.5625 C 19.476562 -28.5625 22.820312 -27.523438 25.15625 -25.453125 C 27.5 -23.378906 28.671875 -20.25 28.671875 -16.0625 L 28.671875 0 L 21.03125 0 L 21.03125 -3.5 C 19.5 -0.882812 16.640625 0.421875 12.453125 0.421875 C 10.285156 0.421875 8.410156 0.0546875 6.828125 -0.671875 C 5.242188 -1.410156 4.03125 -2.425781 3.1875 -3.71875 C 2.351562 -5.007812 1.9375 -6.472656 1.9375 -8.109375 C 1.9375 -10.722656 2.921875 -12.78125 4.890625 -14.28125 C 6.859375 -15.78125 9.898438 -16.53125 14.015625 -16.53125 L 20.5 -16.53125 C 20.5 -18.3125 19.957031 -19.679688 18.875 -20.640625 C 17.800781 -21.597656 16.179688 -22.078125 14.015625 -22.078125 C 12.515625 -22.078125 11.039062 -21.835938 9.59375 -21.359375 C 8.144531 -20.890625 6.914062 -20.253906 5.90625 -19.453125 L 2.984375 -25.15625 C 4.515625 -26.238281 6.351562 -27.078125 8.5 -27.671875 C 10.644531 -28.265625 12.851562 -28.5625 15.125 -28.5625 Z M 14.484375 -5.078125 C 15.878906 -5.078125 17.117188 -5.398438 18.203125 -6.046875 C 19.285156 -6.691406 20.050781 -7.640625 20.5 -8.890625 L 20.5 -11.765625 L 14.90625 -11.765625 C 11.5625 -11.765625 9.890625 -10.664062 9.890625 -8.46875 C 9.890625 -7.425781 10.296875 -6.597656 11.109375 -5.984375 C 11.929688 -5.378906 13.054688 -5.078125 14.484375 -5.078125 Z M 14.484375 -5.078125 "/></g></g><g style="fill:#355c7d;fill-opacity:1;"><g transform="translate(170.088479, 84.288011)"><path style="stroke:none" d="M 13.234375 0.421875 C 10.898438 0.421875 8.613281 0.132812 6.375 -0.4375 C 4.144531 -1.019531 2.367188 -1.742188 1.046875 -2.609375 L 3.765625 -8.46875 C 5.023438 -7.664062 6.539062 -7.007812 8.3125 -6.5 C 10.09375 -6 11.835938 -5.75 13.546875 -5.75 C 17.003906 -5.75 18.734375 -6.601562 18.734375 -8.3125 C 18.734375 -9.113281 18.257812 -9.6875 17.3125 -10.03125 C 16.375 -10.382812 14.925781 -10.6875 12.96875 -10.9375 C 10.664062 -11.28125 8.765625 -11.675781 7.265625 -12.125 C 5.765625 -12.582031 4.460938 -13.382812 3.359375 -14.53125 C 2.265625 -15.6875 1.71875 -17.328125 1.71875 -19.453125 C 1.71875 -21.234375 2.234375 -22.8125 3.265625 -24.1875 C 4.296875 -25.570312 5.796875 -26.644531 7.765625 -27.40625 C 9.734375 -28.175781 12.0625 -28.5625 14.75 -28.5625 C 16.738281 -28.5625 18.71875 -28.34375 20.6875 -27.90625 C 22.65625 -27.46875 24.285156 -26.867188 25.578125 -26.109375 L 22.859375 -20.296875 C 20.378906 -21.691406 17.675781 -22.390625 14.75 -22.390625 C 13.007812 -22.390625 11.703125 -22.144531 10.828125 -21.65625 C 9.953125 -21.164062 9.515625 -20.539062 9.515625 -19.78125 C 9.515625 -18.90625 9.984375 -18.289062 10.921875 -17.9375 C 11.867188 -17.59375 13.375 -17.265625 15.4375 -16.953125 C 17.738281 -16.566406 19.617188 -16.15625 21.078125 -15.71875 C 22.546875 -15.28125 23.816406 -14.484375 24.890625 -13.328125 C 25.972656 -12.179688 26.515625 -10.582031 26.515625 -8.53125 C 26.515625 -6.78125 25.992188 -5.222656 24.953125 -3.859375 C 23.910156 -2.503906 22.382812 -1.453125 20.375 -0.703125 C 18.375 0.046875 15.992188 0.421875 13.234375 0.421875 Z M 13.234375 0.421875 "/></g></g><g style="fill:#355c7d;fill-opacity:1;"><g transform="translate(196.452051, 84.288011)"><path style="stroke:none" d="M 31.328125 -13.96875 C 31.328125 -13.863281 31.273438 -13.128906 31.171875 -11.765625 L 9.890625 -11.765625 C 10.273438 -10.023438 11.179688 -8.648438 12.609375 -7.640625 C 14.035156 -6.628906 15.8125 -6.125 17.9375 -6.125 C 19.40625 -6.125 20.707031 -6.335938 21.84375 -6.765625 C 22.976562 -7.203125 24.03125 -7.894531 25 -8.84375 L 29.34375 -4.125 C 26.695312 -1.09375 22.828125 0.421875 17.734375 0.421875 C 14.554688 0.421875 11.75 -0.195312 9.3125 -1.4375 C 6.875 -2.675781 4.988281 -4.394531 3.65625 -6.59375 C 2.332031 -8.789062 1.671875 -11.285156 1.671875 -14.078125 C 1.671875 -16.828125 2.320312 -19.304688 3.625 -21.515625 C 4.9375 -23.734375 6.734375 -25.460938 9.015625 -26.703125 C 11.304688 -27.941406 13.863281 -28.5625 16.6875 -28.5625 C 19.445312 -28.5625 21.941406 -27.96875 24.171875 -26.78125 C 26.398438 -25.59375 28.148438 -23.890625 29.421875 -21.671875 C 30.691406 -19.460938 31.328125 -16.894531 31.328125 -13.96875 Z M 16.734375 -22.390625 C 14.890625 -22.390625 13.335938 -21.863281 12.078125 -20.8125 C 10.828125 -19.769531 10.0625 -18.34375 9.78125 -16.53125 L 23.640625 -16.53125 C 23.367188 -18.3125 22.601562 -19.734375 21.34375 -20.796875 C 20.082031 -21.859375 18.546875 -22.390625 16.734375 -22.390625 Z M 16.734375 -22.390625 "/></g></g><g style="fill:#355c7d;fill-opacity:1;"><g transform="translate(228.046543, 84.288011)"><path style="stroke:none" d="M 3.765625 -38.8125 L 11.921875 -38.8125 L 11.921875 0 L 3.765625 0 Z M 3.765625 -38.8125 "/></g></g><g style="fill:#355c7d;fill-opacity:1;"><g transform="translate(242.379022, 84.288011)"><path style="stroke:none" d="M 3.765625 -28.140625 L 11.921875 -28.140625 L 11.921875 0 L 3.765625 0 Z M 7.859375 -32.0625 C 6.359375 -32.0625 5.132812 -32.5 4.1875 -33.375 C 3.25 -34.25 2.78125 -35.332031 2.78125 -36.625 C 2.78125 -37.90625 3.25 -38.984375 4.1875 -39.859375 C 5.132812 -40.734375 6.359375 -41.171875 7.859375 -41.171875 C 9.359375 -41.171875 10.578125 -40.75 11.515625 -39.90625 C 12.453125 -39.070312 12.921875 -38.03125 12.921875 -36.78125 C 12.921875 -35.414062 12.453125 -34.285156 11.515625 -33.390625 C 10.578125 -32.503906 9.359375 -32.0625 7.859375 -32.0625 Z M 7.859375 -32.0625 "/></g></g><g style="fill:#355c7d;fill-opacity:1;"><g transform="translate(256.711502, 84.288011)"><path style="stroke:none" d="M 20.875 -28.5625 C 24.363281 -28.5625 27.175781 -27.515625 29.3125 -25.421875 C 31.457031 -23.328125 32.53125 -20.222656 32.53125 -16.109375 L 32.53125 0 L 24.375 0 L 24.375 -14.859375 C 24.375 -17.085938 23.882812 -18.75 22.90625 -19.84375 C 21.9375 -20.945312 20.523438 -21.5 18.671875 -21.5 C 16.617188 -21.5 14.976562 -20.863281 13.75 -19.59375 C 12.53125 -18.320312 11.921875 -16.429688 11.921875 -13.921875 L 11.921875 0 L 3.765625 0 L 3.765625 -28.140625 L 11.5625 -28.140625 L 11.5625 -24.84375 C 12.644531 -26.03125 13.988281 -26.945312 15.59375 -27.59375 C 17.195312 -28.238281 18.957031 -28.5625 20.875 -28.5625 Z M 20.875 -28.5625 "/></g></g><g style="fill:#355c7d;fill-opacity:1;"><g transform="translate(291.444542, 84.288011)"><path style="stroke:none" d="M 31.328125 -13.96875 C 31.328125 -13.863281 31.273438 -13.128906 31.171875 -11.765625 L 9.890625 -11.765625 C 10.273438 -10.023438 11.179688 -8.648438 12.609375 -7.640625 C 14.035156 -6.628906 15.8125 -6.125 17.9375 -6.125 C 19.40625 -6.125 20.707031 -6.335938 21.84375 -6.765625 C 22.976562 -7.203125 24.03125 -7.894531 25 -8.84375 L 29.34375 -4.125 C 26.695312 -1.09375 22.828125 0.421875 17.734375 0.421875 C 14.554688 0.421875 11.75 -0.195312 9.3125 -1.4375 C 6.875 -2.675781 4.988281 -4.394531 3.65625 -6.59375 C 2.332031 -8.789062 1.671875 -11.285156 1.671875 -14.078125 C 1.671875 -16.828125 2.320312 -19.304688 3.625 -21.515625 C 4.9375 -23.734375 6.734375 -25.460938 9.015625 -26.703125 C 11.304688 -27.941406 13.863281 -28.5625 16.6875 -28.5625 C 19.445312 -28.5625 21.941406 -27.96875 24.171875 -26.78125 C 26.398438 -25.59375 28.148438 -23.890625 29.421875 -21.671875 C 30.691406 -19.460938 31.328125 -16.894531 31.328125 -13.96875 Z M 16.734375 -22.390625 C 14.890625 -22.390625 13.335938 -21.863281 12.078125 -20.8125 C 10.828125 -19.769531 10.0625 -18.34375 9.78125 -16.53125 L 23.640625 -16.53125 C 23.367188 -18.3125 22.601562 -19.734375 21.34375 -20.796875 C 20.082031 -21.859375 18.546875 -22.390625 16.734375 -22.390625 Z M 16.734375 -22.390625 "/></g></g><g style="fill:#355c7d;fill-opacity:1;"><g transform="translate(323.039034, 84.288011)"><path style="stroke:none" d="M 28.140625 -15.125 L 19.046875 -15.125 L 19.046875 -6.21875 L 12.296875 -6.21875 L 12.296875 -15.125 L 3.25 -15.125 L 3.25 -21.5 L 12.296875 -21.5 L 12.296875 -30.390625 L 19.046875 -30.390625 L 19.046875 -21.5 L 28.140625 -21.5 Z M 28.140625 -15.125 "/></g></g><g style="fill:#355c7d;fill-opacity:1;"><g transform="translate(103.445519, 101.027727)"><path style="stroke:none" d="M 3.0625 -5.375 L 3.0625 -1.109375 L 8.875 -1.109375 L 8.875 0 L 1.71875 0 L 1.71875 -11.40625 L 8.75 -11.40625 L 8.75 -10.296875 L 3.0625 -10.296875 L 3.0625 -6.484375 L 8.078125 -6.484375 L 8.078125 -5.375 Z M 3.0625 -5.375 "/></g></g><g style="fill:#355c7d;fill-opacity:1;"><g transform="translate(113.077472, 101.027727)"><path style="stroke:none" d="M 3.546875 0.15625 C 2.703125 0.15625 2.039062 -0.0625 1.5625 -0.5 C 1.082031 -0.9375 0.84375 -1.566406 0.84375 -2.390625 C 0.84375 -2.898438 0.945312 -3.332031 1.15625 -3.6875 C 1.375 -4.039062 1.703125 -4.328125 2.140625 -4.546875 C 2.585938 -4.765625 3.164062 -4.9375 3.875 -5.0625 C 4.5 -5.164062 4.972656 -5.28125 5.296875 -5.40625 C 5.628906 -5.539062 5.847656 -5.6875 5.953125 -5.84375 C 6.066406 -6.007812 6.125 -6.210938 6.125 -6.453125 C 6.125 -6.847656 5.988281 -7.148438 5.71875 -7.359375 C 5.457031 -7.566406 5.03125 -7.671875 4.4375 -7.671875 C 3.875 -7.671875 3.394531 -7.5625 3 -7.34375 C 2.601562 -7.125 2.238281 -6.800781 1.90625 -6.375 L 1.75 -6.375 L 1.125 -7.265625 C 1.488281 -7.722656 1.953125 -8.085938 2.515625 -8.359375 C 3.078125 -8.628906 3.71875 -8.765625 4.4375 -8.765625 C 5.445312 -8.765625 6.191406 -8.539062 6.671875 -8.09375 C 7.160156 -7.65625 7.40625 -7.046875 7.40625 -6.265625 L 7.40625 -1.6875 C 7.40625 -1.207031 7.601562 -0.96875 8 -0.96875 C 8.132812 -0.96875 8.265625 -0.992188 8.390625 -1.046875 L 8.5 -1.015625 L 8.65625 -0.125 C 8.5625 -0.0625 8.4375 -0.015625 8.28125 0.015625 C 8.125 0.046875 7.96875 0.0625 7.8125 0.0625 C 7.34375 0.0625 6.984375 -0.0390625 6.734375 -0.25 C 6.492188 -0.457031 6.34375 -0.765625 6.28125 -1.171875 L 6.109375 -1.1875 C 5.867188 -0.726562 5.539062 -0.390625 5.125 -0.171875 C 4.707031 0.046875 4.179688 0.15625 3.546875 0.15625 Z M 3.828125 -0.84375 C 4.304688 -0.84375 4.722656 -0.953125 5.078125 -1.171875 C 5.429688 -1.398438 5.703125 -1.710938 5.890625 -2.109375 C 6.078125 -2.515625 6.171875 -2.976562 6.171875 -3.5 L 6.171875 -4.59375 L 6.015625 -4.625 C 5.828125 -4.488281 5.59375 -4.375 5.3125 -4.28125 C 5.039062 -4.195312 4.65625 -4.117188 4.15625 -4.046875 C 3.65625 -3.972656 3.257812 -3.863281 2.96875 -3.71875 C 2.675781 -3.582031 2.46875 -3.40625 2.34375 -3.1875 C 2.21875 -2.976562 2.15625 -2.710938 2.15625 -2.390625 C 2.15625 -1.890625 2.300781 -1.503906 2.59375 -1.234375 C 2.894531 -0.972656 3.304688 -0.84375 3.828125 -0.84375 Z M 3.828125 -0.84375 "/></g></g><g style="fill:#355c7d;fill-opacity:1;"><g transform="translate(121.976306, 101.027727)"><path style="stroke:none" d="M 1.5 0 L 1.5 -8.609375 L 2.703125 -8.609375 L 2.703125 -7.265625 L 2.875 -7.21875 C 3.269531 -8.195312 4.023438 -8.6875 5.140625 -8.6875 C 5.722656 -8.6875 6.160156 -8.578125 6.453125 -8.359375 L 6.125 -7.296875 L 5.96875 -7.265625 C 5.644531 -7.421875 5.289062 -7.5 4.90625 -7.5 C 4.21875 -7.5 3.6875 -7.238281 3.3125 -6.71875 C 2.945312 -6.207031 2.765625 -5.375 2.765625 -4.21875 L 2.765625 0 Z M 1.5 0 "/></g></g><g style="fill:#355c7d;fill-opacity:1;"><g transform="translate(128.62118, 101.027727)"><path style="stroke:none" d="M 3.421875 0.15625 C 2.816406 0.15625 2.335938 -0.015625 1.984375 -0.359375 C 1.640625 -0.703125 1.46875 -1.21875 1.46875 -1.90625 L 1.46875 -12.0625 L 2.734375 -12.0625 L 2.734375 -1.984375 C 2.734375 -1.628906 2.800781 -1.367188 2.9375 -1.203125 C 3.082031 -1.046875 3.300781 -0.96875 3.59375 -0.96875 C 3.769531 -0.96875 3.945312 -1 4.125 -1.0625 L 4.234375 -1.03125 L 4.390625 -0.03125 C 4.296875 0.03125 4.160156 0.078125 3.984375 0.109375 C 3.804688 0.140625 3.617188 0.15625 3.421875 0.15625 Z M 3.421875 0.15625 "/></g></g><g style="fill:#355c7d;fill-opacity:1;"><g transform="translate(133.300669, 101.027727)"><path style="stroke:none" d="M 1.71875 3.65625 C 1.425781 3.65625 1.15625 3.628906 0.90625 3.578125 C 0.65625 3.523438 0.4375 3.457031 0.25 3.375 L 0.484375 2.359375 L 0.625 2.3125 C 0.75 2.375 0.90625 2.425781 1.09375 2.46875 C 1.28125 2.519531 1.472656 2.546875 1.671875 2.546875 C 2.023438 2.546875 2.316406 2.5 2.546875 2.40625 C 2.773438 2.3125 2.96875 2.15625 3.125 1.9375 C 3.289062 1.71875 3.445312 1.421875 3.59375 1.046875 L 3.890625 0.203125 L 0.4375 -8.609375 L 1.8125 -8.609375 L 4.515625 -1.578125 L 4.671875 -1.578125 L 7.296875 -8.609375 L 8.59375 -8.609375 L 4.75 1.34375 C 4.53125 1.894531 4.285156 2.335938 4.015625 2.671875 C 3.742188 3.015625 3.421875 3.265625 3.046875 3.421875 C 2.679688 3.578125 2.238281 3.65625 1.71875 3.65625 Z M 1.71875 3.65625 "/></g></g><g style="fill:#355c7d;fill-opacity:1;"><g transform="translate(142.371084, 101.027727)"><path style="stroke:none" d=""/></g></g><g style="fill:#355c7d;fill-opacity:1;"><g transform="translate(146.286256, 101.027727)"><path style="stroke:none" d="M 2.140625 -10.265625 C 1.867188 -10.265625 1.644531 -10.347656 1.46875 -10.515625 C 1.300781 -10.691406 1.21875 -10.910156 1.21875 -11.171875 C 1.21875 -11.429688 1.300781 -11.644531 1.46875 -11.8125 C 1.644531 -11.976562 1.867188 -12.0625 2.140625 -12.0625 C 2.410156 -12.0625 2.628906 -11.976562 2.796875 -11.8125 C 2.960938 -11.644531 3.046875 -11.429688 3.046875 -11.171875 C 3.046875 -10.910156 2.960938 -10.691406 2.796875 -10.515625 C 2.628906 -10.347656 2.410156 -10.265625 2.140625 -10.265625 Z M 1.5 0 L 1.5 -8.609375 L 2.765625 -8.609375 L 2.765625 0 Z M 1.5 0 "/></g></g><g style="fill:#355c7d;fill-opacity:1;"><g transform="translate(150.552396, 101.027727)"><path style="stroke:none" d="M 1.5 0 L 1.5 -8.609375 L 2.703125 -8.609375 L 2.703125 -7.265625 L 2.875 -7.21875 C 3.15625 -7.726562 3.519531 -8.113281 3.96875 -8.375 C 4.414062 -8.632812 4.957031 -8.765625 5.59375 -8.765625 C 6.632812 -8.765625 7.382812 -8.5 7.84375 -7.96875 C 8.3125 -7.445312 8.546875 -6.640625 8.546875 -5.546875 L 8.546875 0 L 7.28125 0 L 7.28125 -5.515625 C 7.28125 -6.035156 7.210938 -6.453125 7.078125 -6.765625 C 6.941406 -7.078125 6.734375 -7.304688 6.453125 -7.453125 C 6.179688 -7.597656 5.816406 -7.671875 5.359375 -7.671875 C 4.585938 -7.671875 3.960938 -7.410156 3.484375 -6.890625 C 3.003906 -6.378906 2.765625 -5.554688 2.765625 -4.421875 L 2.765625 0 Z M 1.5 0 "/></g></g><g style="fill:#355c7d;fill-opacity:1;"><g transform="translate(160.457314, 101.027727)"><path style="stroke:none" d="M 3.921875 0.15625 C 3.378906 0.15625 2.878906 0.0859375 2.421875 -0.046875 C 1.960938 -0.191406 1.570312 -0.390625 1.25 -0.640625 C 0.9375 -0.890625 0.710938 -1.171875 0.578125 -1.484375 L 1.328125 -2.265625 L 1.5 -2.265625 C 1.78125 -1.835938 2.117188 -1.515625 2.515625 -1.296875 C 2.910156 -1.078125 3.378906 -0.96875 3.921875 -0.96875 C 4.554688 -0.96875 5.039062 -1.09375 5.375 -1.34375 C 5.707031 -1.59375 5.875 -1.9375 5.875 -2.375 C 5.875 -2.71875 5.769531 -3 5.5625 -3.21875 C 5.363281 -3.4375 5.039062 -3.601562 4.59375 -3.71875 L 3.140625 -4.078125 C 2.367188 -4.265625 1.800781 -4.5625 1.4375 -4.96875 C 1.082031 -5.375 0.90625 -5.875 0.90625 -6.46875 C 0.90625 -6.9375 1.023438 -7.34375 1.265625 -7.6875 C 1.503906 -8.03125 1.847656 -8.296875 2.296875 -8.484375 C 2.753906 -8.671875 3.289062 -8.765625 3.90625 -8.765625 C 4.695312 -8.765625 5.320312 -8.65625 5.78125 -8.4375 C 6.238281 -8.21875 6.59375 -7.910156 6.84375 -7.515625 L 6.125 -6.8125 L 5.96875 -6.8125 C 5.695312 -7.132812 5.394531 -7.363281 5.0625 -7.5 C 4.738281 -7.644531 4.351562 -7.71875 3.90625 -7.71875 C 3.34375 -7.71875 2.910156 -7.613281 2.609375 -7.40625 C 2.304688 -7.207031 2.15625 -6.914062 2.15625 -6.53125 C 2.15625 -6.175781 2.257812 -5.890625 2.46875 -5.671875 C 2.6875 -5.460938 3.0625 -5.296875 3.59375 -5.171875 L 5.015625 -4.828125 C 5.765625 -4.648438 6.304688 -4.351562 6.640625 -3.9375 C 6.972656 -3.53125 7.140625 -3.015625 7.140625 -2.390625 C 7.140625 -1.890625 7.019531 -1.445312 6.78125 -1.0625 C 6.539062 -0.675781 6.175781 -0.375 5.6875 -0.15625 C 5.207031 0.0507812 4.617188 0.15625 3.921875 0.15625 Z M 3.921875 0.15625 "/></g></g><g style="fill:#355c7d;fill-opacity:1;"><g transform="translate(168.412445, 101.027727)"><path style="stroke:none" d="M 2.140625 -10.265625 C 1.867188 -10.265625 1.644531 -10.347656 1.46875 -10.515625 C 1.300781 -10.691406 1.21875 -10.910156 1.21875 -11.171875 C 1.21875 -11.429688 1.300781 -11.644531 1.46875 -11.8125 C 1.644531 -11.976562 1.867188 -12.0625 2.140625 -12.0625 C 2.410156 -12.0625 2.628906 -11.976562 2.796875 -11.8125 C 2.960938 -11.644531 3.046875 -11.429688 3.046875 -11.171875 C 3.046875 -10.910156 2.960938 -10.691406 2.796875 -10.515625 C 2.628906 -10.347656 2.410156 -10.265625 2.140625 -10.265625 Z M 1.5 0 L 1.5 -8.609375 L 2.765625 -8.609375 L 2.765625 0 Z M 1.5 0 "/></g></g><g style="fill:#355c7d;fill-opacity:1;"><g transform="translate(172.678585, 101.027727)"><path style="stroke:none" d="M 4.4375 3.65625 C 3.070312 3.65625 2.078125 3.425781 1.453125 2.96875 C 0.828125 2.519531 0.515625 1.921875 0.515625 1.171875 C 0.515625 0.679688 0.660156 0.296875 0.953125 0.015625 C 1.242188 -0.265625 1.671875 -0.46875 2.234375 -0.59375 L 2.234375 -0.765625 C 1.960938 -0.910156 1.757812 -1.082031 1.625 -1.28125 C 1.5 -1.488281 1.4375 -1.734375 1.4375 -2.015625 C 1.4375 -2.347656 1.539062 -2.617188 1.75 -2.828125 C 1.957031 -3.035156 2.269531 -3.195312 2.6875 -3.3125 L 2.6875 -3.46875 C 1.75 -3.96875 1.28125 -4.773438 1.28125 -5.890625 C 1.28125 -6.453125 1.40625 -6.945312 1.65625 -7.375 C 1.914062 -7.8125 2.28125 -8.148438 2.75 -8.390625 C 3.226562 -8.640625 3.785156 -8.765625 4.421875 -8.765625 C 5.140625 -8.765625 5.742188 -8.609375 6.234375 -8.296875 C 6.410156 -8.492188 6.546875 -8.707031 6.640625 -8.9375 C 6.734375 -9.175781 6.789062 -9.441406 6.8125 -9.734375 L 6.984375 -9.828125 L 8.015625 -9.578125 C 7.972656 -9.140625 7.84375 -8.769531 7.625 -8.46875 C 7.414062 -8.164062 7.117188 -7.921875 6.734375 -7.734375 L 6.734375 -7.5625 C 7.015625 -7.34375 7.21875 -7.085938 7.34375 -6.796875 C 7.476562 -6.503906 7.546875 -6.160156 7.546875 -5.765625 C 7.546875 -5.222656 7.414062 -4.734375 7.15625 -4.296875 C 6.894531 -3.867188 6.523438 -3.53125 6.046875 -3.28125 C 5.578125 -3.039062 5.035156 -2.921875 4.421875 -2.921875 C 4.347656 -2.921875 4.21875 -2.925781 4.03125 -2.9375 C 3.820312 -2.945312 3.664062 -2.953125 3.5625 -2.953125 C 3.289062 -2.953125 3.070312 -2.878906 2.90625 -2.734375 C 2.75 -2.597656 2.671875 -2.421875 2.671875 -2.203125 C 2.671875 -1.929688 2.757812 -1.726562 2.9375 -1.59375 C 3.113281 -1.46875 3.398438 -1.398438 3.796875 -1.390625 L 5.84375 -1.3125 C 6.71875 -1.28125 7.363281 -1.078125 7.78125 -0.703125 C 8.207031 -0.328125 8.421875 0.203125 8.421875 0.890625 C 8.421875 1.410156 8.285156 1.875 8.015625 2.28125 C 7.742188 2.695312 7.304688 3.03125 6.703125 3.28125 C 6.109375 3.53125 5.351562 3.65625 4.4375 3.65625 Z M 4.421875 -4.015625 C 5.023438 -4.015625 5.492188 -4.171875 5.828125 -4.484375 C 6.160156 -4.804688 6.328125 -5.253906 6.328125 -5.828125 C 6.328125 -6.421875 6.160156 -6.878906 5.828125 -7.203125 C 5.503906 -7.523438 5.035156 -7.6875 4.421875 -7.6875 C 3.804688 -7.6875 3.335938 -7.523438 3.015625 -7.203125 C 2.691406 -6.878906 2.53125 -6.421875 2.53125 -5.828125 C 2.53125 -5.242188 2.691406 -4.796875 3.015625 -4.484375 C 3.335938 -4.171875 3.804688 -4.015625 4.421875 -4.015625 Z M 4.4375 2.5625 C 5.070312 2.5625 5.585938 2.488281 5.984375 2.34375 C 6.390625 2.207031 6.679688 2.019531 6.859375 1.78125 C 7.035156 1.550781 7.125 1.296875 7.125 1.015625 C 7.125 0.753906 7.078125 0.546875 6.984375 0.390625 C 6.890625 0.234375 6.734375 0.117188 6.515625 0.046875 C 6.304688 -0.0234375 6.015625 -0.0703125 5.640625 -0.09375 L 3.71875 -0.1875 L 3.4375 -0.1875 C 2.363281 -0.175781 1.828125 0.238281 1.828125 1.0625 C 1.828125 2.0625 2.695312 2.5625 4.4375 2.5625 Z M 4.4375 2.5625 "/></g></g><g style="fill:#355c7d;fill-opacity:1;"><g transform="translate(181.491622, 101.027727)"><path style="stroke:none" d="M 1.5 0 L 1.5 -12.0625 L 2.765625 -12.0625 L 2.765625 -7.390625 L 2.9375 -7.359375 C 3.550781 -8.296875 4.4375 -8.765625 5.59375 -8.765625 C 6.632812 -8.765625 7.382812 -8.5 7.84375 -7.96875 C 8.3125 -7.445312 8.546875 -6.640625 8.546875 -5.546875 L 8.546875 0 L 7.28125 0 L 7.28125 -5.515625 C 7.28125 -6.035156 7.210938 -6.453125 7.078125 -6.765625 C 6.941406 -7.078125 6.734375 -7.304688 6.453125 -7.453125 C 6.179688 -7.597656 5.816406 -7.671875 5.359375 -7.671875 C 4.578125 -7.671875 3.945312 -7.414062 3.46875 -6.90625 C 3 -6.40625 2.765625 -5.578125 2.765625 -4.421875 L 2.765625 0 Z M 1.5 0 "/></g></g><g style="fill:#355c7d;fill-opacity:1;"><g transform="translate(191.334113, 101.027727)"><path style="stroke:none" d="M 5.828125 -1.359375 L 6.234375 -0.453125 C 6.023438 -0.242188 5.753906 -0.09375 5.421875 0 C 5.097656 0.101562 4.742188 0.15625 4.359375 0.15625 C 2.710938 0.15625 1.890625 -0.671875 1.890625 -2.328125 L 1.890625 -7.578125 L 0.390625 -7.578125 L 0.390625 -8.609375 L 1.890625 -8.609375 L 1.890625 -10.4375 L 3.15625 -10.640625 L 3.15625 -8.609375 L 5.9375 -8.609375 L 5.9375 -7.578125 L 3.15625 -7.578125 L 3.15625 -2.453125 C 3.15625 -1.460938 3.585938 -0.96875 4.453125 -0.96875 C 4.921875 -0.96875 5.320312 -1.097656 5.65625 -1.359375 Z M 5.828125 -1.359375 "/></g></g><g style="fill:#355c7d;fill-opacity:1;"><g transform="translate(197.885397, 101.027727)"><path style="stroke:none" d="M 3.921875 0.15625 C 3.378906 0.15625 2.878906 0.0859375 2.421875 -0.046875 C 1.960938 -0.191406 1.570312 -0.390625 1.25 -0.640625 C 0.9375 -0.890625 0.710938 -1.171875 0.578125 -1.484375 L 1.328125 -2.265625 L 1.5 -2.265625 C 1.78125 -1.835938 2.117188 -1.515625 2.515625 -1.296875 C 2.910156 -1.078125 3.378906 -0.96875 3.921875 -0.96875 C 4.554688 -0.96875 5.039062 -1.09375 5.375 -1.34375 C 5.707031 -1.59375 5.875 -1.9375 5.875 -2.375 C 5.875 -2.71875 5.769531 -3 5.5625 -3.21875 C 5.363281 -3.4375 5.039062 -3.601562 4.59375 -3.71875 L 3.140625 -4.078125 C 2.367188 -4.265625 1.800781 -4.5625 1.4375 -4.96875 C 1.082031 -5.375 0.90625 -5.875 0.90625 -6.46875 C 0.90625 -6.9375 1.023438 -7.34375 1.265625 -7.6875 C 1.503906 -8.03125 1.847656 -8.296875 2.296875 -8.484375 C 2.753906 -8.671875 3.289062 -8.765625 3.90625 -8.765625 C 4.695312 -8.765625 5.320312 -8.65625 5.78125 -8.4375 C 6.238281 -8.21875 6.59375 -7.910156 6.84375 -7.515625 L 6.125 -6.8125 L 5.96875 -6.8125 C 5.695312 -7.132812 5.394531 -7.363281 5.0625 -7.5 C 4.738281 -7.644531 4.351562 -7.71875 3.90625 -7.71875 C 3.34375 -7.71875 2.910156 -7.613281 2.609375 -7.40625 C 2.304688 -7.207031 2.15625 -6.914062 2.15625 -6.53125 C 2.15625 -6.175781 2.257812 -5.890625 2.46875 -5.671875 C 2.6875 -5.460938 3.0625 -5.296875 3.59375 -5.171875 L 5.015625 -4.828125 C 5.765625 -4.648438 6.304688 -4.351562 6.640625 -3.9375 C 6.972656 -3.53125 7.140625 -3.015625 7.140625 -2.390625 C 7.140625 -1.890625 7.019531 -1.445312 6.78125 -1.0625 C 6.539062 -0.675781 6.175781 -0.375 5.6875 -0.15625 C 5.207031 0.0507812 4.617188 0.15625 3.921875 0.15625 Z M 3.921875 0.15625 "/></g></g><g style="fill:#355c7d;fill-opacity:1;"><g transform="translate(205.645429, 101.027727)"><path style="stroke:none" d="M 2.09375 0.078125 C 1.800781 0.078125 1.566406 -0.00390625 1.390625 -0.171875 C 1.222656 -0.335938 1.140625 -0.554688 1.140625 -0.828125 C 1.140625 -1.097656 1.222656 -1.320312 1.390625 -1.5 C 1.566406 -1.675781 1.800781 -1.765625 2.09375 -1.765625 C 2.394531 -1.765625 2.628906 -1.679688 2.796875 -1.515625 C 2.972656 -1.347656 3.0625 -1.125 3.0625 -0.84375 C 3.0625 -0.570312 2.972656 -0.347656 2.796875 -0.171875 C 2.628906 -0.00390625 2.394531 0.078125 2.09375 0.078125 Z M 2.09375 0.078125 "/></g></g><g style="fill:#355c7d;fill-opacity:1;"><g transform="translate(209.849176, 101.027727)"><path style="stroke:none" d=""/></g></g><g style="fill:#355c7d;fill-opacity:1;"><g transform="translate(213.764348, 101.027727)"><path style="stroke:none" d="M 1.71875 0 L 1.71875 -11.40625 L 6.046875 -11.40625 C 6.753906 -11.40625 7.347656 -11.289062 7.828125 -11.0625 C 8.316406 -10.84375 8.6875 -10.523438 8.9375 -10.109375 C 9.1875 -9.703125 9.3125 -9.210938 9.3125 -8.640625 C 9.3125 -8.148438 9.175781 -7.703125 8.90625 -7.296875 C 8.632812 -6.898438 8.253906 -6.585938 7.765625 -6.359375 L 7.765625 -6.203125 C 8.515625 -6.015625 9.085938 -5.671875 9.484375 -5.171875 C 9.878906 -4.679688 10.078125 -4.0625 10.078125 -3.3125 C 10.078125 -2.25 9.765625 -1.429688 9.140625 -0.859375 C 8.515625 -0.285156 7.59375 0 6.375 0 Z M 5.984375 -6.625 C 6.617188 -6.625 7.109375 -6.785156 7.453125 -7.109375 C 7.804688 -7.441406 7.984375 -7.894531 7.984375 -8.46875 C 7.984375 -9.082031 7.8125 -9.539062 7.46875 -9.84375 C 7.132812 -10.144531 6.640625 -10.296875 5.984375 -10.296875 L 3.0625 -10.296875 L 3.0625 -6.625 Z M 6.28125 -1.109375 C 7.894531 -1.109375 8.703125 -1.84375 8.703125 -3.3125 C 8.703125 -4.78125 7.894531 -5.515625 6.28125 -5.515625 L 3.0625 -5.515625 L 3.0625 -1.109375 Z M 6.28125 -1.109375 "/></g></g><g style="fill:#355c7d;fill-opacity:1;"><g transform="translate(224.737755, 101.027727)"><path style="stroke:none" d="M 8.203125 -4.015625 L 2.28125 -4.015625 C 2.320312 -2.960938 2.570312 -2.191406 3.03125 -1.703125 C 3.5 -1.210938 4.140625 -0.96875 4.953125 -0.96875 C 5.566406 -0.96875 6.0625 -1.078125 6.4375 -1.296875 C 6.8125 -1.515625 7.109375 -1.859375 7.328125 -2.328125 L 7.484375 -2.328125 L 8.3125 -1.84375 C 8.0625 -1.21875 7.660156 -0.726562 7.109375 -0.375 C 6.566406 -0.0195312 5.847656 0.15625 4.953125 0.15625 C 4.117188 0.15625 3.398438 -0.00390625 2.796875 -0.328125 C 2.203125 -0.648438 1.742188 -1.144531 1.421875 -1.8125 C 1.097656 -2.476562 0.9375 -3.304688 0.9375 -4.296875 C 0.9375 -5.273438 1.109375 -6.097656 1.453125 -6.765625 C 1.796875 -7.441406 2.257812 -7.941406 2.84375 -8.265625 C 3.4375 -8.597656 4.113281 -8.765625 4.875 -8.765625 C 5.976562 -8.765625 6.835938 -8.453125 7.453125 -7.828125 C 8.078125 -7.210938 8.390625 -6.296875 8.390625 -5.078125 C 8.390625 -4.597656 8.378906 -4.273438 8.359375 -4.109375 Z M 7.140625 -5.078125 C 7.117188 -5.992188 6.914062 -6.660156 6.53125 -7.078125 C 6.144531 -7.492188 5.59375 -7.703125 4.875 -7.703125 C 4.125 -7.703125 3.53125 -7.488281 3.09375 -7.0625 C 2.664062 -6.644531 2.40625 -5.984375 2.3125 -5.078125 Z M 7.140625 -5.078125 "/></g></g><g style="fill:#355c7d;fill-opacity:1;"><g transform="translate(233.909553, 101.027727)"><path style="stroke:none" d="M 5.828125 -1.359375 L 6.234375 -0.453125 C 6.023438 -0.242188 5.753906 -0.09375 5.421875 0 C 5.097656 0.101562 4.742188 0.15625 4.359375 0.15625 C 2.710938 0.15625 1.890625 -0.671875 1.890625 -2.328125 L 1.890625 -7.578125 L 0.390625 -7.578125 L 0.390625 -8.609375 L 1.890625 -8.609375 L 1.890625 -10.4375 L 3.15625 -10.640625 L 3.15625 -8.609375 L 5.9375 -8.609375 L 5.9375 -7.578125 L 3.15625 -7.578125 L 3.15625 -2.453125 C 3.15625 -1.460938 3.585938 -0.96875 4.453125 -0.96875 C 4.921875 -0.96875 5.320312 -1.097656 5.65625 -1.359375 Z M 5.828125 -1.359375 "/></g></g><g style="fill:#355c7d;fill-opacity:1;"><g transform="translate(240.460838, 101.027727)"><path style="stroke:none" d="M 5.828125 -1.359375 L 6.234375 -0.453125 C 6.023438 -0.242188 5.753906 -0.09375 5.421875 0 C 5.097656 0.101562 4.742188 0.15625 4.359375 0.15625 C 2.710938 0.15625 1.890625 -0.671875 1.890625 -2.328125 L 1.890625 -7.578125 L 0.390625 -7.578125 L 0.390625 -8.609375 L 1.890625 -8.609375 L 1.890625 -10.4375 L 3.15625 -10.640625 L 3.15625 -8.609375 L 5.9375 -8.609375 L 5.9375 -7.578125 L 3.15625 -7.578125 L 3.15625 -2.453125 C 3.15625 -1.460938 3.585938 -0.96875 4.453125 -0.96875 C 4.921875 -0.96875 5.320312 -1.097656 5.65625 -1.359375 Z M 5.828125 -1.359375 "/></g></g><g style="fill:#355c7d;fill-opacity:1;"><g transform="translate(246.91067, 101.027727)"><path style="stroke:none" d="M 8.203125 -4.015625 L 2.28125 -4.015625 C 2.320312 -2.960938 2.570312 -2.191406 3.03125 -1.703125 C 3.5 -1.210938 4.140625 -0.96875 4.953125 -0.96875 C 5.566406 -0.96875 6.0625 -1.078125 6.4375 -1.296875 C 6.8125 -1.515625 7.109375 -1.859375 7.328125 -2.328125 L 7.484375 -2.328125 L 8.3125 -1.84375 C 8.0625 -1.21875 7.660156 -0.726562 7.109375 -0.375 C 6.566406 -0.0195312 5.847656 0.15625 4.953125 0.15625 C 4.117188 0.15625 3.398438 -0.00390625 2.796875 -0.328125 C 2.203125 -0.648438 1.742188 -1.144531 1.421875 -1.8125 C 1.097656 -2.476562 0.9375 -3.304688 0.9375 -4.296875 C 0.9375 -5.273438 1.109375 -6.097656 1.453125 -6.765625 C 1.796875 -7.441406 2.257812 -7.941406 2.84375 -8.265625 C 3.4375 -8.597656 4.113281 -8.765625 4.875 -8.765625 C 5.976562 -8.765625 6.835938 -8.453125 7.453125 -7.828125 C 8.078125 -7.210938 8.390625 -6.296875 8.390625 -5.078125 C 8.390625 -4.597656 8.378906 -4.273438 8.359375 -4.109375 Z M 7.140625 -5.078125 C 7.117188 -5.992188 6.914062 -6.660156 6.53125 -7.078125 C 6.144531 -7.492188 5.59375 -7.703125 4.875 -7.703125 C 4.125 -7.703125 3.53125 -7.488281 3.09375 -7.0625 C 2.664062 -6.644531 2.40625 -5.984375 2.3125 -5.078125 Z M 7.140625 -5.078125 "/></g></g><g style="fill:#355c7d;fill-opacity:1;"><g transform="translate(256.082469, 101.027727)"><path style="stroke:none" d="M 1.5 0 L 1.5 -8.609375 L 2.703125 -8.609375 L 2.703125 -7.265625 L 2.875 -7.21875 C 3.269531 -8.195312 4.023438 -8.6875 5.140625 -8.6875 C 5.722656 -8.6875 6.160156 -8.578125 6.453125 -8.359375 L 6.125 -7.296875 L 5.96875 -7.265625 C 5.644531 -7.421875 5.289062 -7.5 4.90625 -7.5 C 4.21875 -7.5 3.6875 -7.238281 3.3125 -6.71875 C 2.945312 -6.207031 2.765625 -5.375 2.765625 -4.21875 L 2.765625 0 Z M 1.5 0 "/></g></g><g style="fill:#355c7d;fill-opacity:1;"><g transform="translate(262.727343, 101.027727)"><path style="stroke:none" d=""/></g></g><g style="fill:#355c7d;fill-opacity:1;"><g transform="translate(266.642515, 101.027727)"><path style="stroke:none" d="M 4.46875 0.15625 C 3.769531 0.15625 3.15625 -0.00390625 2.625 -0.328125 C 2.101562 -0.660156 1.691406 -1.160156 1.390625 -1.828125 C 1.085938 -2.492188 0.9375 -3.316406 0.9375 -4.296875 C 0.9375 -5.285156 1.09375 -6.113281 1.40625 -6.78125 C 1.71875 -7.445312 2.148438 -7.941406 2.703125 -8.265625 C 3.253906 -8.597656 3.890625 -8.765625 4.609375 -8.765625 C 5.179688 -8.765625 5.695312 -8.65625 6.15625 -8.4375 C 6.613281 -8.226562 7.007812 -7.878906 7.34375 -7.390625 L 7.5 -7.421875 L 7.5 -12.0625 L 8.765625 -12.0625 L 8.765625 0 L 7.5 0 L 7.5 -1.25 L 7.34375 -1.28125 C 7.0625 -0.851562 6.675781 -0.503906 6.1875 -0.234375 C 5.707031 0.0234375 5.132812 0.15625 4.46875 0.15625 Z M 4.859375 -0.96875 C 5.660156 -0.96875 6.300781 -1.242188 6.78125 -1.796875 C 7.257812 -2.347656 7.5 -3.179688 7.5 -4.296875 C 7.5 -5.421875 7.257812 -6.257812 6.78125 -6.8125 C 6.300781 -7.363281 5.660156 -7.640625 4.859375 -7.640625 C 4.035156 -7.640625 3.398438 -7.367188 2.953125 -6.828125 C 2.503906 -6.296875 2.28125 -5.453125 2.28125 -4.296875 C 2.28125 -2.078125 3.140625 -0.96875 4.859375 -0.96875 Z M 4.859375 -0.96875 "/></g></g><g style="fill:#355c7d;fill-opacity:1;"><g transform="translate(276.913999, 101.027727)"><path style="stroke:none" d="M 8.203125 -4.015625 L 2.28125 -4.015625 C 2.320312 -2.960938 2.570312 -2.191406 3.03125 -1.703125 C 3.5 -1.210938 4.140625 -0.96875 4.953125 -0.96875 C 5.566406 -0.96875 6.0625 -1.078125 6.4375 -1.296875 C 6.8125 -1.515625 7.109375 -1.859375 7.328125 -2.328125 L 7.484375 -2.328125 L 8.3125 -1.84375 C 8.0625 -1.21875 7.660156 -0.726562 7.109375 -0.375 C 6.566406 -0.0195312 5.847656 0.15625 4.953125 0.15625 C 4.117188 0.15625 3.398438 -0.00390625 2.796875 -0.328125 C 2.203125 -0.648438 1.742188 -1.144531 1.421875 -1.8125 C 1.097656 -2.476562 0.9375 -3.304688 0.9375 -4.296875 C 0.9375 -5.273438 1.109375 -6.097656 1.453125 -6.765625 C 1.796875 -7.441406 2.257812 -7.941406 2.84375 -8.265625 C 3.4375 -8.597656 4.113281 -8.765625 4.875 -8.765625 C 5.976562 -8.765625 6.835938 -8.453125 7.453125 -7.828125 C 8.078125 -7.210938 8.390625 -6.296875 8.390625 -5.078125 C 8.390625 -4.597656 8.378906 -4.273438 8.359375 -4.109375 Z M 7.140625 -5.078125 C 7.117188 -5.992188 6.914062 -6.660156 6.53125 -7.078125 C 6.144531 -7.492188 5.59375 -7.703125 4.875 -7.703125 C 4.125 -7.703125 3.53125 -7.488281 3.09375 -7.0625 C 2.664062 -6.644531 2.40625 -5.984375 2.3125 -5.078125 Z M 7.140625 -5.078125 "/></g></g><g style="fill:#355c7d;fill-opacity:1;"><g transform="translate(286.085797, 101.027727)"><path style="stroke:none" d="M 4.9375 0.15625 C 4.175781 0.15625 3.492188 -0.015625 2.890625 -0.359375 C 2.285156 -0.703125 1.804688 -1.207031 1.453125 -1.875 C 1.109375 -2.550781 0.9375 -3.359375 0.9375 -4.296875 C 0.9375 -5.242188 1.109375 -6.050781 1.453125 -6.71875 C 1.804688 -7.394531 2.285156 -7.90625 2.890625 -8.25 C 3.492188 -8.59375 4.175781 -8.765625 4.9375 -8.765625 C 5.851562 -8.765625 6.578125 -8.59375 7.109375 -8.25 C 7.648438 -7.914062 8.039062 -7.460938 8.28125 -6.890625 L 7.421875 -6.265625 L 7.265625 -6.265625 C 7.023438 -6.734375 6.722656 -7.078125 6.359375 -7.296875 C 5.992188 -7.523438 5.519531 -7.640625 4.9375 -7.640625 C 4.40625 -7.640625 3.9375 -7.515625 3.53125 -7.265625 C 3.132812 -7.015625 2.828125 -6.640625 2.609375 -6.140625 C 2.390625 -5.640625 2.28125 -5.023438 2.28125 -4.296875 C 2.28125 -3.578125 2.390625 -2.96875 2.609375 -2.46875 C 2.835938 -1.976562 3.148438 -1.601562 3.546875 -1.34375 C 3.941406 -1.09375 4.40625 -0.96875 4.9375 -0.96875 C 5.539062 -0.96875 6.035156 -1.101562 6.421875 -1.375 C 6.816406 -1.644531 7.128906 -2.070312 7.359375 -2.65625 L 7.515625 -2.65625 L 8.34375 -2.171875 C 8.125 -1.441406 7.726562 -0.867188 7.15625 -0.453125 C 6.582031 -0.046875 5.84375 0.15625 4.9375 0.15625 Z M 4.9375 0.15625 "/></g></g><g style="fill:#355c7d;fill-opacity:1;"><g transform="translate(294.953434, 101.027727)"><path style="stroke:none" d="M 2.140625 -10.265625 C 1.867188 -10.265625 1.644531 -10.347656 1.46875 -10.515625 C 1.300781 -10.691406 1.21875 -10.910156 1.21875 -11.171875 C 1.21875 -11.429688 1.300781 -11.644531 1.46875 -11.8125 C 1.644531 -11.976562 1.867188 -12.0625 2.140625 -12.0625 C 2.410156 -12.0625 2.628906 -11.976562 2.796875 -11.8125 C 2.960938 -11.644531 3.046875 -11.429688 3.046875 -11.171875 C 3.046875 -10.910156 2.960938 -10.691406 2.796875 -10.515625 C 2.628906 -10.347656 2.410156 -10.265625 2.140625 -10.265625 Z M 1.5 0 L 1.5 -8.609375 L 2.765625 -8.609375 L 2.765625 0 Z M 1.5 0 "/></g></g><g style="fill:#355c7d;fill-opacity:1;"><g transform="translate(299.219585, 101.027727)"><path style="stroke:none" d="M 3.921875 0.15625 C 3.378906 0.15625 2.878906 0.0859375 2.421875 -0.046875 C 1.960938 -0.191406 1.570312 -0.390625 1.25 -0.640625 C 0.9375 -0.890625 0.710938 -1.171875 0.578125 -1.484375 L 1.328125 -2.265625 L 1.5 -2.265625 C 1.78125 -1.835938 2.117188 -1.515625 2.515625 -1.296875 C 2.910156 -1.078125 3.378906 -0.96875 3.921875 -0.96875 C 4.554688 -0.96875 5.039062 -1.09375 5.375 -1.34375 C 5.707031 -1.59375 5.875 -1.9375 5.875 -2.375 C 5.875 -2.71875 5.769531 -3 5.5625 -3.21875 C 5.363281 -3.4375 5.039062 -3.601562 4.59375 -3.71875 L 3.140625 -4.078125 C 2.367188 -4.265625 1.800781 -4.5625 1.4375 -4.96875 C 1.082031 -5.375 0.90625 -5.875 0.90625 -6.46875 C 0.90625 -6.9375 1.023438 -7.34375 1.265625 -7.6875 C 1.503906 -8.03125 1.847656 -8.296875 2.296875 -8.484375 C 2.753906 -8.671875 3.289062 -8.765625 3.90625 -8.765625 C 4.695312 -8.765625 5.320312 -8.65625 5.78125 -8.4375 C 6.238281 -8.21875 6.59375 -7.910156 6.84375 -7.515625 L 6.125 -6.8125 L 5.96875 -6.8125 C 5.695312 -7.132812 5.394531 -7.363281 5.0625 -7.5 C 4.738281 -7.644531 4.351562 -7.71875 3.90625 -7.71875 C 3.34375 -7.71875 2.910156 -7.613281 2.609375 -7.40625 C 2.304688 -7.207031 2.15625 -6.914062 2.15625 -6.53125 C 2.15625 -6.175781 2.257812 -5.890625 2.46875 -5.671875 C 2.6875 -5.460938 3.0625 -5.296875 3.59375 -5.171875 L 5.015625 -4.828125 C 5.765625 -4.648438 6.304688 -4.351562 6.640625 -3.9375 C 6.972656 -3.53125 7.140625 -3.015625 7.140625 -2.390625 C 7.140625 -1.890625 7.019531 -1.445312 6.78125 -1.0625 C 6.539062 -0.675781 6.175781 -0.375 5.6875 -0.15625 C 5.207031 0.0507812 4.617188 0.15625 3.921875 0.15625 Z M 3.921875 0.15625 "/></g></g><g style="fill:#355c7d;fill-opacity:1;"><g transform="translate(307.174693, 101.027727)"><path style="stroke:none" d="M 2.140625 -10.265625 C 1.867188 -10.265625 1.644531 -10.347656 1.46875 -10.515625 C 1.300781 -10.691406 1.21875 -10.910156 1.21875 -11.171875 C 1.21875 -11.429688 1.300781 -11.644531 1.46875 -11.8125 C 1.644531 -11.976562 1.867188 -12.0625 2.140625 -12.0625 C 2.410156 -12.0625 2.628906 -11.976562 2.796875 -11.8125 C 2.960938 -11.644531 3.046875 -11.429688 3.046875 -11.171875 C 3.046875 -10.910156 2.960938 -10.691406 2.796875 -10.515625 C 2.628906 -10.347656 2.410156 -10.265625 2.140625 -10.265625 Z M 1.5 0 L 1.5 -8.609375 L 2.765625 -8.609375 L 2.765625 0 Z M 1.5 0 "/></g></g><g style="fill:#355c7d;fill-opacity:1;"><g transform="translate(311.440845, 101.027727)"><path style="stroke:none" d="M 4.9375 0.15625 C 4.125 0.15625 3.414062 -0.0078125 2.8125 -0.34375 C 2.21875 -0.6875 1.753906 -1.191406 1.421875 -1.859375 C 1.097656 -2.535156 0.9375 -3.347656 0.9375 -4.296875 C 0.9375 -5.253906 1.097656 -6.066406 1.421875 -6.734375 C 1.753906 -7.410156 2.21875 -7.914062 2.8125 -8.25 C 3.414062 -8.59375 4.125 -8.765625 4.9375 -8.765625 C 5.75 -8.765625 6.457031 -8.59375 7.0625 -8.25 C 7.664062 -7.914062 8.128906 -7.410156 8.453125 -6.734375 C 8.773438 -6.066406 8.9375 -5.253906 8.9375 -4.296875 C 8.9375 -3.347656 8.773438 -2.535156 8.453125 -1.859375 C 8.128906 -1.191406 7.664062 -0.6875 7.0625 -0.34375 C 6.457031 -0.0078125 5.75 0.15625 4.9375 0.15625 Z M 4.9375 -0.96875 C 5.800781 -0.96875 6.457031 -1.238281 6.90625 -1.78125 C 7.363281 -2.320312 7.59375 -3.160156 7.59375 -4.296875 C 7.59375 -5.441406 7.363281 -6.285156 6.90625 -6.828125 C 6.457031 -7.367188 5.800781 -7.640625 4.9375 -7.640625 C 4.082031 -7.640625 3.425781 -7.363281 2.96875 -6.8125 C 2.507812 -6.269531 2.28125 -5.429688 2.28125 -4.296875 C 2.28125 -3.160156 2.507812 -2.320312 2.96875 -1.78125 C 3.425781 -1.238281 4.082031 -0.96875 4.9375 -0.96875 Z M 4.9375 -0.96875 "/></g></g><g style="fill:#355c7d;fill-opacity:1;"><g transform="translate(321.314555, 101.027727)"><path style="stroke:none" d="M 1.5 0 L 1.5 -8.609375 L 2.703125 -8.609375 L 2.703125 -7.265625 L 2.875 -7.21875 C 3.15625 -7.726562 3.519531 -8.113281 3.96875 -8.375 C 4.414062 -8.632812 4.957031 -8.765625 5.59375 -8.765625 C 6.632812 -8.765625 7.382812 -8.5 7.84375 -7.96875 C 8.3125 -7.445312 8.546875 -6.640625 8.546875 -5.546875 L 8.546875 0 L 7.28125 0 L 7.28125 -5.515625 C 7.28125 -6.035156 7.210938 -6.453125 7.078125 -6.765625 C 6.941406 -7.078125 6.734375 -7.304688 6.453125 -7.453125 C 6.179688 -7.597656 5.816406 -7.671875 5.359375 -7.671875 C 4.585938 -7.671875 3.960938 -7.410156 3.484375 -6.890625 C 3.003906 -6.378906 2.765625 -5.554688 2.765625 -4.421875 L 2.765625 0 Z M 1.5 0 "/></g></g><g style="fill:#355c7d;fill-opacity:1;"><g transform="translate(331.219484, 101.027727)"><path style="stroke:none" d="M 3.921875 0.15625 C 3.378906 0.15625 2.878906 0.0859375 2.421875 -0.046875 C 1.960938 -0.191406 1.570312 -0.390625 1.25 -0.640625 C 0.9375 -0.890625 0.710938 -1.171875 0.578125 -1.484375 L 1.328125 -2.265625 L 1.5 -2.265625 C 1.78125 -1.835938 2.117188 -1.515625 2.515625 -1.296875 C 2.910156 -1.078125 3.378906 -0.96875 3.921875 -0.96875 C 4.554688 -0.96875 5.039062 -1.09375 5.375 -1.34375 C 5.707031 -1.59375 5.875 -1.9375 5.875 -2.375 C 5.875 -2.71875 5.769531 -3 5.5625 -3.21875 C 5.363281 -3.4375 5.039062 -3.601562 4.59375 -3.71875 L 3.140625 -4.078125 C 2.367188 -4.265625 1.800781 -4.5625 1.4375 -4.96875 C 1.082031 -5.375 0.90625 -5.875 0.90625 -6.46875 C 0.90625 -6.9375 1.023438 -7.34375 1.265625 -7.6875 C 1.503906 -8.03125 1.847656 -8.296875 2.296875 -8.484375 C 2.753906 -8.671875 3.289062 -8.765625 3.90625 -8.765625 C 4.695312 -8.765625 5.320312 -8.65625 5.78125 -8.4375 C 6.238281 -8.21875 6.59375 -7.910156 6.84375 -7.515625 L 6.125 -6.8125 L 5.96875 -6.8125 C 5.695312 -7.132812 5.394531 -7.363281 5.0625 -7.5 C 4.738281 -7.644531 4.351562 -7.71875 3.90625 -7.71875 C 3.34375 -7.71875 2.910156 -7.613281 2.609375 -7.40625 C 2.304688 -7.207031 2.15625 -6.914062 2.15625 -6.53125 C 2.15625 -6.175781 2.257812 -5.890625 2.46875 -5.671875 C 2.6875 -5.460938 3.0625 -5.296875 3.59375 -5.171875 L 5.015625 -4.828125 C 5.765625 -4.648438 6.304688 -4.351562 6.640625 -3.9375 C 6.972656 -3.53125 7.140625 -3.015625 7.140625 -2.390625 C 7.140625 -1.890625 7.019531 -1.445312 6.78125 -1.0625 C 6.539062 -0.675781 6.175781 -0.375 5.6875 -0.15625 C 5.207031 0.0507812 4.617188 0.15625 3.921875 0.15625 Z M 3.921875 0.15625 "/></g></g><g style="fill:#355c7d;fill-opacity:1;"><g transform="translate(338.979516, 101.027727)"><path style="stroke:none" d="M 2.09375 0.078125 C 1.800781 0.078125 1.566406 -0.00390625 1.390625 -0.171875 C 1.222656 -0.335938 1.140625 -0.554688 1.140625 -0.828125 C 1.140625 -1.097656 1.222656 -1.320312 1.390625 -1.5 C 1.566406 -1.675781 1.800781 -1.765625 2.09375 -1.765625 C 2.394531 -1.765625 2.628906 -1.679688 2.796875 -1.515625 C 2.972656 -1.347656 3.0625 -1.125 3.0625 -0.84375 C 3.0625 -0.570312 2.972656 -0.347656 2.796875 -0.171875 C 2.628906 -0.00390625 2.394531 0.078125 2.09375 0.078125 Z M 2.09375 0.078125 "/></g></g></g></svg>
