<svg xmlns="http://www.w3.org/2000/svg" xmlns:xlink="http://www.w3.org/1999/xlink" width="500" zoomAndPan="magnify" viewBox="0 0 375 149.999998" height="200" preserveAspectRatio="xMidYMid meet" version="1.2"><defs><clipPath id="949c1a92ba"><path d="M 15.929688 32.695312 L 100.539062 32.695312 L 100.539062 117.304688 L 15.929688 117.304688 Z M 15.929688 32.695312 "/></clipPath><clipPath id="fe337aba75"><path d="M 58.234375 32.695312 C 34.871094 32.695312 15.929688 51.636719 15.929688 75 C 15.929688 98.363281 34.871094 117.304688 58.234375 117.304688 C 81.597656 117.304688 100.539062 98.363281 100.539062 75 C 100.539062 51.636719 81.597656 32.695312 58.234375 32.695312 Z M 58.234375 32.695312 "/></clipPath><clipPath id="01916cc32f"><path d="M 0.929688 0.695312 L 85.539062 0.695312 L 85.539062 85.304688 L 0.929688 85.304688 Z M 0.929688 0.695312 "/></clipPath><clipPath id="b68e4c99a7"><path d="M 43.234375 0.695312 C 19.871094 0.695312 0.929688 19.636719 0.929688 43 C 0.929688 66.363281 19.871094 85.304688 43.234375 85.304688 C 66.597656 85.304688 85.539062 66.363281 85.539062 43 C 85.539062 19.636719 66.597656 0.695312 43.234375 0.695312 Z M 43.234375 0.695312 "/></clipPath><clipPath id="084e042b4a"><rect x="0" width="86" y="0" height="86"/></clipPath><filter x="0%" y="0%" width="100%" filterUnits="objectBoundingBox" id="5b68a36d52" height="100%"><feColorMatrix values="0 0 0 0 1 0 0 0 0 1 0 0 0 0 1 0 0 0 1 0" type="matrix" in="SourceGraphic"/></filter><clipPath id="2db6d972a2"><path d="M 0.234375 0.695312 L 84.839844 0.695312 L 84.839844 85.304688 L 0.234375 85.304688 Z M 0.234375 0.695312 "/></clipPath><clipPath id="7286899558"><path d="M 42.539062 0.695312 C 19.175781 0.695312 0.234375 19.636719 0.234375 43 C 0.234375 66.363281 19.175781 85.304688 42.539062 85.304688 C 65.902344 85.304688 84.839844 66.363281 84.839844 43 C 84.839844 19.636719 65.902344 0.695312 42.539062 0.695312 Z M 42.539062 0.695312 "/></clipPath><clipPath id="16edfcacc9"><path d="M 0.234375 0.695312 L 84.839844 0.695312 L 84.839844 85.304688 L 0.234375 85.304688 Z M 0.234375 0.695312 "/></clipPath><clipPath id="306fe735e8"><path d="M 42.539062 0.695312 C 19.175781 0.695312 0.234375 19.636719 0.234375 43 C 0.234375 66.363281 19.175781 85.304688 42.539062 85.304688 C 65.902344 85.304688 84.839844 66.363281 84.839844 43 C 84.839844 19.636719 65.902344 0.695312 42.539062 0.695312 Z M 42.539062 0.695312 "/></clipPath><clipPath id="cec6ef6297"><rect x="0" width="85" y="0" height="86"/></clipPath><clipPath id="9bb9847e69"><rect x="0" width="86" y="0" height="86"/></clipPath></defs><g id="9ebbcc64ba"><g style="fill:#704264;fill-opacity:1;"><g transform="translate(145.569501, 87.749997)"><path style="stroke:none" d="M 16.296875 0.46875 C 13.515625 0.46875 11 -0.132812 8.75 -1.34375 C 6.5 -2.550781 4.726562 -4.226562 3.4375 -6.375 C 2.15625 -8.519531 1.515625 -10.945312 1.515625 -13.65625 C 1.515625 -16.351562 2.15625 -18.773438 3.4375 -20.921875 C 4.726562 -23.066406 6.5 -24.742188 8.75 -25.953125 C 11 -27.160156 13.53125 -27.765625 16.34375 -27.765625 C 18.707031 -27.765625 20.84375 -27.347656 22.75 -26.515625 C 24.664062 -25.679688 26.273438 -24.488281 27.578125 -22.9375 L 23.515625 -19.1875 C 21.671875 -21.320312 19.382812 -22.390625 16.65625 -22.390625 C 14.96875 -22.390625 13.457031 -22.015625 12.125 -21.265625 C 10.800781 -20.523438 9.769531 -19.492188 9.03125 -18.171875 C 8.289062 -16.847656 7.921875 -15.34375 7.921875 -13.65625 C 7.921875 -11.957031 8.289062 -10.445312 9.03125 -9.125 C 9.769531 -7.800781 10.800781 -6.765625 12.125 -6.015625 C 13.457031 -5.273438 14.96875 -4.90625 16.65625 -4.90625 C 19.382812 -4.90625 21.671875 -5.988281 23.515625 -8.15625 L 27.578125 -4.40625 C 26.273438 -2.820312 24.660156 -1.613281 22.734375 -0.78125 C 20.804688 0.0507812 18.660156 0.46875 16.296875 0.46875 Z M 16.296875 0.46875 "/></g></g><g style="fill:#704264;fill-opacity:1;"><g transform="translate(173.103526, 87.749997)"><path style="stroke:none" d="M 2.8125 -28.9375 L 8.890625 -28.9375 L 8.890625 0 L 2.8125 0 Z M 2.8125 -28.9375 "/></g></g><g style="fill:#704264;fill-opacity:1;"><g transform="translate(183.789538, 87.749997)"><path style="stroke:none" d="M 11.265625 -21.296875 C 14.515625 -21.296875 17.007812 -20.519531 18.75 -18.96875 C 20.5 -17.425781 21.375 -15.09375 21.375 -11.96875 L 21.375 0 L 15.671875 0 L 15.671875 -2.609375 C 14.535156 -0.660156 12.40625 0.3125 9.28125 0.3125 C 7.664062 0.3125 6.265625 0.0390625 5.078125 -0.5 C 3.898438 -1.050781 3 -1.804688 2.375 -2.765625 C 1.75 -3.734375 1.4375 -4.828125 1.4375 -6.046875 C 1.4375 -7.992188 2.171875 -9.523438 3.640625 -10.640625 C 5.109375 -11.765625 7.378906 -12.328125 10.453125 -12.328125 L 15.28125 -12.328125 C 15.28125 -13.648438 14.878906 -14.664062 14.078125 -15.375 C 13.273438 -16.09375 12.066406 -16.453125 10.453125 -16.453125 C 9.335938 -16.453125 8.238281 -16.273438 7.15625 -15.921875 C 6.070312 -15.578125 5.15625 -15.109375 4.40625 -14.515625 L 2.21875 -18.765625 C 3.363281 -19.566406 4.734375 -20.1875 6.328125 -20.625 C 7.929688 -21.070312 9.578125 -21.296875 11.265625 -21.296875 Z M 10.796875 -3.78125 C 11.835938 -3.78125 12.757812 -4.019531 13.5625 -4.5 C 14.375 -4.976562 14.945312 -5.6875 15.28125 -6.625 L 15.28125 -8.78125 L 11.109375 -8.78125 C 8.617188 -8.78125 7.375 -7.957031 7.375 -6.3125 C 7.375 -5.53125 7.675781 -4.910156 8.28125 -4.453125 C 8.894531 -4.003906 9.734375 -3.78125 10.796875 -3.78125 Z M 10.796875 -3.78125 "/></g></g><g style="fill:#704264;fill-opacity:1;"><g transform="translate(206.799565, 87.749997)"><path style="stroke:none" d="M 9.859375 0.3125 C 8.117188 0.3125 6.414062 0.0976562 4.75 -0.328125 C 3.09375 -0.753906 1.769531 -1.296875 0.78125 -1.953125 L 2.8125 -6.3125 C 3.75 -5.71875 4.878906 -5.234375 6.203125 -4.859375 C 7.523438 -4.484375 8.820312 -4.296875 10.09375 -4.296875 C 12.675781 -4.296875 13.96875 -4.929688 13.96875 -6.203125 C 13.96875 -6.796875 13.613281 -7.222656 12.90625 -7.484375 C 12.207031 -7.742188 11.128906 -7.96875 9.671875 -8.15625 C 7.953125 -8.414062 6.535156 -8.710938 5.421875 -9.046875 C 4.304688 -9.390625 3.335938 -9.988281 2.515625 -10.84375 C 1.691406 -11.695312 1.28125 -12.921875 1.28125 -14.515625 C 1.28125 -15.835938 1.664062 -17.007812 2.4375 -18.03125 C 3.207031 -19.0625 4.328125 -19.863281 5.796875 -20.4375 C 7.265625 -21.007812 9 -21.296875 11 -21.296875 C 12.476562 -21.296875 13.953125 -21.128906 15.421875 -20.796875 C 16.890625 -20.472656 18.109375 -20.03125 19.078125 -19.46875 L 17.046875 -15.125 C 15.203125 -16.164062 13.1875 -16.6875 11 -16.6875 C 9.695312 -16.6875 8.71875 -16.503906 8.0625 -16.140625 C 7.414062 -15.773438 7.09375 -15.304688 7.09375 -14.734375 C 7.09375 -14.085938 7.441406 -13.632812 8.140625 -13.375 C 8.847656 -13.113281 9.96875 -12.867188 11.5 -12.640625 C 13.21875 -12.347656 14.625 -12.039062 15.71875 -11.71875 C 16.8125 -11.394531 17.757812 -10.800781 18.5625 -9.9375 C 19.363281 -9.082031 19.765625 -7.890625 19.765625 -6.359375 C 19.765625 -5.054688 19.375 -3.894531 18.59375 -2.875 C 17.820312 -1.863281 16.6875 -1.078125 15.1875 -0.515625 C 13.695312 0.0351562 11.921875 0.3125 9.859375 0.3125 Z M 9.859375 0.3125 "/></g></g><g style="fill:#704264;fill-opacity:1;"><g transform="translate(226.455593, 87.749997)"><path style="stroke:none" d="M 9.859375 0.3125 C 8.117188 0.3125 6.414062 0.0976562 4.75 -0.328125 C 3.09375 -0.753906 1.769531 -1.296875 0.78125 -1.953125 L 2.8125 -6.3125 C 3.75 -5.71875 4.878906 -5.234375 6.203125 -4.859375 C 7.523438 -4.484375 8.820312 -4.296875 10.09375 -4.296875 C 12.675781 -4.296875 13.96875 -4.929688 13.96875 -6.203125 C 13.96875 -6.796875 13.613281 -7.222656 12.90625 -7.484375 C 12.207031 -7.742188 11.128906 -7.96875 9.671875 -8.15625 C 7.953125 -8.414062 6.535156 -8.710938 5.421875 -9.046875 C 4.304688 -9.390625 3.335938 -9.988281 2.515625 -10.84375 C 1.691406 -11.695312 1.28125 -12.921875 1.28125 -14.515625 C 1.28125 -15.835938 1.664062 -17.007812 2.4375 -18.03125 C 3.207031 -19.0625 4.328125 -19.863281 5.796875 -20.4375 C 7.265625 -21.007812 9 -21.296875 11 -21.296875 C 12.476562 -21.296875 13.953125 -21.128906 15.421875 -20.796875 C 16.890625 -20.472656 18.109375 -20.03125 19.078125 -19.46875 L 17.046875 -15.125 C 15.203125 -16.164062 13.1875 -16.6875 11 -16.6875 C 9.695312 -16.6875 8.71875 -16.503906 8.0625 -16.140625 C 7.414062 -15.773438 7.09375 -15.304688 7.09375 -14.734375 C 7.09375 -14.085938 7.441406 -13.632812 8.140625 -13.375 C 8.847656 -13.113281 9.96875 -12.867188 11.5 -12.640625 C 13.21875 -12.347656 14.625 -12.039062 15.71875 -11.71875 C 16.8125 -11.394531 17.757812 -10.800781 18.5625 -9.9375 C 19.363281 -9.082031 19.765625 -7.890625 19.765625 -6.359375 C 19.765625 -5.054688 19.375 -3.894531 18.59375 -2.875 C 17.820312 -1.863281 16.6875 -1.078125 15.1875 -0.515625 C 13.695312 0.0351562 11.921875 0.3125 9.859375 0.3125 Z M 9.859375 0.3125 "/></g></g><g style="fill:#704264;fill-opacity:1;"><g transform="translate(246.11637, 87.749997)"><path style="stroke:none" d="M 23.28125 -14.203125 C 24.84375 -13.703125 26.066406 -12.875 26.953125 -11.71875 C 27.835938 -10.5625 28.28125 -9.140625 28.28125 -7.453125 C 28.28125 -5.054688 27.347656 -3.210938 25.484375 -1.921875 C 23.628906 -0.640625 20.921875 0 17.359375 0 L 3.234375 0 L 3.234375 -27.296875 L 16.578125 -27.296875 C 19.898438 -27.296875 22.453125 -26.660156 24.234375 -25.390625 C 26.015625 -24.117188 26.90625 -22.390625 26.90625 -20.203125 C 26.90625 -18.878906 26.585938 -17.695312 25.953125 -16.65625 C 25.316406 -15.613281 24.425781 -14.796875 23.28125 -14.203125 Z M 9.515625 -22.546875 L 9.515625 -16.109375 L 15.796875 -16.109375 C 17.359375 -16.109375 18.539062 -16.378906 19.34375 -16.921875 C 20.144531 -17.472656 20.546875 -18.28125 20.546875 -19.34375 C 20.546875 -20.40625 20.144531 -21.203125 19.34375 -21.734375 C 18.539062 -22.273438 17.359375 -22.546875 15.796875 -22.546875 Z M 16.890625 -4.765625 C 18.554688 -4.765625 19.8125 -5.035156 20.65625 -5.578125 C 21.5 -6.117188 21.921875 -6.960938 21.921875 -8.109375 C 21.921875 -10.367188 20.242188 -11.5 16.890625 -11.5 L 9.515625 -11.5 L 9.515625 -4.765625 Z M 16.890625 -4.765625 "/></g></g><g style="fill:#704264;fill-opacity:1;"><g transform="translate(274.898397, 87.749997)"><path style="stroke:none" d="M 2.8125 -28.9375 L 8.890625 -28.9375 L 8.890625 0 L 2.8125 0 Z M 2.8125 -28.9375 "/></g></g><g style="fill:#704264;fill-opacity:1;"><g transform="translate(285.584409, 87.749997)"><path style="stroke:none" d="M 23.359375 -10.40625 C 23.359375 -10.332031 23.320312 -9.789062 23.25 -8.78125 L 7.375 -8.78125 C 7.65625 -7.476562 8.328125 -6.445312 9.390625 -5.6875 C 10.460938 -4.9375 11.789062 -4.5625 13.375 -4.5625 C 14.46875 -4.5625 15.4375 -4.722656 16.28125 -5.046875 C 17.125 -5.367188 17.910156 -5.882812 18.640625 -6.59375 L 21.875 -3.078125 C 19.90625 -0.816406 17.019531 0.3125 13.21875 0.3125 C 10.851562 0.3125 8.757812 -0.144531 6.9375 -1.0625 C 5.125 -1.988281 3.722656 -3.269531 2.734375 -4.90625 C 1.742188 -6.550781 1.25 -8.410156 1.25 -10.484375 C 1.25 -12.546875 1.734375 -14.398438 2.703125 -16.046875 C 3.679688 -17.703125 5.019531 -18.988281 6.71875 -19.90625 C 8.425781 -20.832031 10.332031 -21.296875 12.4375 -21.296875 C 14.488281 -21.296875 16.347656 -20.851562 18.015625 -19.96875 C 19.679688 -19.082031 20.988281 -17.8125 21.9375 -16.15625 C 22.882812 -14.507812 23.359375 -12.59375 23.359375 -10.40625 Z M 12.484375 -16.6875 C 11.097656 -16.6875 9.9375 -16.296875 9 -15.515625 C 8.070312 -14.742188 7.503906 -13.679688 7.296875 -12.328125 L 17.625 -12.328125 C 17.414062 -13.648438 16.84375 -14.707031 15.90625 -15.5 C 14.976562 -16.289062 13.835938 -16.6875 12.484375 -16.6875 Z M 12.484375 -16.6875 "/></g></g><g style="fill:#704264;fill-opacity:1;"><g transform="translate(309.140434, 87.749997)"><path style="stroke:none" d="M 15.5625 -21.296875 C 18.164062 -21.296875 20.265625 -20.515625 21.859375 -18.953125 C 23.460938 -17.390625 24.265625 -15.078125 24.265625 -12.015625 L 24.265625 0 L 18.171875 0 L 18.171875 -11.078125 C 18.171875 -12.742188 17.804688 -13.984375 17.078125 -14.796875 C 16.347656 -15.617188 15.296875 -16.03125 13.921875 -16.03125 C 12.390625 -16.03125 11.164062 -15.554688 10.25 -14.609375 C 9.34375 -13.660156 8.890625 -12.25 8.890625 -10.375 L 8.890625 0 L 2.8125 0 L 2.8125 -20.984375 L 8.625 -20.984375 L 8.625 -18.53125 C 9.425781 -19.40625 10.425781 -20.082031 11.625 -20.5625 C 12.820312 -21.050781 14.132812 -21.296875 15.5625 -21.296875 Z M 15.5625 -21.296875 "/></g></g><g style="fill:#704264;fill-opacity:1;"><g transform="translate(335.270464, 87.749997)"><path style="stroke:none" d="M 24.1875 -28.9375 L 24.1875 0 L 18.375 0 L 18.375 -2.421875 C 16.863281 -0.597656 14.675781 0.3125 11.8125 0.3125 C 9.84375 0.3125 8.054688 -0.128906 6.453125 -1.015625 C 4.859375 -1.898438 3.601562 -3.160156 2.6875 -4.796875 C 1.78125 -6.429688 1.328125 -8.328125 1.328125 -10.484375 C 1.328125 -12.648438 1.78125 -14.550781 2.6875 -16.1875 C 3.601562 -17.820312 4.859375 -19.082031 6.453125 -19.96875 C 8.054688 -20.851562 9.84375 -21.296875 11.8125 -21.296875 C 14.488281 -21.296875 16.582031 -20.453125 18.09375 -18.765625 L 18.09375 -28.9375 Z M 12.875 -4.6875 C 14.40625 -4.6875 15.675781 -5.210938 16.6875 -6.265625 C 17.707031 -7.316406 18.21875 -8.722656 18.21875 -10.484375 C 18.21875 -12.253906 17.707031 -13.664062 16.6875 -14.71875 C 15.675781 -15.769531 14.40625 -16.296875 12.875 -16.296875 C 11.3125 -16.296875 10.019531 -15.769531 9 -14.71875 C 7.988281 -13.664062 7.484375 -12.253906 7.484375 -10.484375 C 7.484375 -8.722656 7.988281 -7.316406 9 -6.265625 C 10.019531 -5.210938 11.3125 -4.6875 12.875 -4.6875 Z M 12.875 -4.6875 "/></g></g><g clip-rule="nonzero" clip-path="url(#949c1a92ba)"><g clip-rule="nonzero" clip-path="url(#fe337aba75)"><g transform="matrix(1,0,0,1,15,32)"><g clip-path="url(#084e042b4a)"><g clip-rule="nonzero" clip-path="url(#01916cc32f)"><g clip-rule="nonzero" clip-path="url(#b68e4c99a7)"><path style=" stroke:none;fill-rule:nonzero;fill:#704264;fill-opacity:1;" d="M 0.929688 0.695312 L 85.539062 0.695312 L 85.539062 85.304688 L 0.929688 85.304688 Z M 0.929688 0.695312 "/></g></g></g></g></g></g><g mask="url(#1c2edb268c)" transform="matrix(1,0,0,1,58,32)"><g clip-path="url(#9bb9847e69)"><g clip-rule="nonzero" clip-path="url(#2db6d972a2)"><g clip-rule="nonzero" clip-path="url(#7286899558)"><g transform="matrix(1,0,0,1,0,-0.000000000000007105)"><g id="634b726eee" clip-path="url(#cec6ef6297)"><g clip-rule="nonzero" clip-path="url(#16edfcacc9)"><g clip-rule="nonzero" clip-path="url(#306fe735e8)"><path style=" stroke:none;fill-rule:nonzero;fill:#7fb7be;fill-opacity:1;" d="M 0.234375 0.695312 L 84.839844 0.695312 L 84.839844 85.304688 L 0.234375 85.304688 Z M 0.234375 0.695312 "/></g></g></g></g></g></g></g><mask id="1c2edb268c"><g filter="url(#5b68a36d52)"><rect x="0" width="375" y="0" height="149.999998" style="fill:#000000;fill-opacity:0.71;stroke:none;"/></g></mask></g></g></svg>