<svg xmlns="http://www.w3.org/2000/svg" xmlns:xlink="http://www.w3.org/1999/xlink" width="500" zoomAndPan="magnify" viewBox="0 0 375 149.999998" height="200" preserveAspectRatio="xMidYMid meet" version="1.2"><defs><clipPath id="6c1f2663ca"><path d="M 15.929688 32.695312 L 100.539062 32.695312 L 100.539062 117.304688 L 15.929688 117.304688 Z M 15.929688 32.695312 "/></clipPath><clipPath id="7e2eaea695"><path d="M 58.234375 32.695312 C 34.871094 32.695312 15.929688 51.636719 15.929688 75 C 15.929688 98.363281 34.871094 117.304688 58.234375 117.304688 C 81.597656 117.304688 100.539062 98.363281 100.539062 75 C 100.539062 51.636719 81.597656 32.695312 58.234375 32.695312 Z M 58.234375 32.695312 "/></clipPath><filter x="0%" y="0%" width="100%" filterUnits="objectBoundingBox" id="09ae5692c2" height="100%"><feColorMatrix values="0 0 0 0 1 0 0 0 0 1 0 0 0 0 1 0 0 0 1 0" type="matrix" in="SourceGraphic"/></filter><clipPath id="97d15ca3e2"><path d="M 0.234375 0.695312 L 84.839844 0.695312 L 84.839844 85.304688 L 0.234375 85.304688 Z M 0.234375 0.695312 "/></clipPath><clipPath id="caec5eb784"><path d="M 42.539062 0.695312 C 19.175781 0.695312 0.234375 19.636719 0.234375 43 C 0.234375 66.363281 19.175781 85.304688 42.539062 85.304688 C 65.902344 85.304688 84.839844 66.363281 84.839844 43 C 84.839844 19.636719 65.902344 0.695312 42.539062 0.695312 Z M 42.539062 0.695312 "/></clipPath><clipPath id="c9d1a74b9b"><rect x="0" width="86" y="0" height="86"/></clipPath></defs><g id="abe72b2210"><g style="fill:#704264;fill-opacity:1;"><g transform="translate(147.86746, 88.927794)"><path style="stroke:none" d="M 17.4375 0.5 C 14.457031 0.5 11.765625 -0.144531 9.359375 -1.4375 C 6.953125 -2.726562 5.0625 -4.519531 3.6875 -6.8125 C 2.3125 -9.113281 1.625 -11.707031 1.625 -14.59375 C 1.625 -17.488281 2.3125 -20.082031 3.6875 -22.375 C 5.0625 -24.675781 6.953125 -26.472656 9.359375 -27.765625 C 11.765625 -29.054688 14.472656 -29.703125 17.484375 -29.703125 C 20.015625 -29.703125 22.300781 -29.253906 24.34375 -28.359375 C 26.382812 -27.472656 28.101562 -26.195312 29.5 -24.53125 L 25.15625 -20.53125 C 23.175781 -22.8125 20.726562 -23.953125 17.8125 -23.953125 C 16.007812 -23.953125 14.394531 -23.550781 12.96875 -22.75 C 11.550781 -21.957031 10.445312 -20.851562 9.65625 -19.4375 C 8.863281 -18.019531 8.46875 -16.40625 8.46875 -14.59375 C 8.46875 -12.789062 8.863281 -11.179688 9.65625 -9.765625 C 10.445312 -8.347656 11.550781 -7.238281 12.96875 -6.4375 C 14.394531 -5.644531 16.007812 -5.25 17.8125 -5.25 C 20.726562 -5.25 23.175781 -6.40625 25.15625 -8.71875 L 29.5 -4.71875 C 28.101562 -3.019531 26.375 -1.722656 24.3125 -0.828125 C 22.257812 0.0546875 19.96875 0.5 17.4375 0.5 Z M 17.4375 0.5 "/></g></g><g style="fill:#704264;fill-opacity:1;"><g transform="translate(177.313513, 88.927794)"><path style="stroke:none" d="M 3 -30.953125 L 9.515625 -30.953125 L 9.515625 0 L 3 0 Z M 3 -30.953125 "/></g></g><g style="fill:#704264;fill-opacity:1;"><g transform="translate(188.741347, 88.927794)"><path style="stroke:none" d="M 12.0625 -22.78125 C 15.53125 -22.78125 18.195312 -21.953125 20.0625 -20.296875 C 21.925781 -18.640625 22.859375 -16.144531 22.859375 -12.8125 L 22.859375 0 L 16.765625 0 L 16.765625 -2.796875 C 15.546875 -0.710938 13.265625 0.328125 9.921875 0.328125 C 8.203125 0.328125 6.707031 0.0351562 5.4375 -0.546875 C 4.175781 -1.128906 3.210938 -1.929688 2.546875 -2.953125 C 1.878906 -3.984375 1.546875 -5.15625 1.546875 -6.46875 C 1.546875 -8.550781 2.328125 -10.191406 3.890625 -11.390625 C 5.460938 -12.585938 7.894531 -13.1875 11.1875 -13.1875 L 16.359375 -13.1875 C 16.359375 -14.601562 15.925781 -15.691406 15.0625 -16.453125 C 14.195312 -17.222656 12.90625 -17.609375 11.1875 -17.609375 C 9.988281 -17.609375 8.8125 -17.421875 7.65625 -17.046875 C 6.5 -16.671875 5.519531 -16.160156 4.71875 -15.515625 L 2.375 -20.0625 C 3.601562 -20.925781 5.070312 -21.59375 6.78125 -22.0625 C 8.488281 -22.539062 10.25 -22.78125 12.0625 -22.78125 Z M 11.5625 -4.046875 C 12.664062 -4.046875 13.648438 -4.300781 14.515625 -4.8125 C 15.378906 -5.332031 15.992188 -6.09375 16.359375 -7.09375 L 16.359375 -9.390625 L 11.890625 -9.390625 C 9.222656 -9.390625 7.890625 -8.515625 7.890625 -6.765625 C 7.890625 -5.921875 8.210938 -5.253906 8.859375 -4.765625 C 9.515625 -4.285156 10.414062 -4.046875 11.5625 -4.046875 Z M 11.5625 -4.046875 "/></g></g><g style="fill:#704264;fill-opacity:1;"><g transform="translate(213.349174, 88.927794)"><path style="stroke:none" d="M 10.5625 0.328125 C 8.695312 0.328125 6.875 0.0976562 5.09375 -0.359375 C 3.3125 -0.816406 1.890625 -1.390625 0.828125 -2.078125 L 3 -6.765625 C 4 -6.117188 5.207031 -5.59375 6.625 -5.1875 C 8.050781 -4.789062 9.445312 -4.59375 10.8125 -4.59375 C 13.5625 -4.59375 14.9375 -5.273438 14.9375 -6.640625 C 14.9375 -7.273438 14.5625 -7.726562 13.8125 -8 C 13.0625 -8.28125 11.90625 -8.519531 10.34375 -8.71875 C 8.507812 -9 6.992188 -9.316406 5.796875 -9.671875 C 4.597656 -10.035156 3.5625 -10.675781 2.6875 -11.59375 C 1.8125 -12.507812 1.375 -13.816406 1.375 -15.515625 C 1.375 -16.929688 1.785156 -18.1875 2.609375 -19.28125 C 3.429688 -20.382812 4.625 -21.242188 6.1875 -21.859375 C 7.757812 -22.472656 9.617188 -22.78125 11.765625 -22.78125 C 13.347656 -22.78125 14.925781 -22.601562 16.5 -22.25 C 18.070312 -21.90625 19.375 -21.425781 20.40625 -20.8125 L 18.234375 -16.1875 C 16.253906 -17.300781 14.097656 -17.859375 11.765625 -17.859375 C 10.367188 -17.859375 9.320312 -17.660156 8.625 -17.265625 C 7.9375 -16.878906 7.59375 -16.378906 7.59375 -15.765625 C 7.59375 -15.078125 7.96875 -14.59375 8.71875 -14.3125 C 9.46875 -14.03125 10.664062 -13.765625 12.3125 -13.515625 C 14.144531 -13.210938 15.644531 -12.882812 16.8125 -12.53125 C 17.976562 -12.1875 18.992188 -11.554688 19.859375 -10.640625 C 20.722656 -9.722656 21.15625 -8.441406 21.15625 -6.796875 C 21.15625 -5.410156 20.734375 -4.171875 19.890625 -3.078125 C 19.054688 -1.992188 17.835938 -1.15625 16.234375 -0.5625 C 14.640625 0.03125 12.75 0.328125 10.5625 0.328125 Z M 10.5625 0.328125 "/></g></g><g style="fill:#704264;fill-opacity:1;"><g transform="translate(234.370041, 88.927794)"><path style="stroke:none" d="M 10.5625 0.328125 C 8.695312 0.328125 6.875 0.0976562 5.09375 -0.359375 C 3.3125 -0.816406 1.890625 -1.390625 0.828125 -2.078125 L 3 -6.765625 C 4 -6.117188 5.207031 -5.59375 6.625 -5.1875 C 8.050781 -4.789062 9.445312 -4.59375 10.8125 -4.59375 C 13.5625 -4.59375 14.9375 -5.273438 14.9375 -6.640625 C 14.9375 -7.273438 14.5625 -7.726562 13.8125 -8 C 13.0625 -8.28125 11.90625 -8.519531 10.34375 -8.71875 C 8.507812 -9 6.992188 -9.316406 5.796875 -9.671875 C 4.597656 -10.035156 3.5625 -10.675781 2.6875 -11.59375 C 1.8125 -12.507812 1.375 -13.816406 1.375 -15.515625 C 1.375 -16.929688 1.785156 -18.1875 2.609375 -19.28125 C 3.429688 -20.382812 4.625 -21.242188 6.1875 -21.859375 C 7.757812 -22.472656 9.617188 -22.78125 11.765625 -22.78125 C 13.347656 -22.78125 14.925781 -22.601562 16.5 -22.25 C 18.070312 -21.90625 19.375 -21.425781 20.40625 -20.8125 L 18.234375 -16.1875 C 16.253906 -17.300781 14.097656 -17.859375 11.765625 -17.859375 C 10.367188 -17.859375 9.320312 -17.660156 8.625 -17.265625 C 7.9375 -16.878906 7.59375 -16.378906 7.59375 -15.765625 C 7.59375 -15.078125 7.96875 -14.59375 8.71875 -14.3125 C 9.46875 -14.03125 10.664062 -13.765625 12.3125 -13.515625 C 14.144531 -13.210938 15.644531 -12.882812 16.8125 -12.53125 C 17.976562 -12.1875 18.992188 -11.554688 19.859375 -10.640625 C 20.722656 -9.722656 21.15625 -8.441406 21.15625 -6.796875 C 21.15625 -5.410156 20.734375 -4.171875 19.890625 -3.078125 C 19.054688 -1.992188 17.835938 -1.15625 16.234375 -0.5625 C 14.640625 0.03125 12.75 0.328125 10.5625 0.328125 Z M 10.5625 0.328125 "/></g></g><g style="fill:#704264;fill-opacity:1;"><g transform="translate(255.397552, 88.927794)"><path style="stroke:none" d="M 17.4375 0.5 C 14.457031 0.5 11.765625 -0.144531 9.359375 -1.4375 C 6.953125 -2.726562 5.0625 -4.519531 3.6875 -6.8125 C 2.3125 -9.113281 1.625 -11.707031 1.625 -14.59375 C 1.625 -17.488281 2.3125 -20.082031 3.6875 -22.375 C 5.0625 -24.675781 6.953125 -26.472656 9.359375 -27.765625 C 11.765625 -29.054688 14.472656 -29.703125 17.484375 -29.703125 C 20.015625 -29.703125 22.300781 -29.253906 24.34375 -28.359375 C 26.382812 -27.472656 28.101562 -26.195312 29.5 -24.53125 L 25.15625 -20.53125 C 23.175781 -22.8125 20.726562 -23.953125 17.8125 -23.953125 C 16.007812 -23.953125 14.394531 -23.550781 12.96875 -22.75 C 11.550781 -21.957031 10.445312 -20.851562 9.65625 -19.4375 C 8.863281 -18.019531 8.46875 -16.40625 8.46875 -14.59375 C 8.46875 -12.789062 8.863281 -11.179688 9.65625 -9.765625 C 10.445312 -8.347656 11.550781 -7.238281 12.96875 -6.4375 C 14.394531 -5.644531 16.007812 -5.25 17.8125 -5.25 C 20.726562 -5.25 23.175781 -6.40625 25.15625 -8.71875 L 29.5 -4.71875 C 28.101562 -3.019531 26.375 -1.722656 24.3125 -0.828125 C 22.257812 0.0546875 19.96875 0.5 17.4375 0.5 Z M 17.4375 0.5 "/></g></g><g style="fill:#704264;fill-opacity:1;"><g transform="translate(284.843605, 88.927794)"><path style="stroke:none" d="M 9.21875 -19.484375 C 10 -20.566406 11.046875 -21.382812 12.359375 -21.9375 C 13.679688 -22.5 15.207031 -22.78125 16.9375 -22.78125 L 16.9375 -16.765625 C 16.21875 -16.828125 15.734375 -16.859375 15.484375 -16.859375 C 13.617188 -16.859375 12.15625 -16.332031 11.09375 -15.28125 C 10.039062 -14.238281 9.515625 -12.675781 9.515625 -10.59375 L 9.515625 0 L 3 0 L 3 -22.4375 L 9.21875 -22.4375 Z M 9.21875 -19.484375 "/></g></g><g style="fill:#704264;fill-opacity:1;"><g transform="translate(301.401547, 88.927794)"><path style="stroke:none" d="M 12.0625 -22.78125 C 15.53125 -22.78125 18.195312 -21.953125 20.0625 -20.296875 C 21.925781 -18.640625 22.859375 -16.144531 22.859375 -12.8125 L 22.859375 0 L 16.765625 0 L 16.765625 -2.796875 C 15.546875 -0.710938 13.265625 0.328125 9.921875 0.328125 C 8.203125 0.328125 6.707031 0.0351562 5.4375 -0.546875 C 4.175781 -1.128906 3.210938 -1.929688 2.546875 -2.953125 C 1.878906 -3.984375 1.546875 -5.15625 1.546875 -6.46875 C 1.546875 -8.550781 2.328125 -10.191406 3.890625 -11.390625 C 5.460938 -12.585938 7.894531 -13.1875 11.1875 -13.1875 L 16.359375 -13.1875 C 16.359375 -14.601562 15.925781 -15.691406 15.0625 -16.453125 C 14.195312 -17.222656 12.90625 -17.609375 11.1875 -17.609375 C 9.988281 -17.609375 8.8125 -17.421875 7.65625 -17.046875 C 6.5 -16.671875 5.519531 -16.160156 4.71875 -15.515625 L 2.375 -20.0625 C 3.601562 -20.925781 5.070312 -21.59375 6.78125 -22.0625 C 8.488281 -22.539062 10.25 -22.78125 12.0625 -22.78125 Z M 11.5625 -4.046875 C 12.664062 -4.046875 13.648438 -4.300781 14.515625 -4.8125 C 15.378906 -5.332031 15.992188 -6.09375 16.359375 -7.09375 L 16.359375 -9.390625 L 11.890625 -9.390625 C 9.222656 -9.390625 7.890625 -8.515625 7.890625 -6.765625 C 7.890625 -5.921875 8.210938 -5.253906 8.859375 -4.765625 C 9.515625 -4.285156 10.414062 -4.046875 11.5625 -4.046875 Z M 11.5625 -4.046875 "/></g></g><g style="fill:#704264;fill-opacity:1;"><g transform="translate(326.009375, 88.927794)"><path style="stroke:none" d="M 10.140625 -21.9375 L 15.890625 -21.9375 L 15.890625 -16.9375 L 10.296875 -16.9375 L 10.296875 0 L 3.796875 0 L 3.796875 -16.9375 L 0.328125 -16.9375 L 0.328125 -21.9375 L 3.796875 -21.9375 L 3.796875 -22.9375 C 3.796875 -25.5 4.550781 -27.53125 6.0625 -29.03125 C 7.582031 -30.53125 9.71875 -31.28125 12.46875 -31.28125 C 13.445312 -31.28125 14.375 -31.175781 15.25 -30.96875 C 16.125 -30.757812 16.851562 -30.460938 17.4375 -30.078125 L 15.734375 -25.359375 C 14.972656 -25.890625 14.09375 -26.15625 13.09375 -26.15625 C 11.125 -26.15625 10.140625 -25.070312 10.140625 -22.90625 Z M 10.140625 -21.9375 "/></g></g><g style="fill:#704264;fill-opacity:1;"><g transform="translate(341.024169, 88.927794)"><path style="stroke:none" d="M 17.484375 -1.078125 C 16.835938 -0.609375 16.046875 -0.253906 15.109375 -0.015625 C 14.179688 0.210938 13.207031 0.328125 12.1875 0.328125 C 9.507812 0.328125 7.441406 -0.347656 5.984375 -1.703125 C 4.523438 -3.066406 3.796875 -5.070312 3.796875 -7.71875 L 3.796875 -16.9375 L 0.328125 -16.9375 L 0.328125 -21.9375 L 3.796875 -21.9375 L 3.796875 -27.40625 L 10.296875 -27.40625 L 10.296875 -21.9375 L 15.890625 -21.9375 L 15.890625 -16.9375 L 10.296875 -16.9375 L 10.296875 -7.796875 C 10.296875 -6.859375 10.539062 -6.128906 11.03125 -5.609375 C 11.519531 -5.097656 12.207031 -4.84375 13.09375 -4.84375 C 14.125 -4.84375 15.003906 -5.117188 15.734375 -5.671875 Z M 17.484375 -1.078125 "/></g></g><g clip-rule="nonzero" clip-path="url(#6c1f2663ca)"><g clip-rule="nonzero" clip-path="url(#7e2eaea695)"><path style=" stroke:none;fill-rule:nonzero;fill:#704264;fill-opacity:1;" d="M 15.929688 32.695312 L 100.539062 32.695312 L 100.539062 117.304688 L 15.929688 117.304688 Z M 15.929688 32.695312 "/></g></g><g mask="url(#d36f700088)" transform="matrix(1,0,0,1,58,32)"><g clip-path="url(#c9d1a74b9b)"><g clip-rule="nonzero" clip-path="url(#97d15ca3e2)"><g clip-rule="nonzero" clip-path="url(#caec5eb784)"><path style=" stroke:none;fill-rule:nonzero;fill:#7fb7be;fill-opacity:1;" d="M 0.234375 0.695312 L 84.839844 0.695312 L 84.839844 85.304688 L 0.234375 85.304688 Z M 0.234375 0.695312 "/></g></g></g><mask id="d36f700088"><g filter="url(#09ae5692c2)"><rect x="0" width="375" y="0" height="149.999998" style="fill:#000000;fill-opacity:0.71;stroke:none;"/></g></mask></g></g></svg>
