<svg xmlns="http://www.w3.org/2000/svg" xmlns:xlink="http://www.w3.org/1999/xlink" width="500" zoomAndPan="magnify" viewBox="0 0 375 149.999998" height="200" preserveAspectRatio="xMidYMid meet" version="1.2"><defs><clipPath id="ff3890e587"><path d="M 8.066406 34.160156 L 35.746094 34.160156 L 35.746094 61.839844 L 8.066406 61.839844 Z M 8.066406 34.160156 "/></clipPath><clipPath id="4c8d3acf1f"><path d="M 9.519531 34.160156 L 34.292969 34.160156 C 34.679688 34.160156 35.046875 34.3125 35.320312 34.585938 C 35.59375 34.859375 35.746094 35.226562 35.746094 35.613281 L 35.746094 60.386719 C 35.746094 60.773438 35.59375 61.140625 35.320312 61.414062 C 35.046875 61.6875 34.679688 61.839844 34.292969 61.839844 L 9.519531 61.839844 C 9.132812 61.839844 8.765625 61.6875 8.492188 61.414062 C 8.21875 61.140625 8.066406 60.773438 8.066406 60.386719 L 8.066406 35.613281 C 8.066406 35.226562 8.21875 34.859375 8.492188 34.585938 C 8.765625 34.3125 9.132812 34.160156 9.519531 34.160156 Z M 9.519531 34.160156 "/></clipPath><clipPath id="2801d97a59"><path d="M 39.792969 34.160156 L 67.472656 34.160156 L 67.472656 61.839844 L 39.792969 61.839844 Z M 39.792969 34.160156 "/></clipPath><clipPath id="5c1c03c2a5"><path d="M 41.246094 34.160156 L 66.019531 34.160156 C 66.40625 34.160156 66.773438 34.3125 67.046875 34.585938 C 67.320312 34.859375 67.472656 35.226562 67.472656 35.613281 L 67.472656 60.386719 C 67.472656 60.773438 67.320312 61.140625 67.046875 61.414062 C 66.773438 61.6875 66.40625 61.839844 66.019531 61.839844 L 41.246094 61.839844 C 40.859375 61.839844 40.492188 61.6875 40.21875 61.414062 C 39.945312 61.140625 39.792969 60.773438 39.792969 60.386719 L 39.792969 35.613281 C 39.792969 35.226562 39.945312 34.859375 40.21875 34.585938 C 40.492188 34.3125 40.859375 34.160156 41.246094 34.160156 Z M 41.246094 34.160156 "/></clipPath><clipPath id="bc136fcd1c"><path d="M 7.941406 65.421875 L 35.625 65.421875 L 35.625 93.105469 L 7.941406 93.105469 Z M 7.941406 65.421875 "/></clipPath><clipPath id="cd2dac584a"><path d="M 9.398438 65.421875 L 34.171875 65.421875 C 34.554688 65.421875 34.925781 65.578125 35.199219 65.847656 C 35.472656 66.121094 35.625 66.492188 35.625 66.878906 L 35.625 91.652344 C 35.625 92.035156 35.472656 92.40625 35.199219 92.679688 C 34.925781 92.953125 34.554688 93.105469 34.171875 93.105469 L 9.398438 93.105469 C 9.011719 93.105469 8.640625 92.953125 8.367188 92.679688 C 8.097656 92.40625 7.941406 92.035156 7.941406 91.652344 L 7.941406 66.878906 C 7.941406 66.492188 8.097656 66.121094 8.367188 65.847656 C 8.640625 65.578125 9.011719 65.421875 9.398438 65.421875 Z M 9.398438 65.421875 "/></clipPath><clipPath id="264041f80e"><path d="M 39.667969 65.421875 L 67.351562 65.421875 L 67.351562 93.105469 L 39.667969 93.105469 Z M 39.667969 65.421875 "/></clipPath><clipPath id="b8eefc0841"><path d="M 41.121094 65.421875 L 65.894531 65.421875 C 66.28125 65.421875 66.652344 65.578125 66.925781 65.847656 C 67.195312 66.121094 67.351562 66.492188 67.351562 66.878906 L 67.351562 91.652344 C 67.351562 92.035156 67.195312 92.40625 66.925781 92.679688 C 66.652344 92.953125 66.28125 93.105469 65.894531 93.105469 L 41.121094 93.105469 C 40.738281 93.105469 40.367188 92.953125 40.09375 92.679688 C 39.820312 92.40625 39.667969 92.035156 39.667969 91.652344 L 39.667969 66.878906 C 39.667969 66.492188 39.820312 66.121094 40.09375 65.847656 C 40.367188 65.578125 40.738281 65.421875 41.121094 65.421875 Z M 41.121094 65.421875 "/></clipPath><clipPath id="fd26d0d94b"><path d="M 71.640625 65.421875 L 99.320312 65.421875 L 99.320312 93.105469 L 71.640625 93.105469 Z M 71.640625 65.421875 "/></clipPath><clipPath id="f24fca22c3"><path d="M 73.09375 65.421875 L 97.867188 65.421875 C 98.253906 65.421875 98.625 65.578125 98.894531 65.847656 C 99.167969 66.121094 99.320312 66.492188 99.320312 66.878906 L 99.320312 91.652344 C 99.320312 92.035156 99.167969 92.40625 98.894531 92.679688 C 98.625 92.953125 98.253906 93.105469 97.867188 93.105469 L 73.09375 93.105469 C 72.710938 93.105469 72.339844 92.953125 72.066406 92.679688 C 71.792969 92.40625 71.640625 92.035156 71.640625 91.652344 L 71.640625 66.878906 C 71.640625 66.492188 71.792969 66.121094 72.066406 65.847656 C 72.339844 65.578125 72.710938 65.421875 73.09375 65.421875 Z M 73.09375 65.421875 "/></clipPath><clipPath id="b6bbe33b12"><path d="M 8.066406 96.539062 L 35.746094 96.539062 L 35.746094 124.21875 L 8.066406 124.21875 Z M 8.066406 96.539062 "/></clipPath><clipPath id="c54f0dcfe7"><path d="M 9.519531 96.539062 L 34.292969 96.539062 C 34.679688 96.539062 35.046875 96.691406 35.320312 96.964844 C 35.59375 97.234375 35.746094 97.605469 35.746094 97.992188 L 35.746094 122.765625 C 35.746094 123.148438 35.59375 123.519531 35.320312 123.792969 C 35.046875 124.066406 34.679688 124.21875 34.292969 124.21875 L 9.519531 124.21875 C 9.132812 124.21875 8.765625 124.066406 8.492188 123.792969 C 8.21875 123.519531 8.066406 123.148438 8.066406 122.765625 L 8.066406 97.992188 C 8.066406 97.605469 8.21875 97.234375 8.492188 96.964844 C 8.765625 96.691406 9.132812 96.539062 9.519531 96.539062 Z M 9.519531 96.539062 "/></clipPath><clipPath id="617cecfa4d"><path d="M 39.792969 96.539062 L 67.472656 96.539062 L 67.472656 124.21875 L 39.792969 124.21875 Z M 39.792969 96.539062 "/></clipPath><clipPath id="88fcedce62"><path d="M 41.246094 96.539062 L 66.019531 96.539062 C 66.40625 96.539062 66.773438 96.691406 67.046875 96.964844 C 67.320312 97.234375 67.472656 97.605469 67.472656 97.992188 L 67.472656 122.765625 C 67.472656 123.148438 67.320312 123.519531 67.046875 123.792969 C 66.773438 124.066406 66.40625 124.21875 66.019531 124.21875 L 41.246094 124.21875 C 40.859375 124.21875 40.492188 124.066406 40.21875 123.792969 C 39.945312 123.519531 39.792969 123.148438 39.792969 122.765625 L 39.792969 97.992188 C 39.792969 97.605469 39.945312 97.234375 40.21875 96.964844 C 40.492188 96.691406 40.859375 96.539062 41.246094 96.539062 Z M 41.246094 96.539062 "/></clipPath><clipPath id="6cd8be80e5"><path d="M 71.765625 96.539062 L 99.445312 96.539062 L 99.445312 124.21875 L 71.765625 124.21875 Z M 71.765625 96.539062 "/></clipPath><clipPath id="c4a2633878"><path d="M 73.21875 96.539062 L 97.992188 96.539062 C 98.375 96.539062 98.746094 96.691406 99.019531 96.964844 C 99.292969 97.234375 99.445312 97.605469 99.445312 97.992188 L 99.445312 122.765625 C 99.445312 123.148438 99.292969 123.519531 99.019531 123.792969 C 98.746094 124.066406 98.375 124.21875 97.992188 124.21875 L 73.21875 124.21875 C 72.832031 124.21875 72.460938 124.066406 72.191406 123.792969 C 71.917969 123.519531 71.765625 123.148438 71.765625 122.765625 L 71.765625 97.992188 C 71.765625 97.605469 71.917969 97.234375 72.191406 96.964844 C 72.460938 96.691406 72.832031 96.539062 73.21875 96.539062 Z M 73.21875 96.539062 "/></clipPath><clipPath id="edb8883eb4"><path d="M 71.222656 33 L 100 33 L 100 61.855469 L 71.222656 61.855469 Z M 71.222656 33 "/></clipPath><clipPath id="57a0abd602"><path d="M 104 34 L 110.035156 34 L 110.035156 37 L 104 37 Z M 104 34 "/></clipPath><clipPath id="f7de29a842"><path d="M 96 22.855469 L 99 22.855469 L 99 29 L 96 29 Z M 96 22.855469 "/></clipPath></defs><g id="139718a5b4"><g clip-rule="nonzero" clip-path="url(#ff3890e587)"><g clip-rule="nonzero" clip-path="url(#4c8d3acf1f)"><path style=" stroke:none;fill-rule:nonzero;fill:#5b8def;fill-opacity:1;" d="M 8.066406 34.160156 L 35.746094 34.160156 L 35.746094 61.839844 L 8.066406 61.839844 Z M 8.066406 34.160156 "/></g></g><g clip-rule="nonzero" clip-path="url(#2801d97a59)"><g clip-rule="nonzero" clip-path="url(#5c1c03c2a5)"><path style=" stroke:none;fill-rule:nonzero;fill:#5b8def;fill-opacity:1;" d="M 39.792969 34.160156 L 67.472656 34.160156 L 67.472656 61.839844 L 39.792969 61.839844 Z M 39.792969 34.160156 "/></g></g><g clip-rule="nonzero" clip-path="url(#bc136fcd1c)"><g clip-rule="nonzero" clip-path="url(#cd2dac584a)"><path style=" stroke:none;fill-rule:nonzero;fill:#5b8def;fill-opacity:1;" d="M 7.941406 65.421875 L 35.625 65.421875 L 35.625 93.105469 L 7.941406 93.105469 Z M 7.941406 65.421875 "/></g></g><g clip-rule="nonzero" clip-path="url(#264041f80e)"><g clip-rule="nonzero" clip-path="url(#b8eefc0841)"><path style=" stroke:none;fill-rule:nonzero;fill:#5b8def;fill-opacity:1;" d="M 39.667969 65.421875 L 67.351562 65.421875 L 67.351562 93.105469 L 39.667969 93.105469 Z M 39.667969 65.421875 "/></g></g><g clip-rule="nonzero" clip-path="url(#fd26d0d94b)"><g clip-rule="nonzero" clip-path="url(#f24fca22c3)"><path style=" stroke:none;fill-rule:nonzero;fill:#5b8def;fill-opacity:1;" d="M 71.640625 65.421875 L 99.320312 65.421875 L 99.320312 93.105469 L 71.640625 93.105469 Z M 71.640625 65.421875 "/></g></g><g clip-rule="nonzero" clip-path="url(#b6bbe33b12)"><g clip-rule="nonzero" clip-path="url(#c54f0dcfe7)"><path style=" stroke:none;fill-rule:nonzero;fill:#5b8def;fill-opacity:1;" d="M 8.066406 96.539062 L 35.746094 96.539062 L 35.746094 124.21875 L 8.066406 124.21875 Z M 8.066406 96.539062 "/></g></g><g clip-rule="nonzero" clip-path="url(#617cecfa4d)"><g clip-rule="nonzero" clip-path="url(#88fcedce62)"><path style=" stroke:none;fill-rule:nonzero;fill:#5b8def;fill-opacity:1;" d="M 39.792969 96.539062 L 67.472656 96.539062 L 67.472656 124.21875 L 39.792969 124.21875 Z M 39.792969 96.539062 "/></g></g><g clip-rule="nonzero" clip-path="url(#6cd8be80e5)"><g clip-rule="nonzero" clip-path="url(#c4a2633878)"><path style=" stroke:none;fill-rule:nonzero;fill:#5b8def;fill-opacity:1;" d="M 71.765625 96.539062 L 99.445312 96.539062 L 99.445312 124.21875 L 71.765625 124.21875 Z M 71.765625 96.539062 "/></g></g><g clip-rule="nonzero" clip-path="url(#edb8883eb4)"><path style=" stroke:none;fill-rule:nonzero;fill:#f6a800;fill-opacity:1;" d="M 71.367188 42.679688 C 71.480469 41.925781 72.007812 41.320312 72.738281 41.101562 L 96.5625 33.953125 C 97.246094 33.746094 97.992188 33.933594 98.5 34.4375 C 99.003906 34.945312 99.195312 35.691406 98.984375 36.378906 L 91.835938 60.207031 C 91.617188 60.9375 91.015625 61.460938 90.257812 61.574219 C 90.160156 61.589844 90.0625 61.59375 89.96875 61.59375 C 89.320312 61.59375 88.71875 61.277344 88.351562 60.722656 L 84.390625 54.75 L 79.292969 59.851562 C 78.152344 60.988281 76.296875 60.988281 75.15625 59.851562 L 73.09375 57.785156 C 72.542969 57.234375 72.234375 56.5 72.234375 55.71875 C 72.234375 54.941406 72.539062 54.207031 73.09375 53.65625 L 78.1875 48.550781 L 72.214844 44.585938 C 71.578125 44.164062 71.257812 43.433594 71.367188 42.679688 Z M 73.292969 42.964844 L 80.257812 47.585938 C 80.5 47.75 80.660156 48.011719 80.683594 48.304688 C 80.714844 48.59375 80.613281 48.882812 80.402344 49.085938 L 74.460938 55.027344 C 74.277344 55.214844 74.175781 55.457031 74.175781 55.714844 C 74.175781 55.972656 74.277344 56.222656 74.460938 56.402344 L 76.527344 58.464844 C 76.90625 58.847656 77.523438 58.847656 77.902344 58.464844 L 83.84375 52.527344 C 84.050781 52.320312 84.34375 52.214844 84.628906 52.242188 C 84.921875 52.273438 85.183594 52.429688 85.34375 52.671875 L 89.96875 59.636719 L 97.121094 35.816406 Z M 73.292969 42.964844 "/></g><path style=" stroke:none;fill-rule:nonzero;fill:#f6a800;fill-opacity:1;" d="M 105.117188 26.441406 C 105.496094 26.0625 106.113281 26.0625 106.496094 26.441406 C 106.875 26.824219 106.875 27.441406 106.496094 27.820312 L 103.738281 30.578125 C 103.546875 30.765625 103.300781 30.863281 103.050781 30.863281 C 102.804688 30.863281 102.554688 30.765625 102.367188 30.578125 C 101.984375 30.199219 101.984375 29.578125 102.367188 29.199219 Z M 105.117188 26.441406 "/><path style=" stroke:none;fill-rule:nonzero;fill:#f6a800;fill-opacity:1;" d="M 92.71875 30.859375 C 92.46875 30.859375 92.222656 30.761719 92.03125 30.574219 L 89.273438 27.816406 C 88.894531 27.4375 88.894531 26.816406 89.273438 26.4375 C 89.65625 26.058594 90.273438 26.058594 90.652344 26.4375 L 93.410156 29.195312 C 93.789062 29.574219 93.789062 30.191406 93.410156 30.574219 C 93.21875 30.765625 92.964844 30.859375 92.71875 30.859375 Z M 92.71875 30.859375 "/><path style=" stroke:none;fill-rule:nonzero;fill:#f6a800;fill-opacity:1;" d="M 103.738281 39.527344 L 106.496094 42.285156 C 106.875 42.664062 106.875 43.28125 106.496094 43.664062 C 106.304688 43.851562 106.058594 43.949219 105.808594 43.949219 C 105.558594 43.949219 105.3125 43.851562 105.121094 43.664062 L 102.367188 40.90625 C 101.984375 40.527344 101.984375 39.90625 102.367188 39.527344 C 102.742188 39.148438 103.359375 39.148438 103.738281 39.527344 Z M 103.738281 39.527344 "/><g clip-rule="nonzero" clip-path="url(#57a0abd602)"><path style=" stroke:none;fill-rule:nonzero;fill:#f6a800;fill-opacity:1;" d="M 104.214844 35.050781 C 104.214844 34.515625 104.652344 34.078125 105.191406 34.078125 L 109.085938 34.078125 C 109.621094 34.078125 110.058594 34.515625 110.058594 35.050781 C 110.058594 35.589844 109.621094 36.027344 109.085938 36.027344 L 105.191406 36.027344 C 104.648438 36.027344 104.214844 35.59375 104.214844 35.050781 Z M 104.214844 35.050781 "/></g><g clip-rule="nonzero" clip-path="url(#f7de29a842)"><path style=" stroke:none;fill-rule:nonzero;fill:#f6a800;fill-opacity:1;" d="M 97.886719 28.722656 C 97.347656 28.722656 96.910156 28.285156 96.910156 27.746094 L 96.910156 23.851562 C 96.910156 23.316406 97.347656 22.878906 97.886719 22.878906 C 98.421875 22.878906 98.859375 23.316406 98.859375 23.851562 L 98.859375 27.746094 C 98.859375 28.289062 98.421875 28.722656 97.886719 28.722656 Z M 97.886719 28.722656 "/></g><g style="fill:#2f2f2f;fill-opacity:1;"><g transform="translate(127.533229, 77.021646)"><path style="stroke:none" d="M 20.484375 -25.359375 L 20.484375 -20.40625 L 13.765625 -20.40625 L 13.765625 0 L 7.59375 0 L 7.59375 -20.40625 L 0.859375 -20.40625 L 0.859375 -25.359375 Z M 20.484375 -25.359375 "/></g></g><g style="fill:#2f2f2f;fill-opacity:1;"><g transform="translate(148.87302, 77.021646)"><path style="stroke:none" d="M 21.234375 -10.40625 C 21.234375 -9.820312 21.203125 -9.21875 21.140625 -8.59375 L 7.15625 -8.59375 C 7.25 -7.34375 7.648438 -6.382812 8.359375 -5.71875 C 9.066406 -5.0625 9.941406 -4.734375 10.984375 -4.734375 C 12.523438 -4.734375 13.597656 -5.382812 14.203125 -6.6875 L 20.765625 -6.6875 C 20.429688 -5.363281 19.820312 -4.171875 18.9375 -3.109375 C 18.0625 -2.046875 16.960938 -1.210938 15.640625 -0.609375 C 14.316406 -0.015625 12.835938 0.28125 11.203125 0.28125 C 9.222656 0.28125 7.460938 -0.132812 5.921875 -0.96875 C 4.378906 -1.8125 3.175781 -3.015625 2.3125 -4.578125 C 1.445312 -6.148438 1.015625 -7.984375 1.015625 -10.078125 C 1.015625 -12.171875 1.441406 -14 2.296875 -15.5625 C 3.148438 -17.132812 4.347656 -18.34375 5.890625 -19.1875 C 7.429688 -20.03125 9.203125 -20.453125 11.203125 -20.453125 C 13.148438 -20.453125 14.878906 -20.039062 16.390625 -19.21875 C 17.910156 -18.394531 19.097656 -17.222656 19.953125 -15.703125 C 20.804688 -14.191406 21.234375 -12.425781 21.234375 -10.40625 Z M 14.921875 -12.03125 C 14.921875 -13.09375 14.554688 -13.9375 13.828125 -14.5625 C 13.109375 -15.1875 12.207031 -15.5 11.125 -15.5 C 10.09375 -15.5 9.21875 -15.195312 8.5 -14.59375 C 7.789062 -13.988281 7.351562 -13.132812 7.1875 -12.03125 Z M 14.921875 -12.03125 "/></g></g><g style="fill:#2f2f2f;fill-opacity:1;"><g transform="translate(171.115514, 77.021646)"><path style="stroke:none" d="M 1.015625 -10.109375 C 1.015625 -12.179688 1.40625 -14 2.1875 -15.5625 C 2.96875 -17.132812 4.03125 -18.34375 5.375 -19.1875 C 6.726562 -20.03125 8.234375 -20.453125 9.890625 -20.453125 C 11.316406 -20.453125 12.566406 -20.160156 13.640625 -19.578125 C 14.710938 -19.003906 15.535156 -18.242188 16.109375 -17.296875 L 16.109375 -20.15625 L 22.296875 -20.15625 L 22.296875 0 L 16.109375 0 L 16.109375 -2.859375 C 15.503906 -1.910156 14.664062 -1.148438 13.59375 -0.578125 C 12.53125 -0.00390625 11.285156 0.28125 9.859375 0.28125 C 8.222656 0.28125 6.726562 -0.144531 5.375 -1 C 4.03125 -1.851562 2.96875 -3.066406 2.1875 -4.640625 C 1.40625 -6.222656 1.015625 -8.046875 1.015625 -10.109375 Z M 16.109375 -10.078125 C 16.109375 -11.617188 15.679688 -12.832031 14.828125 -13.71875 C 13.972656 -14.613281 12.929688 -15.0625 11.703125 -15.0625 C 10.472656 -15.0625 9.429688 -14.617188 8.578125 -13.734375 C 7.722656 -12.859375 7.296875 -11.648438 7.296875 -10.109375 C 7.296875 -8.566406 7.722656 -7.34375 8.578125 -6.4375 C 9.429688 -5.539062 10.472656 -5.09375 11.703125 -5.09375 C 12.929688 -5.09375 13.972656 -5.535156 14.828125 -6.421875 C 15.679688 -7.316406 16.109375 -8.535156 16.109375 -10.078125 Z M 16.109375 -10.078125 "/></g></g><g style="fill:#2f2f2f;fill-opacity:1;"><g transform="translate(195.632803, 77.021646)"><path style="stroke:none" d="M 1.015625 -10.078125 C 1.015625 -12.171875 1.441406 -14 2.296875 -15.5625 C 3.148438 -17.132812 4.34375 -18.34375 5.875 -19.1875 C 7.40625 -20.03125 9.15625 -20.453125 11.125 -20.453125 C 13.65625 -20.453125 15.769531 -19.785156 17.46875 -18.453125 C 19.164062 -17.128906 20.28125 -15.265625 20.8125 -12.859375 L 14.234375 -12.859375 C 13.679688 -14.398438 12.609375 -15.171875 11.015625 -15.171875 C 9.878906 -15.171875 8.972656 -14.726562 8.296875 -13.84375 C 7.628906 -12.96875 7.296875 -11.710938 7.296875 -10.078125 C 7.296875 -8.441406 7.628906 -7.179688 8.296875 -6.296875 C 8.972656 -5.421875 9.878906 -4.984375 11.015625 -4.984375 C 12.609375 -4.984375 13.679688 -5.753906 14.234375 -7.296875 L 20.8125 -7.296875 C 20.28125 -4.929688 19.160156 -3.078125 17.453125 -1.734375 C 15.742188 -0.390625 13.632812 0.28125 11.125 0.28125 C 9.15625 0.28125 7.40625 -0.132812 5.875 -0.96875 C 4.34375 -1.8125 3.148438 -3.015625 2.296875 -4.578125 C 1.441406 -6.148438 1.015625 -7.984375 1.015625 -10.078125 Z M 1.015625 -10.078125 "/></g></g><g style="fill:#2f2f2f;fill-opacity:1;"><g transform="translate(217.478109, 77.021646)"><path style="stroke:none" d="M 14.625 -20.375 C 16.9375 -20.375 18.789062 -19.609375 20.1875 -18.078125 C 21.59375 -16.546875 22.296875 -14.445312 22.296875 -11.78125 L 22.296875 0 L 16.140625 0 L 16.140625 -10.953125 C 16.140625 -12.296875 15.789062 -13.335938 15.09375 -14.078125 C 14.394531 -14.828125 13.457031 -15.203125 12.28125 -15.203125 C 11.101562 -15.203125 10.164062 -14.828125 9.46875 -14.078125 C 8.769531 -13.335938 8.421875 -12.296875 8.421875 -10.953125 L 8.421875 0 L 2.234375 0 L 2.234375 -26.734375 L 8.421875 -26.734375 L 8.421875 -17.453125 C 9.046875 -18.335938 9.898438 -19.046875 10.984375 -19.578125 C 12.066406 -20.109375 13.28125 -20.375 14.625 -20.375 Z M 14.625 -20.375 "/></g></g><g style="fill:#5b8def;fill-opacity:1;"><g transform="translate(241.820996, 77.021646)"><path style="stroke:none" d="M 20.484375 -25.359375 L 20.484375 -20.40625 L 13.765625 -20.40625 L 13.765625 0 L 7.59375 0 L 7.59375 -20.40625 L 0.859375 -20.40625 L 0.859375 -25.359375 Z M 20.484375 -25.359375 "/></g></g><g style="fill:#5b8def;fill-opacity:1;"><g transform="translate(263.160787, 77.021646)"><path style="stroke:none" d="M 5.34375 -22.25 C 4.257812 -22.25 3.375 -22.566406 2.6875 -23.203125 C 2 -23.847656 1.65625 -24.640625 1.65625 -25.578125 C 1.65625 -26.535156 2 -27.332031 2.6875 -27.96875 C 3.375 -28.613281 4.257812 -28.9375 5.34375 -28.9375 C 6.40625 -28.9375 7.28125 -28.613281 7.96875 -27.96875 C 8.65625 -27.332031 9 -26.535156 9 -25.578125 C 9 -24.640625 8.65625 -23.847656 7.96875 -23.203125 C 7.28125 -22.566406 6.40625 -22.25 5.34375 -22.25 Z M 8.421875 -20.15625 L 8.421875 0 L 2.234375 0 L 2.234375 -20.15625 Z M 8.421875 -20.15625 "/></g></g><g style="fill:#5b8def;fill-opacity:1;"><g transform="translate(273.812626, 77.021646)"><path style="stroke:none" d="M 14.515625 -20.375 C 16.878906 -20.375 18.765625 -19.609375 20.171875 -18.078125 C 21.585938 -16.546875 22.296875 -14.445312 22.296875 -11.78125 L 22.296875 0 L 16.140625 0 L 16.140625 -10.953125 C 16.140625 -12.296875 15.789062 -13.335938 15.09375 -14.078125 C 14.394531 -14.828125 13.457031 -15.203125 12.28125 -15.203125 C 11.101562 -15.203125 10.164062 -14.828125 9.46875 -14.078125 C 8.769531 -13.335938 8.421875 -12.296875 8.421875 -10.953125 L 8.421875 0 L 2.234375 0 L 2.234375 -20.15625 L 8.421875 -20.15625 L 8.421875 -17.484375 C 9.046875 -18.378906 9.882812 -19.082031 10.9375 -19.59375 C 12 -20.113281 13.191406 -20.375 14.515625 -20.375 Z M 14.515625 -20.375 "/></g></g><g style="fill:#5b8def;fill-opacity:1;"><g transform="translate(298.149384, 77.021646)"><path style="stroke:none" d="M 14.5625 0 L 8.421875 -8.453125 L 8.421875 0 L 2.234375 0 L 2.234375 -26.734375 L 8.421875 -26.734375 L 8.421875 -11.953125 L 14.515625 -20.15625 L 22.140625 -20.15625 L 13.765625 -10.046875 L 22.21875 0 Z M 14.5625 0 "/></g></g><g style="fill:#5b8def;fill-opacity:1;"><g transform="translate(320.464092, 77.021646)"><path style="stroke:none" d="M 21.234375 -10.40625 C 21.234375 -9.820312 21.203125 -9.21875 21.140625 -8.59375 L 7.15625 -8.59375 C 7.25 -7.34375 7.648438 -6.382812 8.359375 -5.71875 C 9.066406 -5.0625 9.941406 -4.734375 10.984375 -4.734375 C 12.523438 -4.734375 13.597656 -5.382812 14.203125 -6.6875 L 20.765625 -6.6875 C 20.429688 -5.363281 19.820312 -4.171875 18.9375 -3.109375 C 18.0625 -2.046875 16.960938 -1.210938 15.640625 -0.609375 C 14.316406 -0.015625 12.835938 0.28125 11.203125 0.28125 C 9.222656 0.28125 7.460938 -0.132812 5.921875 -0.96875 C 4.378906 -1.8125 3.175781 -3.015625 2.3125 -4.578125 C 1.445312 -6.148438 1.015625 -7.984375 1.015625 -10.078125 C 1.015625 -12.171875 1.441406 -14 2.296875 -15.5625 C 3.148438 -17.132812 4.347656 -18.34375 5.890625 -19.1875 C 7.429688 -20.03125 9.203125 -20.453125 11.203125 -20.453125 C 13.148438 -20.453125 14.878906 -20.039062 16.390625 -19.21875 C 17.910156 -18.394531 19.097656 -17.222656 19.953125 -15.703125 C 20.804688 -14.191406 21.234375 -12.425781 21.234375 -10.40625 Z M 14.921875 -12.03125 C 14.921875 -13.09375 14.554688 -13.9375 13.828125 -14.5625 C 13.109375 -15.1875 12.207031 -15.5 11.125 -15.5 C 10.09375 -15.5 9.21875 -15.195312 8.5 -14.59375 C 7.789062 -13.988281 7.351562 -13.132812 7.1875 -12.03125 Z M 14.921875 -12.03125 "/></g></g><g style="fill:#5b8def;fill-opacity:1;"><g transform="translate(342.706586, 77.021646)"><path style="stroke:none" d="M 8.421875 -16.796875 C 9.140625 -17.898438 10.039062 -18.769531 11.125 -19.40625 C 12.207031 -20.050781 13.410156 -20.375 14.734375 -20.375 L 14.734375 -13.828125 L 13.046875 -13.828125 C 11.503906 -13.828125 10.347656 -13.492188 9.578125 -12.828125 C 8.804688 -12.171875 8.421875 -11.015625 8.421875 -9.359375 L 8.421875 0 L 2.234375 0 L 2.234375 -20.15625 L 8.421875 -20.15625 Z M 8.421875 -16.796875 "/></g></g><g style="fill:#4f4f4f;fill-opacity:1;"><g transform="translate(126.054855, 101.118649)"><path style="stroke:none" d="M 9.640625 -12.734375 C 9.578125 -12.628906 9.507812 -12.550781 9.4375 -12.5 C 9.363281 -12.445312 9.273438 -12.421875 9.171875 -12.421875 C 9.054688 -12.421875 8.914062 -12.476562 8.75 -12.59375 C 8.59375 -12.71875 8.390625 -12.847656 8.140625 -12.984375 C 7.898438 -13.128906 7.609375 -13.257812 7.265625 -13.375 C 6.929688 -13.5 6.519531 -13.5625 6.03125 -13.5625 C 5.570312 -13.5625 5.171875 -13.5 4.828125 -13.375 C 4.484375 -13.257812 4.191406 -13.09375 3.953125 -12.875 C 3.722656 -12.664062 3.546875 -12.414062 3.421875 -12.125 C 3.304688 -11.84375 3.25 -11.539062 3.25 -11.21875 C 3.25 -10.789062 3.347656 -10.4375 3.546875 -10.15625 C 3.753906 -9.882812 4.03125 -9.648438 4.375 -9.453125 C 4.71875 -9.253906 5.101562 -9.082031 5.53125 -8.9375 C 5.96875 -8.800781 6.410156 -8.65625 6.859375 -8.5 C 7.316406 -8.34375 7.757812 -8.164062 8.1875 -7.96875 C 8.613281 -7.78125 9 -7.535156 9.34375 -7.234375 C 9.6875 -6.941406 9.960938 -6.582031 10.171875 -6.15625 C 10.378906 -5.726562 10.484375 -5.203125 10.484375 -4.578125 C 10.484375 -3.921875 10.367188 -3.300781 10.140625 -2.71875 C 9.910156 -2.144531 9.582031 -1.640625 9.15625 -1.203125 C 8.726562 -0.773438 8.195312 -0.4375 7.5625 -0.1875 C 6.9375 0.0507812 6.222656 0.171875 5.421875 0.171875 C 4.441406 0.171875 3.550781 -0.00390625 2.75 -0.359375 C 1.945312 -0.710938 1.257812 -1.191406 0.6875 -1.796875 L 1.28125 -2.765625 C 1.34375 -2.847656 1.410156 -2.914062 1.484375 -2.96875 C 1.566406 -3.019531 1.660156 -3.046875 1.765625 -3.046875 C 1.847656 -3.046875 1.945312 -3.007812 2.0625 -2.9375 C 2.1875 -2.863281 2.320312 -2.769531 2.46875 -2.65625 C 2.613281 -2.539062 2.78125 -2.414062 2.96875 -2.28125 C 3.15625 -2.144531 3.367188 -2.019531 3.609375 -1.90625 C 3.859375 -1.800781 4.132812 -1.710938 4.4375 -1.640625 C 4.75 -1.566406 5.097656 -1.53125 5.484375 -1.53125 C 5.972656 -1.53125 6.40625 -1.59375 6.78125 -1.71875 C 7.15625 -1.851562 7.472656 -2.039062 7.734375 -2.28125 C 8.003906 -2.53125 8.207031 -2.820312 8.34375 -3.15625 C 8.488281 -3.5 8.5625 -3.875 8.5625 -4.28125 C 8.5625 -4.738281 8.457031 -5.113281 8.25 -5.40625 C 8.039062 -5.695312 7.765625 -5.941406 7.421875 -6.140625 C 7.085938 -6.335938 6.703125 -6.503906 6.265625 -6.640625 C 5.835938 -6.773438 5.398438 -6.914062 4.953125 -7.0625 C 4.503906 -7.207031 4.0625 -7.375 3.625 -7.5625 C 3.1875 -7.75 2.796875 -7.992188 2.453125 -8.296875 C 2.117188 -8.597656 1.847656 -8.972656 1.640625 -9.421875 C 1.441406 -9.878906 1.34375 -10.441406 1.34375 -11.109375 C 1.34375 -11.640625 1.441406 -12.15625 1.640625 -12.65625 C 1.847656 -13.15625 2.148438 -13.597656 2.546875 -13.984375 C 2.953125 -14.367188 3.441406 -14.675781 4.015625 -14.90625 C 4.597656 -15.144531 5.265625 -15.265625 6.015625 -15.265625 C 6.859375 -15.265625 7.625 -15.128906 8.3125 -14.859375 C 9.007812 -14.585938 9.617188 -14.203125 10.140625 -13.703125 Z M 9.640625 -12.734375 "/></g></g><g style="fill:#4f4f4f;fill-opacity:1;"><g transform="translate(137.252026, 101.118649)"><path style="stroke:none" d="M 1.484375 0 L 1.484375 -10.671875 L 2.609375 -10.671875 C 2.878906 -10.671875 3.046875 -10.539062 3.109375 -10.28125 L 3.25 -9.1875 C 3.632812 -9.664062 4.070312 -10.0625 4.5625 -10.375 C 5.0625 -10.6875 5.632812 -10.84375 6.28125 -10.84375 C 6.988281 -10.84375 7.566406 -10.640625 8.015625 -10.234375 C 8.460938 -9.835938 8.785156 -9.296875 8.984375 -8.609375 C 9.140625 -8.992188 9.335938 -9.328125 9.578125 -9.609375 C 9.816406 -9.890625 10.085938 -10.117188 10.390625 -10.296875 C 10.691406 -10.484375 11.015625 -10.617188 11.359375 -10.703125 C 11.703125 -10.796875 12.046875 -10.84375 12.390625 -10.84375 C 12.953125 -10.84375 13.453125 -10.75 13.890625 -10.5625 C 14.328125 -10.382812 14.695312 -10.125 15 -9.78125 C 15.3125 -9.4375 15.546875 -9.015625 15.703125 -8.515625 C 15.867188 -8.015625 15.953125 -7.441406 15.953125 -6.796875 L 15.953125 0 L 14.0625 0 L 14.0625 -6.796875 C 14.0625 -7.628906 13.878906 -8.257812 13.515625 -8.6875 C 13.148438 -9.125 12.625 -9.34375 11.9375 -9.34375 C 11.632812 -9.34375 11.34375 -9.285156 11.0625 -9.171875 C 10.78125 -9.066406 10.535156 -8.910156 10.328125 -8.703125 C 10.117188 -8.492188 9.953125 -8.226562 9.828125 -7.90625 C 9.703125 -7.582031 9.640625 -7.210938 9.640625 -6.796875 L 9.640625 0 L 7.765625 0 L 7.765625 -6.796875 C 7.765625 -7.648438 7.59375 -8.285156 7.25 -8.703125 C 6.90625 -9.128906 6.398438 -9.34375 5.734375 -9.34375 C 5.273438 -9.34375 4.847656 -9.21875 4.453125 -8.96875 C 4.054688 -8.71875 3.695312 -8.378906 3.375 -7.953125 L 3.375 0 Z M 1.484375 0 "/></g></g><g style="fill:#4f4f4f;fill-opacity:1;"><g transform="translate(154.579753, 101.118649)"><path style="stroke:none" d="M 7.265625 -4.796875 C 6.398438 -4.773438 5.664062 -4.707031 5.0625 -4.59375 C 4.457031 -4.488281 3.960938 -4.347656 3.578125 -4.171875 C 3.191406 -3.992188 2.910156 -3.785156 2.734375 -3.546875 C 2.566406 -3.304688 2.484375 -3.039062 2.484375 -2.75 C 2.484375 -2.46875 2.53125 -2.222656 2.625 -2.015625 C 2.71875 -1.816406 2.84375 -1.648438 3 -1.515625 C 3.15625 -1.390625 3.335938 -1.296875 3.546875 -1.234375 C 3.765625 -1.171875 4 -1.140625 4.25 -1.140625 C 4.570312 -1.140625 4.867188 -1.171875 5.140625 -1.234375 C 5.421875 -1.304688 5.679688 -1.40625 5.921875 -1.53125 C 6.160156 -1.664062 6.390625 -1.816406 6.609375 -1.984375 C 6.835938 -2.160156 7.054688 -2.363281 7.265625 -2.59375 Z M 1.21875 -9.15625 C 1.800781 -9.726562 2.429688 -10.15625 3.109375 -10.4375 C 3.796875 -10.71875 4.550781 -10.859375 5.375 -10.859375 C 5.976562 -10.859375 6.507812 -10.757812 6.96875 -10.5625 C 7.4375 -10.363281 7.828125 -10.085938 8.140625 -9.734375 C 8.453125 -9.390625 8.6875 -8.96875 8.84375 -8.46875 C 9.007812 -7.96875 9.09375 -7.421875 9.09375 -6.828125 L 9.09375 0 L 8.265625 0 C 8.085938 0 7.945312 -0.0234375 7.84375 -0.078125 C 7.75 -0.140625 7.671875 -0.257812 7.609375 -0.4375 L 7.40625 -1.453125 C 7.125 -1.191406 6.847656 -0.960938 6.578125 -0.765625 C 6.316406 -0.566406 6.035156 -0.394531 5.734375 -0.25 C 5.441406 -0.113281 5.128906 -0.0078125 4.796875 0.0625 C 4.460938 0.132812 4.09375 0.171875 3.6875 0.171875 C 3.269531 0.171875 2.878906 0.113281 2.515625 0 C 2.148438 -0.113281 1.832031 -0.285156 1.5625 -0.515625 C 1.289062 -0.753906 1.078125 -1.050781 0.921875 -1.40625 C 0.765625 -1.757812 0.6875 -2.179688 0.6875 -2.671875 C 0.6875 -3.085938 0.800781 -3.488281 1.03125 -3.875 C 1.257812 -4.269531 1.632812 -4.617188 2.15625 -4.921875 C 2.675781 -5.222656 3.351562 -5.46875 4.1875 -5.65625 C 5.019531 -5.851562 6.046875 -5.96875 7.265625 -6 L 7.265625 -6.828125 C 7.265625 -7.648438 7.082031 -8.273438 6.71875 -8.703125 C 6.363281 -9.128906 5.84375 -9.34375 5.15625 -9.34375 C 4.695312 -9.34375 4.3125 -9.285156 4 -9.171875 C 3.6875 -9.054688 3.414062 -8.925781 3.1875 -8.78125 C 2.957031 -8.632812 2.757812 -8.503906 2.59375 -8.390625 C 2.425781 -8.273438 2.265625 -8.21875 2.109375 -8.21875 C 1.984375 -8.21875 1.875 -8.25 1.78125 -8.3125 C 1.6875 -8.382812 1.609375 -8.46875 1.546875 -8.5625 Z M 1.21875 -9.15625 "/></g></g><g style="fill:#4f4f4f;fill-opacity:1;"><g transform="translate(165.05011, 101.118649)"><path style="stroke:none" d="M 3.265625 -8.53125 C 3.597656 -9.257812 4.007812 -9.828125 4.5 -10.234375 C 5 -10.648438 5.601562 -10.859375 6.3125 -10.859375 C 6.53125 -10.859375 6.742188 -10.832031 6.953125 -10.78125 C 7.160156 -10.726562 7.347656 -10.648438 7.515625 -10.546875 L 7.375 -9.15625 C 7.332031 -8.976562 7.226562 -8.890625 7.0625 -8.890625 C 6.957031 -8.890625 6.8125 -8.910156 6.625 -8.953125 C 6.4375 -8.992188 6.222656 -9.015625 5.984375 -9.015625 C 5.640625 -9.015625 5.335938 -8.960938 5.078125 -8.859375 C 4.816406 -8.765625 4.582031 -8.617188 4.375 -8.421875 C 4.164062 -8.234375 3.976562 -7.992188 3.8125 -7.703125 C 3.644531 -7.421875 3.5 -7.097656 3.375 -6.734375 L 3.375 0 L 1.484375 0 L 1.484375 -10.671875 L 2.5625 -10.671875 C 2.757812 -10.671875 2.894531 -10.628906 2.96875 -10.546875 C 3.050781 -10.472656 3.109375 -10.34375 3.140625 -10.15625 Z M 3.265625 -8.53125 "/></g></g><g style="fill:#4f4f4f;fill-opacity:1;"><g transform="translate(172.718542, 101.118649)"><path style="stroke:none" d="M 4.765625 0.171875 C 3.921875 0.171875 3.269531 -0.0625 2.8125 -0.53125 C 2.363281 -1.007812 2.140625 -1.6875 2.140625 -2.5625 L 2.140625 -9.09375 L 0.859375 -9.09375 C 0.742188 -9.09375 0.644531 -9.125 0.5625 -9.1875 C 0.488281 -9.257812 0.453125 -9.367188 0.453125 -9.515625 L 0.453125 -10.25 L 2.203125 -10.484375 L 2.625 -13.78125 C 2.65625 -13.882812 2.707031 -13.96875 2.78125 -14.03125 C 2.851562 -14.101562 2.945312 -14.140625 3.0625 -14.140625 L 4.015625 -14.140625 L 4.015625 -10.453125 L 7.09375 -10.453125 L 7.09375 -9.09375 L 4.015625 -9.09375 L 4.015625 -2.703125 C 4.015625 -2.242188 4.125 -1.90625 4.34375 -1.6875 C 4.5625 -1.476562 4.84375 -1.375 5.1875 -1.375 C 5.375 -1.375 5.539062 -1.398438 5.6875 -1.453125 C 5.832031 -1.503906 5.957031 -1.5625 6.0625 -1.625 C 6.164062 -1.6875 6.253906 -1.742188 6.328125 -1.796875 C 6.398438 -1.847656 6.46875 -1.875 6.53125 -1.875 C 6.625 -1.875 6.710938 -1.816406 6.796875 -1.703125 L 7.34375 -0.796875 C 7.019531 -0.492188 6.628906 -0.253906 6.171875 -0.078125 C 5.710938 0.0859375 5.242188 0.171875 4.765625 0.171875 Z M 4.765625 0.171875 "/></g></g><g style="fill:#4f4f4f;fill-opacity:1;"><g transform="translate(180.271116, 101.118649)"><path style="stroke:none" d=""/></g></g><g style="fill:#4f4f4f;fill-opacity:1;"><g transform="translate(185.664304, 101.118649)"><path style="stroke:none" d="M 3.265625 -8.53125 C 3.597656 -9.257812 4.007812 -9.828125 4.5 -10.234375 C 5 -10.648438 5.601562 -10.859375 6.3125 -10.859375 C 6.53125 -10.859375 6.742188 -10.832031 6.953125 -10.78125 C 7.160156 -10.726562 7.347656 -10.648438 7.515625 -10.546875 L 7.375 -9.15625 C 7.332031 -8.976562 7.226562 -8.890625 7.0625 -8.890625 C 6.957031 -8.890625 6.8125 -8.910156 6.625 -8.953125 C 6.4375 -8.992188 6.222656 -9.015625 5.984375 -9.015625 C 5.640625 -9.015625 5.335938 -8.960938 5.078125 -8.859375 C 4.816406 -8.765625 4.582031 -8.617188 4.375 -8.421875 C 4.164062 -8.234375 3.976562 -7.992188 3.8125 -7.703125 C 3.644531 -7.421875 3.5 -7.097656 3.375 -6.734375 L 3.375 0 L 1.484375 0 L 1.484375 -10.671875 L 2.5625 -10.671875 C 2.757812 -10.671875 2.894531 -10.628906 2.96875 -10.546875 C 3.050781 -10.472656 3.109375 -10.34375 3.140625 -10.15625 Z M 3.265625 -8.53125 "/></g></g><g style="fill:#4f4f4f;fill-opacity:1;"><g transform="translate(192.900859, 101.118649)"><path style="stroke:none" d="M 8.625 -6.5 C 8.625 -6.9375 8.5625 -7.332031 8.4375 -7.6875 C 8.3125 -8.050781 8.128906 -8.363281 7.890625 -8.625 C 7.660156 -8.894531 7.378906 -9.097656 7.046875 -9.234375 C 6.710938 -9.378906 6.328125 -9.453125 5.890625 -9.453125 C 4.992188 -9.453125 4.285156 -9.191406 3.765625 -8.671875 C 3.242188 -8.148438 2.921875 -7.425781 2.796875 -6.5 Z M 10.140625 -1.5 C 9.910156 -1.21875 9.632812 -0.972656 9.3125 -0.765625 C 8.988281 -0.554688 8.640625 -0.382812 8.265625 -0.25 C 7.898438 -0.113281 7.519531 -0.015625 7.125 0.046875 C 6.738281 0.109375 6.347656 0.140625 5.953125 0.140625 C 5.222656 0.140625 4.546875 0.0195312 3.921875 -0.21875 C 3.296875 -0.46875 2.753906 -0.832031 2.296875 -1.3125 C 1.847656 -1.800781 1.5 -2.398438 1.25 -3.109375 C 1 -3.816406 0.875 -4.628906 0.875 -5.546875 C 0.875 -6.296875 0.988281 -6.992188 1.21875 -7.640625 C 1.445312 -8.285156 1.773438 -8.84375 2.203125 -9.3125 C 2.628906 -9.789062 3.148438 -10.164062 3.765625 -10.4375 C 4.390625 -10.707031 5.085938 -10.84375 5.859375 -10.84375 C 6.492188 -10.84375 7.082031 -10.734375 7.625 -10.515625 C 8.175781 -10.296875 8.648438 -9.984375 9.046875 -9.578125 C 9.441406 -9.179688 9.75 -8.6875 9.96875 -8.09375 C 10.195312 -7.5 10.3125 -6.820312 10.3125 -6.0625 C 10.3125 -5.769531 10.28125 -5.570312 10.21875 -5.46875 C 10.15625 -5.375 10.035156 -5.328125 9.859375 -5.328125 L 2.734375 -5.328125 C 2.753906 -4.648438 2.84375 -4.0625 3 -3.5625 C 3.164062 -3.070312 3.394531 -2.660156 3.6875 -2.328125 C 3.988281 -1.992188 4.34375 -1.742188 4.75 -1.578125 C 5.15625 -1.410156 5.613281 -1.328125 6.125 -1.328125 C 6.59375 -1.328125 6.992188 -1.378906 7.328125 -1.484375 C 7.671875 -1.597656 7.960938 -1.71875 8.203125 -1.84375 C 8.453125 -1.96875 8.660156 -2.082031 8.828125 -2.1875 C 8.992188 -2.300781 9.132812 -2.359375 9.25 -2.359375 C 9.40625 -2.359375 9.523438 -2.300781 9.609375 -2.1875 Z M 10.140625 -1.5 "/></g></g><g style="fill:#4f4f4f;fill-opacity:1;"><g transform="translate(204.024309, 101.118649)"><path style="stroke:none" d="M 7.703125 -8.90625 C 7.617188 -8.75 7.488281 -8.671875 7.3125 -8.671875 C 7.207031 -8.671875 7.085938 -8.707031 6.953125 -8.78125 C 6.816406 -8.863281 6.648438 -8.953125 6.453125 -9.046875 C 6.265625 -9.140625 6.035156 -9.226562 5.765625 -9.3125 C 5.503906 -9.394531 5.191406 -9.4375 4.828125 -9.4375 C 4.503906 -9.4375 4.21875 -9.394531 3.96875 -9.3125 C 3.71875 -9.226562 3.5 -9.113281 3.3125 -8.96875 C 3.132812 -8.832031 3 -8.671875 2.90625 -8.484375 C 2.8125 -8.304688 2.765625 -8.109375 2.765625 -7.890625 C 2.765625 -7.617188 2.84375 -7.390625 3 -7.203125 C 3.164062 -7.015625 3.375 -6.851562 3.625 -6.71875 C 3.882812 -6.59375 4.179688 -6.476562 4.515625 -6.375 C 4.847656 -6.269531 5.1875 -6.160156 5.53125 -6.046875 C 5.882812 -5.929688 6.222656 -5.800781 6.546875 -5.65625 C 6.878906 -5.519531 7.175781 -5.347656 7.4375 -5.140625 C 7.695312 -4.929688 7.90625 -4.671875 8.0625 -4.359375 C 8.21875 -4.054688 8.296875 -3.691406 8.296875 -3.265625 C 8.296875 -2.773438 8.207031 -2.320312 8.03125 -1.90625 C 7.851562 -1.488281 7.59375 -1.125 7.25 -0.8125 C 6.90625 -0.507812 6.484375 -0.269531 5.984375 -0.09375 C 5.492188 0.0820312 4.921875 0.171875 4.265625 0.171875 C 3.523438 0.171875 2.851562 0.0507812 2.25 -0.1875 C 1.644531 -0.4375 1.128906 -0.75 0.703125 -1.125 L 1.140625 -1.84375 C 1.203125 -1.9375 1.269531 -2.003906 1.34375 -2.046875 C 1.425781 -2.097656 1.523438 -2.125 1.640625 -2.125 C 1.765625 -2.125 1.894531 -2.070312 2.03125 -1.96875 C 2.175781 -1.875 2.347656 -1.765625 2.546875 -1.640625 C 2.753906 -1.523438 3 -1.414062 3.28125 -1.3125 C 3.570312 -1.21875 3.929688 -1.171875 4.359375 -1.171875 C 4.722656 -1.171875 5.039062 -1.21875 5.3125 -1.3125 C 5.59375 -1.414062 5.820312 -1.546875 6 -1.703125 C 6.1875 -1.867188 6.320312 -2.054688 6.40625 -2.265625 C 6.5 -2.472656 6.546875 -2.695312 6.546875 -2.9375 C 6.546875 -3.226562 6.460938 -3.46875 6.296875 -3.65625 C 6.140625 -3.851562 5.929688 -4.019531 5.671875 -4.15625 C 5.410156 -4.300781 5.113281 -4.421875 4.78125 -4.515625 C 4.445312 -4.617188 4.109375 -4.726562 3.765625 -4.84375 C 3.421875 -4.957031 3.082031 -5.082031 2.75 -5.21875 C 2.414062 -5.363281 2.117188 -5.546875 1.859375 -5.765625 C 1.597656 -5.984375 1.382812 -6.253906 1.21875 -6.578125 C 1.0625 -6.898438 0.984375 -7.285156 0.984375 -7.734375 C 0.984375 -8.140625 1.066406 -8.53125 1.234375 -8.90625 C 1.410156 -9.289062 1.660156 -9.625 1.984375 -9.90625 C 2.304688 -10.1875 2.703125 -10.410156 3.171875 -10.578125 C 3.640625 -10.753906 4.175781 -10.84375 4.78125 -10.84375 C 5.476562 -10.84375 6.109375 -10.726562 6.671875 -10.5 C 7.234375 -10.28125 7.71875 -9.976562 8.125 -9.59375 Z M 7.703125 -8.90625 "/></g></g><g style="fill:#4f4f4f;fill-opacity:1;"><g transform="translate(213.146369, 101.118649)"><path style="stroke:none" d="M 5.984375 -10.84375 C 6.765625 -10.84375 7.46875 -10.710938 8.09375 -10.453125 C 8.71875 -10.191406 9.25 -9.820312 9.6875 -9.34375 C 10.132812 -8.863281 10.472656 -8.285156 10.703125 -7.609375 C 10.941406 -6.929688 11.0625 -6.175781 11.0625 -5.34375 C 11.0625 -4.5 10.941406 -3.738281 10.703125 -3.0625 C 10.472656 -2.382812 10.132812 -1.804688 9.6875 -1.328125 C 9.25 -0.859375 8.71875 -0.492188 8.09375 -0.234375 C 7.46875 0.015625 6.765625 0.140625 5.984375 0.140625 C 5.191406 0.140625 4.484375 0.015625 3.859375 -0.234375 C 3.234375 -0.492188 2.695312 -0.859375 2.25 -1.328125 C 1.8125 -1.804688 1.472656 -2.382812 1.234375 -3.0625 C 1.003906 -3.738281 0.890625 -4.5 0.890625 -5.34375 C 0.890625 -6.175781 1.003906 -6.929688 1.234375 -7.609375 C 1.472656 -8.285156 1.8125 -8.863281 2.25 -9.34375 C 2.695312 -9.820312 3.234375 -10.191406 3.859375 -10.453125 C 4.484375 -10.710938 5.191406 -10.84375 5.984375 -10.84375 Z M 5.984375 -1.3125 C 7.035156 -1.3125 7.820312 -1.664062 8.34375 -2.375 C 8.863281 -3.082031 9.125 -4.066406 9.125 -5.328125 C 9.125 -6.597656 8.863281 -7.585938 8.34375 -8.296875 C 7.820312 -9.003906 7.035156 -9.359375 5.984375 -9.359375 C 5.453125 -9.359375 4.984375 -9.265625 4.578125 -9.078125 C 4.179688 -8.898438 3.851562 -8.640625 3.59375 -8.296875 C 3.332031 -7.953125 3.132812 -7.53125 3 -7.03125 C 2.875 -6.53125 2.8125 -5.960938 2.8125 -5.328125 C 2.8125 -4.066406 3.070312 -3.082031 3.59375 -2.375 C 4.113281 -1.664062 4.910156 -1.3125 5.984375 -1.3125 Z M 5.984375 -1.3125 "/></g></g><g style="fill:#4f4f4f;fill-opacity:1;"><g transform="translate(225.091436, 101.118649)"><path style="stroke:none" d="M 10.25 -10.671875 L 10.25 0 L 9.140625 0 C 8.867188 0 8.703125 -0.128906 8.640625 -0.390625 L 8.484375 -1.53125 C 8.023438 -1.019531 7.503906 -0.609375 6.921875 -0.296875 C 6.347656 0.015625 5.691406 0.171875 4.953125 0.171875 C 4.367188 0.171875 3.851562 0.078125 3.40625 -0.109375 C 2.957031 -0.304688 2.582031 -0.582031 2.28125 -0.9375 C 1.976562 -1.289062 1.75 -1.710938 1.59375 -2.203125 C 1.445312 -2.703125 1.375 -3.253906 1.375 -3.859375 L 1.375 -10.671875 L 3.25 -10.671875 L 3.25 -3.859375 C 3.25 -3.054688 3.429688 -2.429688 3.796875 -1.984375 C 4.171875 -1.546875 4.738281 -1.328125 5.5 -1.328125 C 6.050781 -1.328125 6.566406 -1.457031 7.046875 -1.71875 C 7.523438 -1.976562 7.972656 -2.34375 8.390625 -2.8125 L 8.390625 -10.671875 Z M 10.25 -10.671875 "/></g></g><g style="fill:#4f4f4f;fill-opacity:1;"><g transform="translate(236.836369, 101.118649)"><path style="stroke:none" d="M 3.265625 -8.53125 C 3.597656 -9.257812 4.007812 -9.828125 4.5 -10.234375 C 5 -10.648438 5.601562 -10.859375 6.3125 -10.859375 C 6.53125 -10.859375 6.742188 -10.832031 6.953125 -10.78125 C 7.160156 -10.726562 7.347656 -10.648438 7.515625 -10.546875 L 7.375 -9.15625 C 7.332031 -8.976562 7.226562 -8.890625 7.0625 -8.890625 C 6.957031 -8.890625 6.8125 -8.910156 6.625 -8.953125 C 6.4375 -8.992188 6.222656 -9.015625 5.984375 -9.015625 C 5.640625 -9.015625 5.335938 -8.960938 5.078125 -8.859375 C 4.816406 -8.765625 4.582031 -8.617188 4.375 -8.421875 C 4.164062 -8.234375 3.976562 -7.992188 3.8125 -7.703125 C 3.644531 -7.421875 3.5 -7.097656 3.375 -6.734375 L 3.375 0 L 1.484375 0 L 1.484375 -10.671875 L 2.5625 -10.671875 C 2.757812 -10.671875 2.894531 -10.628906 2.96875 -10.546875 C 3.050781 -10.472656 3.109375 -10.34375 3.140625 -10.15625 Z M 3.265625 -8.53125 "/></g></g><g style="fill:#4f4f4f;fill-opacity:1;"><g transform="translate(244.072924, 101.118649)"><path style="stroke:none" d="M 8.90625 -8.765625 C 8.851562 -8.691406 8.796875 -8.632812 8.734375 -8.59375 C 8.679688 -8.550781 8.609375 -8.53125 8.515625 -8.53125 C 8.398438 -8.53125 8.28125 -8.570312 8.15625 -8.65625 C 8.03125 -8.75 7.875 -8.847656 7.6875 -8.953125 C 7.5 -9.054688 7.269531 -9.148438 7 -9.234375 C 6.738281 -9.328125 6.410156 -9.375 6.015625 -9.375 C 5.484375 -9.375 5.015625 -9.28125 4.609375 -9.09375 C 4.210938 -8.90625 3.878906 -8.632812 3.609375 -8.28125 C 3.347656 -7.9375 3.144531 -7.515625 3 -7.015625 C 2.863281 -6.515625 2.796875 -5.957031 2.796875 -5.34375 C 2.796875 -4.695312 2.867188 -4.117188 3.015625 -3.609375 C 3.171875 -3.109375 3.378906 -2.6875 3.640625 -2.34375 C 3.910156 -2.007812 4.238281 -1.753906 4.625 -1.578125 C 5.007812 -1.398438 5.441406 -1.3125 5.921875 -1.3125 C 6.378906 -1.3125 6.753906 -1.363281 7.046875 -1.46875 C 7.335938 -1.570312 7.578125 -1.691406 7.765625 -1.828125 C 7.960938 -1.960938 8.125 -2.082031 8.25 -2.1875 C 8.382812 -2.300781 8.515625 -2.359375 8.640625 -2.359375 C 8.796875 -2.359375 8.914062 -2.300781 9 -2.1875 L 9.53125 -1.5 C 9.300781 -1.207031 9.035156 -0.957031 8.734375 -0.75 C 8.441406 -0.550781 8.125 -0.382812 7.78125 -0.25 C 7.445312 -0.113281 7.09375 -0.015625 6.71875 0.046875 C 6.34375 0.109375 5.960938 0.140625 5.578125 0.140625 C 4.910156 0.140625 4.289062 0.0195312 3.71875 -0.21875 C 3.144531 -0.46875 2.644531 -0.820312 2.21875 -1.28125 C 1.800781 -1.75 1.472656 -2.320312 1.234375 -3 C 1.003906 -3.6875 0.890625 -4.46875 0.890625 -5.34375 C 0.890625 -6.132812 1 -6.863281 1.21875 -7.53125 C 1.4375 -8.207031 1.757812 -8.789062 2.1875 -9.28125 C 2.613281 -9.769531 3.132812 -10.148438 3.75 -10.421875 C 4.375 -10.703125 5.085938 -10.84375 5.890625 -10.84375 C 6.648438 -10.84375 7.3125 -10.71875 7.875 -10.46875 C 8.445312 -10.226562 8.957031 -9.890625 9.40625 -9.453125 Z M 8.90625 -8.765625 "/></g></g><g style="fill:#4f4f4f;fill-opacity:1;"><g transform="translate(253.94288, 101.118649)"><path style="stroke:none" d="M 8.625 -6.5 C 8.625 -6.9375 8.5625 -7.332031 8.4375 -7.6875 C 8.3125 -8.050781 8.128906 -8.363281 7.890625 -8.625 C 7.660156 -8.894531 7.378906 -9.097656 7.046875 -9.234375 C 6.710938 -9.378906 6.328125 -9.453125 5.890625 -9.453125 C 4.992188 -9.453125 4.285156 -9.191406 3.765625 -8.671875 C 3.242188 -8.148438 2.921875 -7.425781 2.796875 -6.5 Z M 10.140625 -1.5 C 9.910156 -1.21875 9.632812 -0.972656 9.3125 -0.765625 C 8.988281 -0.554688 8.640625 -0.382812 8.265625 -0.25 C 7.898438 -0.113281 7.519531 -0.015625 7.125 0.046875 C 6.738281 0.109375 6.347656 0.140625 5.953125 0.140625 C 5.222656 0.140625 4.546875 0.0195312 3.921875 -0.21875 C 3.296875 -0.46875 2.753906 -0.832031 2.296875 -1.3125 C 1.847656 -1.800781 1.5 -2.398438 1.25 -3.109375 C 1 -3.816406 0.875 -4.628906 0.875 -5.546875 C 0.875 -6.296875 0.988281 -6.992188 1.21875 -7.640625 C 1.445312 -8.285156 1.773438 -8.84375 2.203125 -9.3125 C 2.628906 -9.789062 3.148438 -10.164062 3.765625 -10.4375 C 4.390625 -10.707031 5.085938 -10.84375 5.859375 -10.84375 C 6.492188 -10.84375 7.082031 -10.734375 7.625 -10.515625 C 8.175781 -10.296875 8.648438 -9.984375 9.046875 -9.578125 C 9.441406 -9.179688 9.75 -8.6875 9.96875 -8.09375 C 10.195312 -7.5 10.3125 -6.820312 10.3125 -6.0625 C 10.3125 -5.769531 10.28125 -5.570312 10.21875 -5.46875 C 10.15625 -5.375 10.035156 -5.328125 9.859375 -5.328125 L 2.734375 -5.328125 C 2.753906 -4.648438 2.84375 -4.0625 3 -3.5625 C 3.164062 -3.070312 3.394531 -2.660156 3.6875 -2.328125 C 3.988281 -1.992188 4.34375 -1.742188 4.75 -1.578125 C 5.15625 -1.410156 5.613281 -1.328125 6.125 -1.328125 C 6.59375 -1.328125 6.992188 -1.378906 7.328125 -1.484375 C 7.671875 -1.597656 7.960938 -1.71875 8.203125 -1.84375 C 8.453125 -1.96875 8.660156 -2.082031 8.828125 -2.1875 C 8.992188 -2.300781 9.132812 -2.359375 9.25 -2.359375 C 9.40625 -2.359375 9.523438 -2.300781 9.609375 -2.1875 Z M 10.140625 -1.5 "/></g></g><g style="fill:#4f4f4f;fill-opacity:1;"><g transform="translate(265.06633, 101.118649)"><path style="stroke:none" d="M 7.703125 -8.90625 C 7.617188 -8.75 7.488281 -8.671875 7.3125 -8.671875 C 7.207031 -8.671875 7.085938 -8.707031 6.953125 -8.78125 C 6.816406 -8.863281 6.648438 -8.953125 6.453125 -9.046875 C 6.265625 -9.140625 6.035156 -9.226562 5.765625 -9.3125 C 5.503906 -9.394531 5.191406 -9.4375 4.828125 -9.4375 C 4.503906 -9.4375 4.21875 -9.394531 3.96875 -9.3125 C 3.71875 -9.226562 3.5 -9.113281 3.3125 -8.96875 C 3.132812 -8.832031 3 -8.671875 2.90625 -8.484375 C 2.8125 -8.304688 2.765625 -8.109375 2.765625 -7.890625 C 2.765625 -7.617188 2.84375 -7.390625 3 -7.203125 C 3.164062 -7.015625 3.375 -6.851562 3.625 -6.71875 C 3.882812 -6.59375 4.179688 -6.476562 4.515625 -6.375 C 4.847656 -6.269531 5.1875 -6.160156 5.53125 -6.046875 C 5.882812 -5.929688 6.222656 -5.800781 6.546875 -5.65625 C 6.878906 -5.519531 7.175781 -5.347656 7.4375 -5.140625 C 7.695312 -4.929688 7.90625 -4.671875 8.0625 -4.359375 C 8.21875 -4.054688 8.296875 -3.691406 8.296875 -3.265625 C 8.296875 -2.773438 8.207031 -2.320312 8.03125 -1.90625 C 7.851562 -1.488281 7.59375 -1.125 7.25 -0.8125 C 6.90625 -0.507812 6.484375 -0.269531 5.984375 -0.09375 C 5.492188 0.0820312 4.921875 0.171875 4.265625 0.171875 C 3.523438 0.171875 2.851562 0.0507812 2.25 -0.1875 C 1.644531 -0.4375 1.128906 -0.75 0.703125 -1.125 L 1.140625 -1.84375 C 1.203125 -1.9375 1.269531 -2.003906 1.34375 -2.046875 C 1.425781 -2.097656 1.523438 -2.125 1.640625 -2.125 C 1.765625 -2.125 1.894531 -2.070312 2.03125 -1.96875 C 2.175781 -1.875 2.347656 -1.765625 2.546875 -1.640625 C 2.753906 -1.523438 3 -1.414062 3.28125 -1.3125 C 3.570312 -1.21875 3.929688 -1.171875 4.359375 -1.171875 C 4.722656 -1.171875 5.039062 -1.21875 5.3125 -1.3125 C 5.59375 -1.414062 5.820312 -1.546875 6 -1.703125 C 6.1875 -1.867188 6.320312 -2.054688 6.40625 -2.265625 C 6.5 -2.472656 6.546875 -2.695312 6.546875 -2.9375 C 6.546875 -3.226562 6.460938 -3.46875 6.296875 -3.65625 C 6.140625 -3.851562 5.929688 -4.019531 5.671875 -4.15625 C 5.410156 -4.300781 5.113281 -4.421875 4.78125 -4.515625 C 4.445312 -4.617188 4.109375 -4.726562 3.765625 -4.84375 C 3.421875 -4.957031 3.082031 -5.082031 2.75 -5.21875 C 2.414062 -5.363281 2.117188 -5.546875 1.859375 -5.765625 C 1.597656 -5.984375 1.382812 -6.253906 1.21875 -6.578125 C 1.0625 -6.898438 0.984375 -7.285156 0.984375 -7.734375 C 0.984375 -8.140625 1.066406 -8.53125 1.234375 -8.90625 C 1.410156 -9.289062 1.660156 -9.625 1.984375 -9.90625 C 2.304688 -10.1875 2.703125 -10.410156 3.171875 -10.578125 C 3.640625 -10.753906 4.175781 -10.84375 4.78125 -10.84375 C 5.476562 -10.84375 6.109375 -10.726562 6.671875 -10.5 C 7.234375 -10.28125 7.71875 -9.976562 8.125 -9.59375 Z M 7.703125 -8.90625 "/></g></g><g style="fill:#4f4f4f;fill-opacity:1;"><g transform="translate(274.18839, 101.118649)"><path style="stroke:none" d="M 1.171875 -1.15625 C 1.171875 -1.34375 1.203125 -1.515625 1.265625 -1.671875 C 1.335938 -1.835938 1.429688 -1.976562 1.546875 -2.09375 C 1.660156 -2.21875 1.796875 -2.3125 1.953125 -2.375 C 2.117188 -2.445312 2.289062 -2.484375 2.46875 -2.484375 C 2.65625 -2.484375 2.828125 -2.445312 2.984375 -2.375 C 3.148438 -2.3125 3.289062 -2.21875 3.40625 -2.09375 C 3.53125 -1.976562 3.625 -1.835938 3.6875 -1.671875 C 3.757812 -1.515625 3.796875 -1.34375 3.796875 -1.15625 C 3.796875 -0.96875 3.757812 -0.796875 3.6875 -0.640625 C 3.625 -0.484375 3.53125 -0.34375 3.40625 -0.21875 C 3.289062 -0.101562 3.148438 -0.015625 2.984375 0.046875 C 2.828125 0.117188 2.65625 0.15625 2.46875 0.15625 C 2.289062 0.15625 2.117188 0.117188 1.953125 0.046875 C 1.796875 -0.015625 1.660156 -0.101562 1.546875 -0.21875 C 1.429688 -0.34375 1.335938 -0.484375 1.265625 -0.640625 C 1.203125 -0.796875 1.171875 -0.96875 1.171875 -1.15625 Z M 1.171875 -1.15625 "/></g></g><g style="fill:#4f4f4f;fill-opacity:1;"><g transform="translate(279.160228, 101.118649)"><path style="stroke:none" d=""/></g></g><g style="fill:#4f4f4f;fill-opacity:1;"><g transform="translate(284.553416, 101.118649)"><path style="stroke:none" d="M 14.15625 -15.09375 L 14.15625 0 L 13.125 0 C 12.96875 0 12.832031 -0.0234375 12.71875 -0.078125 C 12.613281 -0.140625 12.507812 -0.238281 12.40625 -0.375 L 3.671875 -11.75 C 3.691406 -11.570312 3.703125 -11.394531 3.703125 -11.21875 C 3.710938 -11.050781 3.71875 -10.894531 3.71875 -10.75 L 3.71875 0 L 1.921875 0 L 1.921875 -15.09375 L 2.984375 -15.09375 C 3.078125 -15.09375 3.15625 -15.085938 3.21875 -15.078125 C 3.28125 -15.066406 3.332031 -15.046875 3.375 -15.015625 C 3.425781 -14.992188 3.476562 -14.957031 3.53125 -14.90625 C 3.582031 -14.863281 3.632812 -14.8125 3.6875 -14.75 L 12.421875 -3.375 C 12.398438 -3.5625 12.382812 -3.738281 12.375 -3.90625 C 12.363281 -4.082031 12.359375 -4.25 12.359375 -4.40625 L 12.359375 -15.09375 Z M 14.15625 -15.09375 "/></g></g><g style="fill:#4f4f4f;fill-opacity:1;"><g transform="translate(300.31163, 101.118649)"><path style="stroke:none" d="M 5.984375 -10.84375 C 6.765625 -10.84375 7.46875 -10.710938 8.09375 -10.453125 C 8.71875 -10.191406 9.25 -9.820312 9.6875 -9.34375 C 10.132812 -8.863281 10.472656 -8.285156 10.703125 -7.609375 C 10.941406 -6.929688 11.0625 -6.175781 11.0625 -5.34375 C 11.0625 -4.5 10.941406 -3.738281 10.703125 -3.0625 C 10.472656 -2.382812 10.132812 -1.804688 9.6875 -1.328125 C 9.25 -0.859375 8.71875 -0.492188 8.09375 -0.234375 C 7.46875 0.015625 6.765625 0.140625 5.984375 0.140625 C 5.191406 0.140625 4.484375 0.015625 3.859375 -0.234375 C 3.234375 -0.492188 2.695312 -0.859375 2.25 -1.328125 C 1.8125 -1.804688 1.472656 -2.382812 1.234375 -3.0625 C 1.003906 -3.738281 0.890625 -4.5 0.890625 -5.34375 C 0.890625 -6.175781 1.003906 -6.929688 1.234375 -7.609375 C 1.472656 -8.285156 1.8125 -8.863281 2.25 -9.34375 C 2.695312 -9.820312 3.234375 -10.191406 3.859375 -10.453125 C 4.484375 -10.710938 5.191406 -10.84375 5.984375 -10.84375 Z M 5.984375 -1.3125 C 7.035156 -1.3125 7.820312 -1.664062 8.34375 -2.375 C 8.863281 -3.082031 9.125 -4.066406 9.125 -5.328125 C 9.125 -6.597656 8.863281 -7.585938 8.34375 -8.296875 C 7.820312 -9.003906 7.035156 -9.359375 5.984375 -9.359375 C 5.453125 -9.359375 4.984375 -9.265625 4.578125 -9.078125 C 4.179688 -8.898438 3.851562 -8.640625 3.59375 -8.296875 C 3.332031 -7.953125 3.132812 -7.53125 3 -7.03125 C 2.875 -6.53125 2.8125 -5.960938 2.8125 -5.328125 C 2.8125 -4.066406 3.070312 -3.082031 3.59375 -2.375 C 4.113281 -1.664062 4.910156 -1.3125 5.984375 -1.3125 Z M 5.984375 -1.3125 "/></g></g><g style="fill:#4f4f4f;fill-opacity:1;"><g transform="translate(312.256697, 101.118649)"><path style="stroke:none" d=""/></g></g><g style="fill:#4f4f4f;fill-opacity:1;"><g transform="translate(317.649885, 101.118649)"><path style="stroke:none" d="M 2.1875 0 L 2.1875 -9.0625 L 1 -9.203125 C 0.851562 -9.234375 0.734375 -9.285156 0.640625 -9.359375 C 0.546875 -9.441406 0.5 -9.550781 0.5 -9.6875 L 0.5 -10.453125 L 2.1875 -10.453125 L 2.1875 -11.484375 C 2.1875 -12.097656 2.269531 -12.640625 2.4375 -13.109375 C 2.613281 -13.585938 2.859375 -13.988281 3.171875 -14.3125 C 3.492188 -14.644531 3.878906 -14.894531 4.328125 -15.0625 C 4.773438 -15.226562 5.28125 -15.3125 5.84375 -15.3125 C 6.320312 -15.3125 6.757812 -15.242188 7.15625 -15.109375 L 7.125 -14.171875 C 7.101562 -13.992188 7.003906 -13.898438 6.828125 -13.890625 C 6.660156 -13.878906 6.4375 -13.875 6.15625 -13.875 C 5.832031 -13.875 5.535156 -13.828125 5.265625 -13.734375 C 5.003906 -13.648438 4.78125 -13.515625 4.59375 -13.328125 C 4.40625 -13.140625 4.257812 -12.890625 4.15625 -12.578125 C 4.050781 -12.273438 4 -11.894531 4 -11.4375 L 4 -10.453125 L 7.078125 -10.453125 L 7.078125 -9.09375 L 4.0625 -9.09375 L 4.0625 0 Z M 2.1875 0 "/></g></g><g style="fill:#4f4f4f;fill-opacity:1;"><g transform="translate(325.033909, 101.118649)"><path style="stroke:none" d="M 10.25 -10.671875 L 10.25 0 L 9.140625 0 C 8.867188 0 8.703125 -0.128906 8.640625 -0.390625 L 8.484375 -1.53125 C 8.023438 -1.019531 7.503906 -0.609375 6.921875 -0.296875 C 6.347656 0.015625 5.691406 0.171875 4.953125 0.171875 C 4.367188 0.171875 3.851562 0.078125 3.40625 -0.109375 C 2.957031 -0.304688 2.582031 -0.582031 2.28125 -0.9375 C 1.976562 -1.289062 1.75 -1.710938 1.59375 -2.203125 C 1.445312 -2.703125 1.375 -3.253906 1.375 -3.859375 L 1.375 -10.671875 L 3.25 -10.671875 L 3.25 -3.859375 C 3.25 -3.054688 3.429688 -2.429688 3.796875 -1.984375 C 4.171875 -1.546875 4.738281 -1.328125 5.5 -1.328125 C 6.050781 -1.328125 6.566406 -1.457031 7.046875 -1.71875 C 7.523438 -1.976562 7.972656 -2.34375 8.390625 -2.8125 L 8.390625 -10.671875 Z M 10.25 -10.671875 "/></g></g><g style="fill:#4f4f4f;fill-opacity:1;"><g transform="translate(336.778842, 101.118649)"><path style="stroke:none" d="M 7.703125 -8.90625 C 7.617188 -8.75 7.488281 -8.671875 7.3125 -8.671875 C 7.207031 -8.671875 7.085938 -8.707031 6.953125 -8.78125 C 6.816406 -8.863281 6.648438 -8.953125 6.453125 -9.046875 C 6.265625 -9.140625 6.035156 -9.226562 5.765625 -9.3125 C 5.503906 -9.394531 5.191406 -9.4375 4.828125 -9.4375 C 4.503906 -9.4375 4.21875 -9.394531 3.96875 -9.3125 C 3.71875 -9.226562 3.5 -9.113281 3.3125 -8.96875 C 3.132812 -8.832031 3 -8.671875 2.90625 -8.484375 C 2.8125 -8.304688 2.765625 -8.109375 2.765625 -7.890625 C 2.765625 -7.617188 2.84375 -7.390625 3 -7.203125 C 3.164062 -7.015625 3.375 -6.851562 3.625 -6.71875 C 3.882812 -6.59375 4.179688 -6.476562 4.515625 -6.375 C 4.847656 -6.269531 5.1875 -6.160156 5.53125 -6.046875 C 5.882812 -5.929688 6.222656 -5.800781 6.546875 -5.65625 C 6.878906 -5.519531 7.175781 -5.347656 7.4375 -5.140625 C 7.695312 -4.929688 7.90625 -4.671875 8.0625 -4.359375 C 8.21875 -4.054688 8.296875 -3.691406 8.296875 -3.265625 C 8.296875 -2.773438 8.207031 -2.320312 8.03125 -1.90625 C 7.851562 -1.488281 7.59375 -1.125 7.25 -0.8125 C 6.90625 -0.507812 6.484375 -0.269531 5.984375 -0.09375 C 5.492188 0.0820312 4.921875 0.171875 4.265625 0.171875 C 3.523438 0.171875 2.851562 0.0507812 2.25 -0.1875 C 1.644531 -0.4375 1.128906 -0.75 0.703125 -1.125 L 1.140625 -1.84375 C 1.203125 -1.9375 1.269531 -2.003906 1.34375 -2.046875 C 1.425781 -2.097656 1.523438 -2.125 1.640625 -2.125 C 1.765625 -2.125 1.894531 -2.070312 2.03125 -1.96875 C 2.175781 -1.875 2.347656 -1.765625 2.546875 -1.640625 C 2.753906 -1.523438 3 -1.414062 3.28125 -1.3125 C 3.570312 -1.21875 3.929688 -1.171875 4.359375 -1.171875 C 4.722656 -1.171875 5.039062 -1.21875 5.3125 -1.3125 C 5.59375 -1.414062 5.820312 -1.546875 6 -1.703125 C 6.1875 -1.867188 6.320312 -2.054688 6.40625 -2.265625 C 6.5 -2.472656 6.546875 -2.695312 6.546875 -2.9375 C 6.546875 -3.226562 6.460938 -3.46875 6.296875 -3.65625 C 6.140625 -3.851562 5.929688 -4.019531 5.671875 -4.15625 C 5.410156 -4.300781 5.113281 -4.421875 4.78125 -4.515625 C 4.445312 -4.617188 4.109375 -4.726562 3.765625 -4.84375 C 3.421875 -4.957031 3.082031 -5.082031 2.75 -5.21875 C 2.414062 -5.363281 2.117188 -5.546875 1.859375 -5.765625 C 1.597656 -5.984375 1.382812 -6.253906 1.21875 -6.578125 C 1.0625 -6.898438 0.984375 -7.285156 0.984375 -7.734375 C 0.984375 -8.140625 1.066406 -8.53125 1.234375 -8.90625 C 1.410156 -9.289062 1.660156 -9.625 1.984375 -9.90625 C 2.304688 -10.1875 2.703125 -10.410156 3.171875 -10.578125 C 3.640625 -10.753906 4.175781 -10.84375 4.78125 -10.84375 C 5.476562 -10.84375 6.109375 -10.726562 6.671875 -10.5 C 7.234375 -10.28125 7.71875 -9.976562 8.125 -9.59375 Z M 7.703125 -8.90625 "/></g></g><g style="fill:#4f4f4f;fill-opacity:1;"><g transform="translate(345.900902, 101.118649)"><path style="stroke:none" d="M 7.703125 -8.90625 C 7.617188 -8.75 7.488281 -8.671875 7.3125 -8.671875 C 7.207031 -8.671875 7.085938 -8.707031 6.953125 -8.78125 C 6.816406 -8.863281 6.648438 -8.953125 6.453125 -9.046875 C 6.265625 -9.140625 6.035156 -9.226562 5.765625 -9.3125 C 5.503906 -9.394531 5.191406 -9.4375 4.828125 -9.4375 C 4.503906 -9.4375 4.21875 -9.394531 3.96875 -9.3125 C 3.71875 -9.226562 3.5 -9.113281 3.3125 -8.96875 C 3.132812 -8.832031 3 -8.671875 2.90625 -8.484375 C 2.8125 -8.304688 2.765625 -8.109375 2.765625 -7.890625 C 2.765625 -7.617188 2.84375 -7.390625 3 -7.203125 C 3.164062 -7.015625 3.375 -6.851562 3.625 -6.71875 C 3.882812 -6.59375 4.179688 -6.476562 4.515625 -6.375 C 4.847656 -6.269531 5.1875 -6.160156 5.53125 -6.046875 C 5.882812 -5.929688 6.222656 -5.800781 6.546875 -5.65625 C 6.878906 -5.519531 7.175781 -5.347656 7.4375 -5.140625 C 7.695312 -4.929688 7.90625 -4.671875 8.0625 -4.359375 C 8.21875 -4.054688 8.296875 -3.691406 8.296875 -3.265625 C 8.296875 -2.773438 8.207031 -2.320312 8.03125 -1.90625 C 7.851562 -1.488281 7.59375 -1.125 7.25 -0.8125 C 6.90625 -0.507812 6.484375 -0.269531 5.984375 -0.09375 C 5.492188 0.0820312 4.921875 0.171875 4.265625 0.171875 C 3.523438 0.171875 2.851562 0.0507812 2.25 -0.1875 C 1.644531 -0.4375 1.128906 -0.75 0.703125 -1.125 L 1.140625 -1.84375 C 1.203125 -1.9375 1.269531 -2.003906 1.34375 -2.046875 C 1.425781 -2.097656 1.523438 -2.125 1.640625 -2.125 C 1.765625 -2.125 1.894531 -2.070312 2.03125 -1.96875 C 2.175781 -1.875 2.347656 -1.765625 2.546875 -1.640625 C 2.753906 -1.523438 3 -1.414062 3.28125 -1.3125 C 3.570312 -1.21875 3.929688 -1.171875 4.359375 -1.171875 C 4.722656 -1.171875 5.039062 -1.21875 5.3125 -1.3125 C 5.59375 -1.414062 5.820312 -1.546875 6 -1.703125 C 6.1875 -1.867188 6.320312 -2.054688 6.40625 -2.265625 C 6.5 -2.472656 6.546875 -2.695312 6.546875 -2.9375 C 6.546875 -3.226562 6.460938 -3.46875 6.296875 -3.65625 C 6.140625 -3.851562 5.929688 -4.019531 5.671875 -4.15625 C 5.410156 -4.300781 5.113281 -4.421875 4.78125 -4.515625 C 4.445312 -4.617188 4.109375 -4.726562 3.765625 -4.84375 C 3.421875 -4.957031 3.082031 -5.082031 2.75 -5.21875 C 2.414062 -5.363281 2.117188 -5.546875 1.859375 -5.765625 C 1.597656 -5.984375 1.382812 -6.253906 1.21875 -6.578125 C 1.0625 -6.898438 0.984375 -7.285156 0.984375 -7.734375 C 0.984375 -8.140625 1.066406 -8.53125 1.234375 -8.90625 C 1.410156 -9.289062 1.660156 -9.625 1.984375 -9.90625 C 2.304688 -10.1875 2.703125 -10.410156 3.171875 -10.578125 C 3.640625 -10.753906 4.175781 -10.84375 4.78125 -10.84375 C 5.476562 -10.84375 6.109375 -10.726562 6.671875 -10.5 C 7.234375 -10.28125 7.71875 -9.976562 8.125 -9.59375 Z M 7.703125 -8.90625 "/></g></g><g style="fill:#4f4f4f;fill-opacity:1;"><g transform="translate(355.022962, 101.118649)"><path style="stroke:none" d="M 1.171875 -1.15625 C 1.171875 -1.34375 1.203125 -1.515625 1.265625 -1.671875 C 1.335938 -1.835938 1.429688 -1.976562 1.546875 -2.09375 C 1.660156 -2.21875 1.796875 -2.3125 1.953125 -2.375 C 2.117188 -2.445312 2.289062 -2.484375 2.46875 -2.484375 C 2.65625 -2.484375 2.828125 -2.445312 2.984375 -2.375 C 3.148438 -2.3125 3.289062 -2.21875 3.40625 -2.09375 C 3.53125 -1.976562 3.625 -1.835938 3.6875 -1.671875 C 3.757812 -1.515625 3.796875 -1.34375 3.796875 -1.15625 C 3.796875 -0.96875 3.757812 -0.796875 3.6875 -0.640625 C 3.625 -0.484375 3.53125 -0.34375 3.40625 -0.21875 C 3.289062 -0.101562 3.148438 -0.015625 2.984375 0.046875 C 2.828125 0.117188 2.65625 0.15625 2.46875 0.15625 C 2.289062 0.15625 2.117188 0.117188 1.953125 0.046875 C 1.796875 -0.015625 1.660156 -0.101562 1.546875 -0.21875 C 1.429688 -0.34375 1.335938 -0.484375 1.265625 -0.640625 C 1.203125 -0.796875 1.171875 -0.96875 1.171875 -1.15625 Z M 1.171875 -1.15625 "/></g></g></g></svg>
