<svg xmlns="http://www.w3.org/2000/svg" xmlns:xlink="http://www.w3.org/1999/xlink" width="500" zoomAndPan="magnify" viewBox="0 0 375 149.999998" height="200" preserveAspectRatio="xMidYMid meet" version="1.2"><defs><clipPath id="756e16cdbc"><path d="M 26.890625 31.535156 L 139.390625 31.535156 L 139.390625 118.535156 L 26.890625 118.535156 Z M 26.890625 31.535156 "/></clipPath></defs><g id="f8830888bd"><g clip-rule="nonzero" clip-path="url(#756e16cdbc)"><path style=" stroke:none;fill-rule:nonzero;fill:#179b9e;fill-opacity:1;" d="M 59.117188 118.453125 C 57.160156 118.453125 55.375 117.292969 54.589844 115.476562 L 42.121094 86.515625 L 31.84375 86.515625 C 29.121094 86.515625 26.917969 84.308594 26.917969 81.585938 C 26.917969 78.867188 29.121094 76.660156 31.84375 76.660156 L 45.363281 76.660156 C 47.332031 76.660156 49.109375 77.832031 49.890625 79.640625 L 58.222656 98.992188 L 76.851562 35.085938 C 77.46875 32.964844 79.429688 31.582031 81.632812 31.535156 C 83.84375 31.5625 85.769531 33.054688 86.339844 35.1875 L 99.328125 83.605469 L 106.945312 61.15625 C 107.613281 59.1875 109.445312 57.847656 111.527344 57.8125 C 111.554688 57.8125 111.582031 57.8125 111.609375 57.8125 C 113.65625 57.8125 115.492188 59.078125 116.21875 60.992188 L 123.496094 80.207031 L 134.257812 80.207031 C 136.980469 80.207031 139.1875 82.414062 139.1875 85.136719 C 139.1875 87.855469 136.980469 90.0625 134.257812 90.0625 L 120.09375 90.0625 C 118.042969 90.0625 116.210938 88.796875 115.484375 86.878906 L 111.863281 77.324219 L 103.441406 102.144531 C 102.742188 104.203125 100.796875 105.539062 98.613281 105.488281 C 96.445312 105.417969 94.578125 103.933594 94.015625 101.839844 L 81.382812 54.746094 L 63.847656 114.90625 C 63.265625 116.902344 61.492188 118.316406 59.421875 118.445312 C 59.316406 118.453125 59.214844 118.453125 59.117188 118.453125 "/></g><g style="fill:#179b9e;fill-opacity:1;"><g transform="translate(125.952593, 89.224053)"><path style="stroke:none" d="M 2.40625 -6.515625 L 2.40625 -44.875 C 2.40625 -46.019531 2.804688 -46.988281 3.609375 -47.78125 C 4.410156 -48.582031 5.378906 -48.984375 6.515625 -48.984375 L 20.765625 -48.984375 C 23.171875 -48.984375 25.609375 -48.785156 28.078125 -48.390625 C 30.546875 -47.992188 32.8125 -47.242188 34.875 -46.140625 C 36.945312 -45.046875 38.613281 -43.453125 39.875 -41.359375 C 41.144531 -39.273438 41.78125 -36.546875 41.78125 -33.171875 C 41.78125 -30.210938 41.269531 -27.707031 40.25 -25.65625 C 39.238281 -23.613281 37.890625 -21.96875 36.203125 -20.71875 C 34.515625 -19.476562 32.601562 -18.582031 30.46875 -18.03125 C 28.34375 -17.488281 26.140625 -17.21875 23.859375 -17.21875 L 16.203125 -17.21875 L 16.203125 -6.515625 C 16.203125 -4.617188 15.523438 -2.992188 14.171875 -1.640625 C 12.828125 -0.296875 11.203125 0.375 9.296875 0.375 C 7.398438 0.375 5.773438 -0.296875 4.421875 -1.640625 C 3.078125 -2.992188 2.40625 -4.617188 2.40625 -6.515625 Z M 20.0625 -38.609375 L 16.203125 -38.609375 L 16.203125 -27.53125 L 20.125 -27.53125 C 21.476562 -27.53125 22.742188 -27.65625 23.921875 -27.90625 C 25.109375 -28.164062 26.054688 -28.6875 26.765625 -29.46875 C 27.484375 -30.25 27.84375 -31.398438 27.84375 -32.921875 C 27.84375 -34.429688 27.484375 -35.597656 26.765625 -36.421875 C 26.054688 -37.242188 25.117188 -37.8125 23.953125 -38.125 C 22.796875 -38.445312 21.5 -38.609375 20.0625 -38.609375 Z M 20.0625 -38.609375 "/></g></g><g style="fill:#179b9e;fill-opacity:1;"><g transform="translate(168.287696, 89.224053)"><path style="stroke:none" d="M 2.09375 -9.5625 L 2.09375 -27.53125 C 2.09375 -29.300781 2.710938 -30.816406 3.953125 -32.078125 C 5.203125 -33.347656 6.734375 -33.984375 8.546875 -33.984375 C 10.316406 -33.984375 11.832031 -33.347656 13.09375 -32.078125 C 14.363281 -30.816406 15 -29.300781 15 -27.53125 L 15 -15.5 C 15 -13.8125 15.207031 -12.429688 15.625 -11.359375 C 16.050781 -10.285156 16.941406 -9.75 18.296875 -9.75 C 19.347656 -9.75 20.191406 -10.050781 20.828125 -10.65625 C 21.460938 -11.269531 21.914062 -12.019531 22.1875 -12.90625 C 22.457031 -13.789062 22.59375 -14.65625 22.59375 -15.5 L 22.59375 -27.71875 C 22.59375 -29.445312 23.203125 -30.921875 24.421875 -32.140625 C 25.648438 -33.367188 27.128906 -33.984375 28.859375 -33.984375 C 30.585938 -33.984375 32.050781 -33.367188 33.25 -32.140625 C 34.457031 -30.921875 35.0625 -29.445312 35.0625 -27.71875 L 35.0625 -5.5 C 35.0625 -3.8125 34.46875 -2.351562 33.28125 -1.125 C 32.101562 0.09375 30.648438 0.703125 28.921875 0.703125 C 27.617188 0.703125 26.546875 0.457031 25.703125 -0.03125 C 24.859375 -0.519531 24.210938 -1.066406 23.765625 -1.671875 C 23.328125 -2.285156 23.019531 -2.832031 22.84375 -3.3125 C 22.675781 -3.800781 22.59375 -4.046875 22.59375 -4.046875 C 22.09375 -3.460938 21.363281 -2.789062 20.40625 -2.03125 C 19.457031 -1.269531 18.273438 -0.613281 16.859375 -0.0625 C 15.453125 0.488281 13.753906 0.765625 11.765625 0.765625 C 8.429688 0.765625 5.984375 -0.179688 4.421875 -2.078125 C 2.867188 -3.984375 2.09375 -6.476562 2.09375 -9.5625 Z M 2.09375 -9.5625 "/></g></g><g style="fill:#179b9e;fill-opacity:1;"><g transform="translate(205.750158, 89.224053)"><path style="stroke:none" d="M 15 -43.046875 L 15 -5.953125 C 15 -4.222656 14.382812 -2.734375 13.15625 -1.484375 C 11.9375 -0.242188 10.460938 0.375 8.734375 0.375 C 7.003906 0.375 5.515625 -0.242188 4.265625 -1.484375 C 3.023438 -2.734375 2.40625 -4.222656 2.40625 -5.953125 L 2.40625 -43.046875 C 2.40625 -44.773438 3.023438 -46.257812 4.265625 -47.5 C 5.515625 -48.75 7.003906 -49.375 8.734375 -49.375 C 10.460938 -49.375 11.9375 -48.75 13.15625 -47.5 C 14.382812 -46.257812 15 -44.773438 15 -43.046875 Z M 15 -43.046875 "/></g></g><g style="fill:#179b9e;fill-opacity:1;"><g transform="translate(223.152477, 89.224053)"><path style="stroke:none" d="M 17.53125 0.890625 C 16.007812 0.890625 14.351562 0.78125 12.5625 0.5625 C 10.769531 0.351562 9.070312 -0.0078125 7.46875 -0.53125 C 5.863281 -1.0625 4.546875 -1.769531 3.515625 -2.65625 C 2.484375 -3.539062 1.96875 -4.640625 1.96875 -5.953125 C 1.96875 -7.296875 2.421875 -8.398438 3.328125 -9.265625 C 4.234375 -10.140625 5.296875 -10.578125 6.515625 -10.578125 C 7.660156 -10.578125 8.707031 -10.351562 9.65625 -9.90625 C 10.601562 -9.457031 11.601562 -9 12.65625 -8.53125 C 13.707031 -8.070312 14.972656 -7.84375 16.453125 -7.84375 C 17.335938 -7.84375 18.140625 -7.988281 18.859375 -8.28125 C 19.578125 -8.582031 19.9375 -9.007812 19.9375 -9.5625 C 19.9375 -9.644531 19.84375 -9.875 19.65625 -10.25 C 19.46875 -10.632812 18.972656 -11.035156 18.171875 -11.453125 C 17.367188 -11.878906 16.035156 -12.195312 14.171875 -12.40625 C 11.941406 -12.832031 9.894531 -13.507812 8.03125 -14.4375 C 6.175781 -15.363281 4.710938 -16.570312 3.640625 -18.0625 C 2.566406 -19.5625 2.03125 -21.367188 2.03125 -23.484375 C 2.03125 -25.890625 2.679688 -27.90625 3.984375 -29.53125 C 5.296875 -31.15625 7.046875 -32.378906 9.234375 -33.203125 C 11.429688 -34.023438 13.859375 -34.4375 16.515625 -34.4375 C 18.921875 -34.4375 21.15625 -34.222656 23.21875 -33.796875 C 25.289062 -33.378906 26.957031 -32.71875 28.21875 -31.8125 C 29.488281 -30.90625 30.125 -29.691406 30.125 -28.171875 C 30.125 -26.859375 29.671875 -25.789062 28.765625 -24.96875 C 27.859375 -24.144531 26.835938 -23.734375 25.703125 -23.734375 C 24.773438 -23.734375 23.890625 -23.890625 23.046875 -24.203125 C 22.203125 -24.523438 21.289062 -24.84375 20.3125 -25.15625 C 19.34375 -25.476562 18.207031 -25.640625 16.90625 -25.640625 C 16.101562 -25.640625 15.507812 -25.5 15.125 -25.21875 C 14.75 -24.945312 14.5625 -24.644531 14.5625 -24.3125 C 14.5625 -23.675781 15.015625 -23.082031 15.921875 -22.53125 C 16.828125 -21.976562 18.289062 -21.535156 20.3125 -21.203125 C 22.300781 -20.910156 24.222656 -20.375 26.078125 -19.59375 C 27.929688 -18.8125 29.445312 -17.691406 30.625 -16.234375 C 31.8125 -14.773438 32.40625 -12.863281 32.40625 -10.5 C 32.40625 -7.039062 31.078125 -4.273438 28.421875 -2.203125 C 25.765625 -0.140625 22.132812 0.890625 17.53125 0.890625 Z M 17.53125 0.890625 "/></g></g><g style="fill:#f46246;fill-opacity:1;"><g transform="translate(256.440867, 89.224053)"><path style="stroke:none" d="M 2.40625 -44.875 C 2.40625 -46.019531 2.804688 -46.988281 3.609375 -47.78125 C 4.410156 -48.582031 5.378906 -48.984375 6.515625 -48.984375 L 36.90625 -48.984375 C 38.382812 -48.984375 39.628906 -48.476562 40.640625 -47.46875 C 41.648438 -46.457031 42.15625 -45.210938 42.15625 -43.734375 C 42.15625 -42.304688 41.648438 -41.070312 40.640625 -40.03125 C 39.628906 -39 38.382812 -38.484375 36.90625 -38.484375 L 16.203125 -38.484375 L 16.203125 -30.25 L 30.828125 -30.25 C 32.304688 -30.25 33.550781 -29.742188 34.5625 -28.734375 C 35.570312 -27.722656 36.078125 -26.476562 36.078125 -25 C 36.078125 -23.519531 35.570312 -22.265625 34.5625 -21.234375 C 33.550781 -20.203125 32.304688 -19.6875 30.828125 -19.6875 L 16.203125 -19.6875 L 16.203125 -10.5 L 37.28125 -10.5 C 38.757812 -10.5 40.003906 -9.992188 41.015625 -8.984375 C 42.023438 -7.972656 42.53125 -6.726562 42.53125 -5.25 C 42.53125 -3.8125 42.023438 -2.578125 41.015625 -1.546875 C 40.003906 -0.515625 38.757812 0 37.28125 0 L 6.515625 0 C 5.378906 0 4.410156 -0.398438 3.609375 -1.203125 C 2.804688 -2.003906 2.40625 -2.972656 2.40625 -4.109375 Z M 2.40625 -44.875 "/></g></g><g style="fill:#f46246;fill-opacity:1;"><g transform="translate(300.041595, 89.224053)"><path style="stroke:none" d="M 15.890625 0 L 6.515625 0 C 5.378906 0 4.410156 -0.398438 3.609375 -1.203125 C 2.804688 -2.003906 2.40625 -2.972656 2.40625 -4.109375 L 2.40625 -44.875 C 2.40625 -46.019531 2.804688 -46.988281 3.609375 -47.78125 C 4.410156 -48.582031 5.378906 -48.984375 6.515625 -48.984375 L 18.296875 -48.984375 C 21.835938 -48.984375 25.296875 -48.632812 28.671875 -47.9375 C 32.046875 -47.25 35.082031 -46.039062 37.78125 -44.3125 C 40.488281 -42.582031 42.632812 -40.175781 44.21875 -37.09375 C 45.800781 -34.007812 46.59375 -30.082031 46.59375 -25.3125 C 46.59375 -20.925781 45.96875 -17.234375 44.71875 -14.234375 C 43.476562 -11.242188 41.789062 -8.804688 39.65625 -6.921875 C 37.519531 -5.046875 35.125 -3.601562 32.46875 -2.59375 C 29.8125 -1.582031 27.046875 -0.894531 24.171875 -0.53125 C 21.304688 -0.175781 18.546875 0 15.890625 0 Z M 16.328125 -38.546875 L 16.328125 -10.5 L 17.65625 -10.5 C 22.894531 -10.5 26.722656 -11.804688 29.140625 -14.421875 C 31.566406 -17.046875 32.78125 -20.59375 32.78125 -25.0625 C 32.78125 -28.3125 32.125 -30.90625 30.8125 -32.84375 C 29.507812 -34.789062 27.625 -36.21875 25.15625 -37.125 C 22.6875 -38.03125 19.742188 -38.503906 16.328125 -38.546875 Z M 16.328125 -38.546875 "/></g></g></g></svg>
