<svg xmlns="http://www.w3.org/2000/svg" xmlns:xlink="http://www.w3.org/1999/xlink" width="500" zoomAndPan="magnify" viewBox="0 0 375 149.999998" height="200" preserveAspectRatio="xMidYMid meet" version="1.2"><defs><clipPath id="2631769c81"><path d="M 25 19.910156 L 129.6875 19.910156 L 129.6875 130.289062 L 25 130.289062 Z M 25 19.910156 "/></clipPath></defs><g id="447a1b3c57"><g style="fill:#5b8def;fill-opacity:1;"><g transform="translate(135.973414, 70.844111)"><path style="stroke:none" d="M 3.53125 -7.140625 C 2.332031 -8.609375 1.734375 -9.929688 1.734375 -11.109375 C 1.734375 -12.296875 2.722656 -13.859375 4.703125 -15.796875 C 5.859375 -16.898438 7.082031 -17.453125 8.375 -17.453125 C 9.675781 -17.453125 11.476562 -16.296875 13.78125 -13.984375 C 14.425781 -13.203125 15.347656 -12.453125 16.546875 -11.734375 C 17.753906 -11.023438 18.863281 -10.671875 19.875 -10.671875 C 24.175781 -10.671875 26.328125 -12.425781 26.328125 -15.9375 C 26.328125 -17 25.734375 -17.882812 24.546875 -18.59375 C 23.367188 -19.3125 21.90625 -19.832031 20.15625 -20.15625 C 18.40625 -20.476562 16.507812 -20.992188 14.46875 -21.703125 C 12.4375 -22.421875 10.546875 -23.265625 8.796875 -24.234375 C 7.046875 -25.210938 5.578125 -26.75 4.390625 -28.84375 C 3.210938 -30.945312 2.625 -33.476562 2.625 -36.4375 C 2.625 -40.5 4.132812 -44.039062 7.15625 -47.0625 C 10.1875 -50.09375 14.3125 -51.609375 19.53125 -51.609375 C 22.300781 -51.609375 24.828125 -51.25 27.109375 -50.53125 C 29.398438 -49.8125 30.984375 -49.082031 31.859375 -48.34375 L 33.59375 -47.03125 C 35.019531 -45.6875 35.734375 -44.550781 35.734375 -43.625 C 35.734375 -42.707031 35.179688 -41.441406 34.078125 -39.828125 C 32.503906 -37.515625 30.890625 -36.359375 29.234375 -36.359375 C 28.265625 -36.359375 27.0625 -36.820312 25.625 -37.75 C 25.488281 -37.84375 25.222656 -38.070312 24.828125 -38.4375 C 24.441406 -38.8125 24.085938 -39.113281 23.765625 -39.34375 C 22.785156 -39.945312 21.546875 -40.25 20.046875 -40.25 C 18.546875 -40.25 17.300781 -39.890625 16.3125 -39.171875 C 15.320312 -38.453125 14.828125 -37.457031 14.828125 -36.1875 C 14.828125 -34.914062 15.414062 -33.890625 16.59375 -33.109375 C 17.769531 -32.328125 19.234375 -31.796875 20.984375 -31.515625 C 22.742188 -31.234375 24.660156 -30.804688 26.734375 -30.234375 C 28.816406 -29.660156 30.734375 -28.957031 32.484375 -28.125 C 34.242188 -27.289062 35.710938 -25.84375 36.890625 -23.78125 C 38.066406 -21.726562 38.65625 -19.203125 38.65625 -16.203125 C 38.65625 -13.203125 38.050781 -10.554688 36.84375 -8.265625 C 35.644531 -5.984375 34.078125 -4.222656 32.140625 -2.984375 C 28.398438 -0.535156 24.40625 0.6875 20.15625 0.6875 C 17.988281 0.6875 15.929688 0.421875 13.984375 -0.109375 C 12.046875 -0.640625 10.476562 -1.296875 9.28125 -2.078125 C 6.832031 -3.554688 5.125 -4.988281 4.15625 -6.375 Z M 3.53125 -7.140625 "/></g></g><g style="fill:#5b8def;fill-opacity:1;"><g transform="translate(176.348595, 70.844111)"><path style="stroke:none" d="M 1.734375 -18.21875 C 1.734375 -23.757812 3.671875 -28.328125 7.546875 -31.921875 C 11.429688 -35.523438 15.863281 -37.328125 20.84375 -37.328125 C 25.832031 -37.328125 30.242188 -35.535156 34.078125 -31.953125 C 37.910156 -28.378906 39.828125 -23.820312 39.828125 -18.28125 C 39.828125 -14.445312 38.832031 -11.039062 36.84375 -8.0625 C 34.863281 -5.09375 32.453125 -2.898438 29.609375 -1.484375 C 26.765625 -0.078125 23.816406 0.625 20.765625 0.625 C 17.722656 0.625 14.769531 -0.125 11.90625 -1.625 C 9.050781 -3.125 6.640625 -5.335938 4.671875 -8.265625 C 2.710938 -11.203125 1.734375 -14.519531 1.734375 -18.21875 Z M 16.203125 -13.265625 C 17.679688 -12.128906 19.179688 -11.5625 20.703125 -11.5625 C 22.234375 -11.5625 23.757812 -12.140625 25.28125 -13.296875 C 26.800781 -14.453125 27.5625 -16.160156 27.5625 -18.421875 C 27.5625 -20.679688 26.84375 -22.363281 25.40625 -23.46875 C 23.976562 -24.582031 22.429688 -25.140625 20.765625 -25.140625 C 19.109375 -25.140625 17.5625 -24.5625 16.125 -23.40625 C 14.695312 -22.257812 13.984375 -20.566406 13.984375 -18.328125 C 13.984375 -16.085938 14.722656 -14.398438 16.203125 -13.265625 Z M 16.203125 -13.265625 "/></g></g><g style="fill:#5b8def;fill-opacity:1;"><g transform="translate(217.901087, 70.844111)"><path style="stroke:none" d="M 18.984375 -0.140625 C 14.316406 -0.140625 10.445312 -1.90625 7.375 -5.4375 C 4.300781 -8.96875 2.765625 -13.273438 2.765625 -18.359375 L 2.765625 -30.484375 C 2.765625 -31.585938 2.800781 -32.390625 2.875 -32.890625 C 2.945312 -33.398438 3.144531 -34.003906 3.46875 -34.703125 C 4.113281 -35.953125 5.910156 -36.578125 8.859375 -36.578125 C 12.097656 -36.578125 13.992188 -35.695312 14.546875 -33.9375 C 14.828125 -33.195312 14.96875 -32.019531 14.96875 -30.40625 L 14.96875 -18.28125 C 14.96875 -16.394531 15.507812 -14.921875 16.59375 -13.859375 C 17.675781 -12.796875 19.128906 -12.265625 20.953125 -12.265625 C 22.773438 -12.265625 24.25 -12.816406 25.375 -13.921875 C 26.507812 -15.023438 27.078125 -16.476562 27.078125 -18.28125 L 27.078125 -30.546875 C 27.078125 -31.609375 27.113281 -32.40625 27.1875 -32.9375 C 27.257812 -33.46875 27.476562 -34.078125 27.84375 -34.765625 C 28.445312 -35.972656 30.222656 -36.578125 33.171875 -36.578125 C 36.085938 -36.578125 37.867188 -35.953125 38.515625 -34.703125 C 38.835938 -34.003906 39.03125 -33.390625 39.09375 -32.859375 C 39.164062 -32.328125 39.203125 -31.535156 39.203125 -30.484375 L 39.203125 -5.953125 C 39.203125 -4.941406 39.164062 -4.171875 39.09375 -3.640625 C 39.03125 -3.109375 38.8125 -2.519531 38.4375 -1.875 C 37.75 -0.664062 35.972656 -0.0625 33.109375 -0.0625 C 30.296875 -0.0625 28.5625 -0.617188 27.90625 -1.734375 C 27.445312 -2.515625 27.21875 -3.460938 27.21875 -4.578125 C 27.03125 -4.253906 26.613281 -3.789062 25.96875 -3.1875 C 25.320312 -2.582031 24.703125 -2.070312 24.109375 -1.65625 C 22.535156 -0.644531 20.828125 -0.140625 18.984375 -0.140625 Z M 18.984375 -0.140625 "/></g></g><g style="fill:#5b8def;fill-opacity:1;"><g transform="translate(259.869114, 70.844111)"><path style="stroke:none" d="M 23.0625 -36.5 C 27.675781 -36.5 31.519531 -34.734375 34.59375 -31.203125 C 37.664062 -27.671875 39.203125 -23.363281 39.203125 -18.28125 L 39.203125 -6.09375 C 39.203125 -5.03125 39.164062 -4.234375 39.09375 -3.703125 C 39.03125 -3.171875 38.835938 -2.582031 38.515625 -1.9375 C 37.867188 -0.6875 36.066406 -0.0625 33.109375 -0.0625 C 29.828125 -0.0625 27.929688 -0.914062 27.421875 -2.625 C 27.148438 -3.414062 27.015625 -4.597656 27.015625 -6.171875 L 27.015625 -18.359375 C 27.015625 -20.242188 26.472656 -21.71875 25.390625 -22.78125 C 24.304688 -23.84375 22.847656 -24.375 21.015625 -24.375 C 19.191406 -24.375 17.710938 -23.820312 16.578125 -22.71875 C 15.453125 -21.613281 14.890625 -20.160156 14.890625 -18.359375 L 14.890625 -6.09375 C 14.890625 -5.03125 14.851562 -4.234375 14.78125 -3.703125 C 14.71875 -3.171875 14.5 -2.582031 14.125 -1.9375 C 13.53125 -0.6875 11.753906 -0.0625 8.796875 -0.0625 C 5.890625 -0.0625 4.113281 -0.6875 3.46875 -1.9375 C 3.144531 -2.632812 2.945312 -3.25 2.875 -3.78125 C 2.800781 -4.3125 2.765625 -5.109375 2.765625 -6.171875 L 2.765625 -30.6875 C 2.765625 -31.695312 2.800781 -32.46875 2.875 -33 C 2.945312 -33.53125 3.164062 -34.117188 3.53125 -34.765625 C 4.175781 -35.921875 5.953125 -36.5 8.859375 -36.5 C 11.679688 -36.5 13.414062 -35.96875 14.0625 -34.90625 C 14.519531 -34.125 14.75 -33.175781 14.75 -32.0625 C 14.9375 -32.394531 15.351562 -32.859375 16 -33.453125 C 16.644531 -34.054688 17.269531 -34.539062 17.875 -34.90625 C 19.4375 -35.96875 21.164062 -36.5 23.0625 -36.5 Z M 23.0625 -36.5 "/></g></g><g style="fill:#5b8def;fill-opacity:1;"><g transform="translate(301.837142, 70.844111)"><path style="stroke:none" d="M 27.25 -51.703125 C 27.601562 -52.378906 28.21875 -52.851562 29.09375 -53.125 C 29.96875 -53.40625 31.128906 -53.546875 32.578125 -53.546875 C 34.035156 -53.546875 35.203125 -53.40625 36.078125 -53.125 C 36.960938 -52.851562 37.578125 -52.367188 37.921875 -51.671875 C 38.265625 -50.984375 38.472656 -50.375 38.546875 -49.84375 C 38.617188 -49.3125 38.65625 -48.515625 38.65625 -47.453125 L 38.65625 -6.09375 C 38.65625 -5.03125 38.617188 -4.234375 38.546875 -3.703125 C 38.472656 -3.171875 38.253906 -2.582031 37.890625 -1.9375 C 37.191406 -0.6875 35.238281 -0.0625 32.03125 -0.0625 C 28.820312 -0.0625 27.035156 -1.195312 26.671875 -3.46875 C 24.734375 -1.25 22.03125 -0.140625 18.5625 -0.140625 C 14.40625 -0.140625 10.617188 -1.953125 7.203125 -5.578125 C 3.785156 -9.203125 2.078125 -13.425781 2.078125 -18.25 C 2.078125 -23.070312 3.796875 -27.304688 7.234375 -30.953125 C 10.679688 -34.609375 14.457031 -36.4375 18.5625 -36.4375 C 21.976562 -36.4375 24.632812 -35.28125 26.53125 -32.96875 L 26.53125 -47.515625 C 26.53125 -48.578125 26.5625 -49.375 26.625 -49.90625 C 26.695312 -50.4375 26.90625 -51.035156 27.25 -51.703125 Z M 16 -14.0625 C 17.195312 -12.8125 18.648438 -12.1875 20.359375 -12.1875 C 22.066406 -12.1875 23.488281 -12.8125 24.625 -14.0625 C 25.757812 -15.3125 26.328125 -16.6875 26.328125 -18.1875 C 26.328125 -19.6875 25.78125 -21.082031 24.6875 -22.375 C 23.601562 -23.664062 22.140625 -24.3125 20.296875 -24.3125 C 18.453125 -24.3125 16.972656 -23.675781 15.859375 -22.40625 C 14.753906 -21.132812 14.203125 -19.738281 14.203125 -18.21875 C 14.203125 -16.695312 14.800781 -15.3125 16 -14.0625 Z M 16 -14.0625 "/></g></g><g style="fill:#f6a800;fill-opacity:1;"><g transform="translate(135.973414, 129.026611)"><path style="stroke:none" d="M 3.53125 -7.140625 C 2.332031 -8.609375 1.734375 -9.929688 1.734375 -11.109375 C 1.734375 -12.296875 2.722656 -13.859375 4.703125 -15.796875 C 5.859375 -16.898438 7.082031 -17.453125 8.375 -17.453125 C 9.675781 -17.453125 11.476562 -16.296875 13.78125 -13.984375 C 14.425781 -13.203125 15.347656 -12.453125 16.546875 -11.734375 C 17.753906 -11.023438 18.863281 -10.671875 19.875 -10.671875 C 24.175781 -10.671875 26.328125 -12.425781 26.328125 -15.9375 C 26.328125 -17 25.734375 -17.882812 24.546875 -18.59375 C 23.367188 -19.3125 21.90625 -19.832031 20.15625 -20.15625 C 18.40625 -20.476562 16.507812 -20.992188 14.46875 -21.703125 C 12.4375 -22.421875 10.546875 -23.265625 8.796875 -24.234375 C 7.046875 -25.210938 5.578125 -26.75 4.390625 -28.84375 C 3.210938 -30.945312 2.625 -33.476562 2.625 -36.4375 C 2.625 -40.5 4.132812 -44.039062 7.15625 -47.0625 C 10.1875 -50.09375 14.3125 -51.609375 19.53125 -51.609375 C 22.300781 -51.609375 24.828125 -51.25 27.109375 -50.53125 C 29.398438 -49.8125 30.984375 -49.082031 31.859375 -48.34375 L 33.59375 -47.03125 C 35.019531 -45.6875 35.734375 -44.550781 35.734375 -43.625 C 35.734375 -42.707031 35.179688 -41.441406 34.078125 -39.828125 C 32.503906 -37.515625 30.890625 -36.359375 29.234375 -36.359375 C 28.265625 -36.359375 27.0625 -36.820312 25.625 -37.75 C 25.488281 -37.84375 25.222656 -38.070312 24.828125 -38.4375 C 24.441406 -38.8125 24.085938 -39.113281 23.765625 -39.34375 C 22.785156 -39.945312 21.546875 -40.25 20.046875 -40.25 C 18.546875 -40.25 17.300781 -39.890625 16.3125 -39.171875 C 15.320312 -38.453125 14.828125 -37.457031 14.828125 -36.1875 C 14.828125 -34.914062 15.414062 -33.890625 16.59375 -33.109375 C 17.769531 -32.328125 19.234375 -31.796875 20.984375 -31.515625 C 22.742188 -31.234375 24.660156 -30.804688 26.734375 -30.234375 C 28.816406 -29.660156 30.734375 -28.957031 32.484375 -28.125 C 34.242188 -27.289062 35.710938 -25.84375 36.890625 -23.78125 C 38.066406 -21.726562 38.65625 -19.203125 38.65625 -16.203125 C 38.65625 -13.203125 38.050781 -10.554688 36.84375 -8.265625 C 35.644531 -5.984375 34.078125 -4.222656 32.140625 -2.984375 C 28.398438 -0.535156 24.40625 0.6875 20.15625 0.6875 C 17.988281 0.6875 15.929688 0.421875 13.984375 -0.109375 C 12.046875 -0.640625 10.476562 -1.296875 9.28125 -2.078125 C 6.832031 -3.554688 5.125 -4.988281 4.15625 -6.375 Z M 3.53125 -7.140625 "/></g></g><g style="fill:#f6a800;fill-opacity:1;"><g transform="translate(177.318289, 129.026611)"><path style="stroke:none" d="M 26.453125 -32.625 C 26.734375 -35.207031 28.5625 -36.5 31.9375 -36.5 C 33.726562 -36.5 35.0625 -36.359375 35.9375 -36.078125 C 36.820312 -35.804688 37.4375 -35.320312 37.78125 -34.625 C 38.125 -33.9375 38.332031 -33.328125 38.40625 -32.796875 C 38.476562 -32.265625 38.515625 -31.46875 38.515625 -30.40625 L 38.515625 -6.171875 C 38.515625 -5.109375 38.476562 -4.3125 38.40625 -3.78125 C 38.332031 -3.25 38.132812 -2.632812 37.8125 -1.9375 C 37.164062 -0.738281 35.582031 -0.140625 33.0625 -0.140625 C 30.550781 -0.140625 28.867188 -0.453125 28.015625 -1.078125 C 27.160156 -1.703125 26.664062 -2.613281 26.53125 -3.8125 C 24.820312 -1.363281 21.96875 -0.140625 17.96875 -0.140625 C 13.976562 -0.140625 10.273438 -1.960938 6.859375 -5.609375 C 3.441406 -9.253906 1.734375 -13.488281 1.734375 -18.3125 C 1.734375 -23.144531 3.453125 -27.375 6.890625 -31 C 10.328125 -34.625 14.101562 -36.4375 18.21875 -36.4375 C 19.789062 -36.4375 21.222656 -36.15625 22.515625 -35.59375 C 23.804688 -35.039062 24.703125 -34.519531 25.203125 -34.03125 C 25.710938 -33.550781 26.128906 -33.082031 26.453125 -32.625 Z M 13.859375 -18.21875 C 13.859375 -16.695312 14.457031 -15.320312 15.65625 -14.09375 C 16.851562 -12.875 18.304688 -12.265625 20.015625 -12.265625 C 21.722656 -12.265625 23.140625 -12.882812 24.265625 -14.125 C 25.398438 -15.375 25.96875 -16.75 25.96875 -18.25 C 25.96875 -19.75 25.425781 -21.144531 24.34375 -22.4375 C 23.257812 -23.726562 21.804688 -24.375 19.984375 -24.375 C 18.160156 -24.375 16.679688 -23.726562 15.546875 -22.4375 C 14.421875 -21.144531 13.859375 -19.738281 13.859375 -18.21875 Z M 13.859375 -18.21875 "/></g></g><g style="fill:#f6a800;fill-opacity:1;"><g transform="translate(219.563466, 129.026611)"><path style="stroke:none" d="M 24.109375 -36.4375 C 27.296875 -36.4375 29.164062 -35.554688 29.71875 -33.796875 C 29.988281 -32.921875 30.125 -31.765625 30.125 -30.328125 C 30.125 -28.898438 29.972656 -27.757812 29.671875 -26.90625 C 29.378906 -26.050781 28.910156 -25.441406 28.265625 -25.078125 C 27.296875 -24.523438 25.882812 -24.25 24.03125 -24.25 L 19.609375 -24.515625 L 19.609375 -5.953125 C 19.609375 -4.203125 19.382812 -2.898438 18.9375 -2.046875 C 18.5 -1.191406 17.828125 -0.625 16.921875 -0.34375 C 16.023438 -0.0703125 14.863281 0.0625 13.4375 0.0625 C 12.007812 0.0625 10.867188 -0.0820312 10.015625 -0.375 C 9.160156 -0.675781 8.546875 -1.160156 8.171875 -1.828125 C 7.804688 -2.503906 7.585938 -3.117188 7.515625 -3.671875 C 7.441406 -4.222656 7.40625 -5.03125 7.40625 -6.09375 L 7.40625 -24.453125 L 4.921875 -24.453125 C 3.710938 -24.546875 2.859375 -24.820312 2.359375 -25.28125 C 1.472656 -26.15625 1.03125 -27.84375 1.03125 -30.34375 C 1.03125 -34.125 2.394531 -36.015625 5.125 -36.015625 L 7.40625 -36.015625 L 7.40625 -39.6875 C 7.40625 -43.238281 8.675781 -46.457031 11.21875 -49.34375 C 13.757812 -52.238281 17.429688 -53.6875 22.234375 -53.6875 C 23.296875 -53.6875 24.09375 -53.648438 24.625 -53.578125 C 25.15625 -53.503906 25.765625 -53.285156 26.453125 -52.921875 C 27.703125 -52.316406 28.328125 -50.535156 28.328125 -47.578125 C 28.328125 -45.367188 27.9375 -43.78125 27.15625 -42.8125 C 26.507812 -42.070312 25.492188 -41.65625 24.109375 -41.5625 C 23.691406 -41.5625 23.046875 -41.5625 22.171875 -41.5625 C 20.460938 -41.5625 19.609375 -40.984375 19.609375 -39.828125 L 19.609375 -36.015625 Z M 24.109375 -36.4375 "/></g></g><g style="fill:#f6a800;fill-opacity:1;"><g transform="translate(250.312371, 129.026611)"><path style="stroke:none" d="M 26.453125 -32.625 C 26.734375 -35.207031 28.5625 -36.5 31.9375 -36.5 C 33.726562 -36.5 35.0625 -36.359375 35.9375 -36.078125 C 36.820312 -35.804688 37.4375 -35.320312 37.78125 -34.625 C 38.125 -33.9375 38.332031 -33.328125 38.40625 -32.796875 C 38.476562 -32.265625 38.515625 -31.46875 38.515625 -30.40625 L 38.515625 -6.171875 C 38.515625 -5.109375 38.476562 -4.3125 38.40625 -3.78125 C 38.332031 -3.25 38.132812 -2.632812 37.8125 -1.9375 C 37.164062 -0.738281 35.582031 -0.140625 33.0625 -0.140625 C 30.550781 -0.140625 28.867188 -0.453125 28.015625 -1.078125 C 27.160156 -1.703125 26.664062 -2.613281 26.53125 -3.8125 C 24.820312 -1.363281 21.96875 -0.140625 17.96875 -0.140625 C 13.976562 -0.140625 10.273438 -1.960938 6.859375 -5.609375 C 3.441406 -9.253906 1.734375 -13.488281 1.734375 -18.3125 C 1.734375 -23.144531 3.453125 -27.375 6.890625 -31 C 10.328125 -34.625 14.101562 -36.4375 18.21875 -36.4375 C 19.789062 -36.4375 21.222656 -36.15625 22.515625 -35.59375 C 23.804688 -35.039062 24.703125 -34.519531 25.203125 -34.03125 C 25.710938 -33.550781 26.128906 -33.082031 26.453125 -32.625 Z M 13.859375 -18.21875 C 13.859375 -16.695312 14.457031 -15.320312 15.65625 -14.09375 C 16.851562 -12.875 18.304688 -12.265625 20.015625 -12.265625 C 21.722656 -12.265625 23.140625 -12.882812 24.265625 -14.125 C 25.398438 -15.375 25.96875 -16.75 25.96875 -18.25 C 25.96875 -19.75 25.425781 -21.144531 24.34375 -22.4375 C 23.257812 -23.726562 21.804688 -24.375 19.984375 -24.375 C 18.160156 -24.375 16.679688 -23.726562 15.546875 -22.4375 C 14.421875 -21.144531 13.859375 -19.738281 13.859375 -18.21875 Z M 13.859375 -18.21875 "/></g></g><g style="fill:#f6a800;fill-opacity:1;"><g transform="translate(292.557548, 129.026611)"><path style="stroke:none" d="M 27.5625 -36.078125 C 28.445312 -35.804688 29.175781 -35.332031 29.75 -34.65625 C 30.320312 -33.988281 30.609375 -32.914062 30.609375 -31.4375 C 30.609375 -29.96875 30.171875 -28.351562 29.296875 -26.59375 C 28.421875 -24.84375 27.148438 -23.96875 25.484375 -23.96875 C 24.660156 -23.96875 23.863281 -24.148438 23.09375 -24.515625 C 22.332031 -24.890625 21.328125 -25.078125 20.078125 -25.078125 C 18.835938 -25.078125 17.675781 -24.632812 16.59375 -23.75 C 15.507812 -22.875 14.96875 -21.816406 14.96875 -20.578125 L 14.96875 -6.03125 C 14.96875 -4.96875 14.929688 -4.171875 14.859375 -3.640625 C 14.785156 -3.109375 14.566406 -2.492188 14.203125 -1.796875 C 13.503906 -0.597656 11.703125 0 8.796875 0 C 6.578125 0 4.984375 -0.390625 4.015625 -1.171875 C 3.273438 -1.816406 2.859375 -2.8125 2.765625 -4.15625 C 2.765625 -4.613281 2.765625 -5.285156 2.765625 -6.171875 L 2.765625 -30.484375 C 2.765625 -31.535156 2.800781 -32.328125 2.875 -32.859375 C 2.945312 -33.390625 3.144531 -33.976562 3.46875 -34.625 C 4.113281 -35.875 5.910156 -36.5 8.859375 -36.5 C 11.628906 -36.5 13.363281 -35.96875 14.0625 -34.90625 C 14.570312 -34.164062 14.828125 -33.40625 14.828125 -32.625 C 15.054688 -32.945312 15.390625 -33.335938 15.828125 -33.796875 C 16.265625 -34.265625 17.195312 -34.890625 18.625 -35.671875 C 20.0625 -36.453125 21.320312 -36.84375 22.40625 -36.84375 C 23.488281 -36.84375 24.398438 -36.785156 25.140625 -36.671875 C 25.878906 -36.554688 26.6875 -36.359375 27.5625 -36.078125 Z M 27.5625 -36.078125 "/></g></g><g style="fill:#f6a800;fill-opacity:1;"><g transform="translate(325.176402, 129.026611)"><path style="stroke:none" d="M 2.765625 -30.40625 C 2.765625 -31.46875 2.800781 -32.265625 2.875 -32.796875 C 2.945312 -33.328125 3.144531 -33.9375 3.46875 -34.625 C 4.113281 -35.832031 5.910156 -36.4375 8.859375 -36.4375 C 11.078125 -36.4375 12.648438 -36.039062 13.578125 -35.25 C 14.359375 -34.601562 14.773438 -33.613281 14.828125 -32.28125 C 14.867188 -31.8125 14.890625 -31.140625 14.890625 -30.265625 L 14.890625 -6.03125 C 14.890625 -4.96875 14.851562 -4.171875 14.78125 -3.640625 C 14.71875 -3.109375 14.5 -2.492188 14.125 -1.796875 C 13.53125 -0.597656 11.753906 0 8.796875 0 C 5.890625 0 4.113281 -0.625 3.46875 -1.875 C 3.144531 -2.5625 2.945312 -3.160156 2.875 -3.671875 C 2.800781 -4.179688 2.765625 -4.988281 2.765625 -6.09375 Z M 14.15625 -43.25 C 13.8125 -42.582031 13.203125 -42.109375 12.328125 -41.828125 C 11.453125 -41.554688 10.285156 -41.421875 8.828125 -41.421875 C 7.378906 -41.421875 6.210938 -41.554688 5.328125 -41.828125 C 4.453125 -42.109375 3.84375 -42.59375 3.5 -43.28125 C 3.15625 -43.976562 2.945312 -44.59375 2.875 -45.125 C 2.800781 -45.65625 2.765625 -46.453125 2.765625 -47.515625 C 2.765625 -48.578125 2.800781 -49.375 2.875 -49.90625 C 2.945312 -50.4375 3.144531 -51.023438 3.46875 -51.671875 C 4.113281 -52.921875 5.910156 -53.546875 8.859375 -53.546875 C 11.773438 -53.546875 13.53125 -52.921875 14.125 -51.671875 C 14.5 -50.984375 14.71875 -50.375 14.78125 -49.84375 C 14.851562 -49.3125 14.890625 -48.515625 14.890625 -47.453125 C 14.890625 -46.390625 14.851562 -45.59375 14.78125 -45.0625 C 14.71875 -44.53125 14.507812 -43.925781 14.15625 -43.25 Z M 14.15625 -43.25 "/></g></g><g clip-rule="nonzero" clip-path="url(#2631769c81)"><path style=" stroke:none;fill-rule:nonzero;fill:#5b8def;fill-opacity:1;" d="M 88.070312 94.554688 L 87.289062 95.023438 C 81.914062 98.128906 75.929688 99.78125 69.851562 99.875 L 69.261719 99.882812 C 49.769531 99.882812 33.65625 84.023438 33.34375 64.53125 C 33.117188 50.867188 40.878906 38.042969 53.113281 31.867188 C 57.984375 29.40625 63.21875 28.113281 68.6875 28.027344 L 69.277344 28.023438 C 88.765625 28.023438 104.878906 43.875 105.195312 63.371094 C 105.398438 75.976562 98.839844 87.925781 88.070312 94.554688 Z M 69.28125 19.890625 L 68.554688 19.898438 C 56.808594 20.085938 45.824219 24.855469 37.628906 33.320312 C 29.433594 41.785156 25.023438 52.917969 25.214844 64.664062 C 25.601562 88.566406 45.355469 108.011719 69.257812 108.011719 L 69.980469 108.007812 C 77.421875 107.882812 84.742188 105.871094 91.15625 102.179688 L 91.945312 101.722656 L 92.519531 102.433594 C 96.785156 107.726562 101.066406 113.019531 105.351562 118.3125 L 112.464844 127.105469 C 113.980469 128.992188 115.882812 129.921875 118.464844 130.042969 C 118.621094 130.046875 118.753906 130.054688 118.886719 130.054688 C 120.515625 130.054688 122.125 129.40625 123.550781 128.179688 C 124.574219 127.292969 125.574219 126.371094 126.574219 125.449219 L 126.921875 125.128906 C 128.605469 123.570312 129.554688 121.566406 129.59375 119.496094 C 129.632812 117.390625 128.738281 115.316406 127.070312 113.65625 C 123.496094 110.089844 119.882812 106.5625 116.269531 103.03125 L 111.804688 98.667969 C 110.601562 97.496094 109.394531 96.316406 108.195312 95.136719 C 107.019531 93.984375 105.847656 92.835938 104.671875 91.691406 L 104 91.042969 L 104.558594 90.289062 C 110.453125 82.421875 113.484375 73.066406 113.324219 63.242188 C 112.9375 39.335938 93.179688 19.890625 69.28125 19.890625 "/></g><g style="fill:#f6a800;fill-opacity:1;"><g transform="translate(44.099597, 84.131058)"><path style="stroke:none" d="M 29.625 -36.53125 C 29.9375 -39.425781 31.976562 -40.875 35.75 -40.875 C 37.769531 -40.875 39.269531 -40.71875 40.25 -40.40625 C 41.238281 -40.09375 41.925781 -39.550781 42.3125 -38.78125 C 42.695312 -38.007812 42.925781 -37.320312 43 -36.71875 C 43.082031 -36.125 43.125 -35.234375 43.125 -34.046875 L 43.125 -6.90625 C 43.125 -5.71875 43.082031 -4.820312 43 -4.21875 C 42.925781 -3.625 42.707031 -2.941406 42.34375 -2.171875 C 41.625 -0.828125 39.851562 -0.15625 37.03125 -0.15625 C 34.21875 -0.15625 32.332031 -0.503906 31.375 -1.203125 C 30.414062 -1.898438 29.859375 -2.921875 29.703125 -4.265625 C 27.796875 -1.523438 24.601562 -0.15625 20.125 -0.15625 C 15.65625 -0.15625 11.503906 -2.195312 7.671875 -6.28125 C 3.847656 -10.363281 1.9375 -15.109375 1.9375 -20.515625 C 1.9375 -25.921875 3.863281 -30.648438 7.71875 -34.703125 C 11.570312 -38.765625 15.800781 -40.796875 20.40625 -40.796875 C 22.15625 -40.796875 23.753906 -40.484375 25.203125 -39.859375 C 26.648438 -39.242188 27.660156 -38.664062 28.234375 -38.125 C 28.804688 -37.582031 29.269531 -37.050781 29.625 -36.53125 Z M 15.515625 -20.390625 C 15.515625 -18.691406 16.1875 -17.15625 17.53125 -15.78125 C 18.875 -14.414062 20.5 -13.734375 22.40625 -13.734375 C 24.320312 -13.734375 25.914062 -14.429688 27.1875 -15.828125 C 28.457031 -17.222656 29.09375 -18.757812 29.09375 -20.4375 C 29.09375 -22.113281 28.484375 -23.675781 27.265625 -25.125 C 26.046875 -26.570312 24.414062 -27.296875 22.375 -27.296875 C 20.332031 -27.296875 18.675781 -26.570312 17.40625 -25.125 C 16.144531 -23.675781 15.515625 -22.097656 15.515625 -20.390625 Z M 15.515625 -20.390625 "/></g></g></g></svg>